CaliforniaGothic-Regular.ufo
<glyph name="exclam" format="1">
  <advance width="450"/>
  <unicode hex="0021"/>
  <outline>
    <contour>
      <point x="330" y="390" type="line"/>
      <point x="120" y="390" type="line"/>
      <point x="100" y="880" type="line"/>
      <point x="100" y="1400" type="line"/>
      <point x="350" y="1400" type="line"/>
      <point x="350" y="880" type="line"/>
    </contour>
    <contour>
      <point x="110" y="230" type="line"/>
      <point x="340" y="230" type="line"/>
      <point x="340" y="0" type="line"/>
      <point x="110" y="0" type="line"/>
    </contour>
  </outline>
</glyph>
<glyph name="numbersign" format="1">
  <advance width="1232"/>
  <unicode hex="0023"/>
  <outline>
    <contour>
      <point x="290" y="410" type="line"/>
      <point x="100" y="410" type="line"/>
      <point x="100" y="580" type="line"/>
      <point x="324" y="580" type="line"/>
      <point x="372" y="820" type="line"/>
      <point x="182" y="820" type="line"/>
      <point x="182" y="990" type="line"/>
      <point x="406" y="990" type="line"/>
      <point x="448" y="1200" type="line"/>
      <point x="638" y="1200" type="line"/>
      <point x="596" y="990" type="line"/>
      <point x="786" y="990" type="line"/>
      <point x="828" y="1200" type="line"/>
      <point x="1018" y="1200" type="line"/>
      <point x="976" y="990" type="line"/>
      <point x="1132" y="990" type="line"/>
      <point x="1132" y="820" type="line"/>
      <point x="942" y="820" type="line"/>
      <point x="894" y="580" type="line"/>
      <point x="1050" y="580" type="line"/>
      <point x="1050" y="410" type="line"/>
      <point x="860" y="410" type="line"/>
      <point x="818" y="200" type="line"/>
      <point x="628" y="200" type="line"/>
      <point x="670" y="410" type="line"/>
      <point x="480" y="410" type="line"/>
      <point x="438" y="200" type="line"/>
      <point x="248" y="200" type="line"/>
    </contour>
    <contour>
      <point x="514" y="580" type="line"/>
      <point x="704" y="580" type="line"/>
      <point x="752" y="820" type="line"/>
      <point x="562" y="820" type="line"/>
    </contour>
  </outline>
</glyph>
<glyph name="dollar" format="1">
  <advance width="900"/>
  <unicode hex="0024"/>
  <outline>
    <contour>
      <point x="100" y="235" type="qcurve" smooth="yes"/>
      <point x="100" y="445" type="line"/>
      <point x="330" y="445" type="line"/>
      <point x="330" y="351" type="line" smooth="yes"/>
      <point x="330" y="330"/>
      <point x="351" y="330" type="qcurve" smooth="yes"/>
      <point x="549" y="330" type="line" smooth="yes"/>
      <point x="570" y="330"/>
      <point x="570" y="351" type="qcurve" smooth="yes"/>
      <point x="570" y="579" type="line" smooth="yes"/>
      <point x="570" y="600"/>
      <point x="549" y="600" type="qcurve" smooth="yes"/>
      <point x="235" y="600" type="line" smooth="yes"/>
      <point x="179" y="600"/>
      <point x="100" y="679"/>
      <point x="100" y="735" type="qcurve" smooth="yes"/>
      <point x="100" y="1165" type="line" smooth="yes"/>
      <point x="100" y="1221"/>
      <point x="179" y="1300"/>
      <point x="235" y="1300" type="qcurve" smooth="yes"/>
      <point x="350" y="1300" type="line"/>
      <point x="350" y="1500" type="line"/>
      <point x="550" y="1500" type="line"/>
      <point x="550" y="1300" type="line"/>
      <point x="665" y="1300" type="line" smooth="yes"/>
      <point x="721" y="1300"/>
      <point x="800" y="1221"/>
      <point x="800" y="1165" type="qcurve" smooth="yes"/>
      <point x="800" y="955" type="line"/>
      <point x="570" y="955" type="line"/>
      <point x="570" y="1049" type="line" smooth="yes"/>
      <point x="570" y="1070"/>
      <point x="549" y="1070" type="qcurve" smooth="yes"/>
      <point x="351" y="1070" type="line" smooth="yes"/>
      <point x="330" y="1070"/>
      <point x="330" y="1049" type="qcurve" smooth="yes"/>
      <point x="330" y="851" type="line" smooth="yes"/>
      <point x="330" y="830"/>
      <point x="351" y="830" type="qcurve" smooth="yes"/>
      <point x="665" y="830" type="line" smooth="yes"/>
      <point x="721" y="830"/>
      <point x="800" y="751"/>
      <point x="800" y="695" type="qcurve" smooth="yes"/>
      <point x="800" y="235" type="line" smooth="yes"/>
      <point x="800" y="179"/>
      <point x="721" y="100"/>
      <point x="665" y="100" type="qcurve" smooth="yes"/>
      <point x="550" y="100" type="line"/>
      <point x="550" y="-100" type="line"/>
      <point x="350" y="-100" type="line"/>
      <point x="350" y="100" type="line"/>
      <point x="235" y="100" type="line" smooth="yes"/>
      <point x="179" y="100"/>
      <point x="100" y="179"/>
    </contour>
  </outline>
</glyph>
<glyph name="percent" format="1">
  <advance width="1260"/>
  <unicode hex="0025"/>
  <outline>
    <contour>
      <point x="220" y="0" type="line"/>
      <point x="820" y="1400" type="line"/>
      <point x="1020" y="1400" type="line"/>
      <point x="420" y="0" type="line"/>
    </contour>
    <contour>
      <point x="100" y="1029" type="qcurve" smooth="yes"/>
      <point x="100" y="1080" type="line" smooth="yes"/>
      <point x="100" y="1144"/>
      <point x="162" y="1248"/>
      <point x="267" y="1310"/>
      <point x="330" y="1310" type="qcurve" smooth="yes"/>
      <point x="394" y="1310"/>
      <point x="498" y="1248"/>
      <point x="560" y="1144"/>
      <point x="560" y="1080" type="qcurve" smooth="yes"/>
      <point x="560" y="1029" type="line" smooth="yes"/>
      <point x="560" y="934"/>
      <point x="425" y="800"/>
      <point x="330" y="800" type="qcurve" smooth="yes"/>
      <point x="235" y="800"/>
      <point x="100" y="934"/>
    </contour>
    <contour>
      <point x="259" y="1044" type="line" smooth="yes"/>
      <point x="259" y="1004"/>
      <point x="301" y="949"/>
      <point x="330" y="949" type="qcurve" smooth="yes"/>
      <point x="359" y="949"/>
      <point x="401" y="1004"/>
      <point x="401" y="1044" type="qcurve" smooth="yes"/>
      <point x="401" y="1066" type="line" smooth="yes"/>
      <point x="401" y="1106"/>
      <point x="359" y="1160"/>
      <point x="330" y="1160" type="qcurve" smooth="yes"/>
      <point x="301" y="1160"/>
      <point x="259" y="1106"/>
      <point x="259" y="1066" type="qcurve" smooth="yes"/>
    </contour>
    <contour>
      <point x="930" y="600" type="qcurve" smooth="yes"/>
      <point x="994" y="600"/>
      <point x="1098" y="538"/>
      <point x="1160" y="434"/>
      <point x="1160" y="370" type="qcurve" smooth="yes"/>
      <point x="1160" y="319" type="line" smooth="yes"/>
      <point x="1160" y="224"/>
      <point x="1025" y="90"/>
      <point x="930" y="90" type="qcurve" smooth="yes"/>
      <point x="835" y="90"/>
      <point x="700" y="224"/>
      <point x="700" y="319" type="qcurve" smooth="yes"/>
      <point x="700" y="370" type="line" smooth="yes"/>
      <point x="700" y="434"/>
      <point x="762" y="538"/>
      <point x="867" y="600"/>
    </contour>
    <contour>
      <point x="930" y="450" type="qcurve" smooth="yes"/>
      <point x="901" y="450"/>
      <point x="859" y="396"/>
      <point x="859" y="356" type="qcurve" smooth="yes"/>
      <point x="859" y="334" type="line" smooth="yes"/>
      <point x="859" y="294"/>
      <point x="901" y="239"/>
      <point x="930" y="239" type="qcurve" smooth="yes"/>
      <point x="959" y="239"/>
      <point x="1001" y="294"/>
      <point x="1001" y="334" type="qcurve" smooth="yes"/>
      <point x="1001" y="356" type="line" smooth="yes"/>
      <point x="1001" y="396"/>
      <point x="959" y="450"/>
    </contour>
  </outline>
</glyph>
<glyph name="ampersand" format="1">
  <advance width="1170"/>
  <unicode hex="0026"/>
  <outline>
    <contour>
      <point x="100" y="150" type="qcurve" smooth="yes"/>
      <point x="100" y="430" type="line" smooth="yes"/>
      <point x="100" y="482"/>
      <point x="133" y="551"/>
      <point x="166" y="586"/>
      <point x="166" y="586" type="qcurve"/>
      <point x="337" y="752" type="line"/>
      <point x="212" y="923" type="line"/>
      <point x="212" y="923"/>
      <point x="170" y="990"/>
      <point x="170" y="1040" type="qcurve" smooth="yes"/>
      <point x="170" y="1250" type="line" smooth="yes"/>
      <point x="170" y="1312"/>
      <point x="258" y="1400"/>
      <point x="320" y="1400" type="qcurve" smooth="yes"/>
      <point x="670" y="1400" type="line" smooth="yes"/>
      <point x="732" y="1400"/>
      <point x="820" y="1312"/>
      <point x="820" y="1250" type="qcurve" smooth="yes"/>
      <point x="820" y="1020" type="line" smooth="yes"/>
      <point x="820" y="963"/>
      <point x="776" y="902"/>
      <point x="776" y="902" type="qcurve"/>
      <point x="600" y="730" type="line"/>
      <point x="782" y="481" type="line"/>
      <point x="906" y="600" type="line"/>
      <point x="1044" y="456" type="line"/>
      <point x="900" y="317" type="line"/>
      <point x="1050" y="112" type="line"/>
      <point x="1050" y="112"/>
      <point x="1070" y="70"/>
      <point x="1070" y="35" type="qcurve" smooth="yes"/>
      <point x="1070" y="0" type="line"/>
      <point x="883" y="0" type="line"/>
      <point x="755" y="177" type="line"/>
      <point x="608" y="35" type="line"/>
      <point x="608" y="35"/>
      <point x="553" y="0"/>
      <point x="511" y="0" type="qcurve" smooth="yes"/>
      <point x="250" y="0" type="line" smooth="yes"/>
      <point x="188" y="0"/>
      <point x="100" y="88"/>
    </contour>
    <contour>
      <point x="599" y="1210" type="qcurve" smooth="yes"/>
      <point x="401" y="1210" type="line" smooth="yes"/>
      <point x="380" y="1210"/>
      <point x="380" y="1189" type="qcurve" smooth="yes"/>
      <point x="380" y="1033" type="line"/>
      <point x="481" y="894" type="line"/>
      <point x="620" y="1028" type="line"/>
      <point x="620" y="1189" type="line" smooth="yes"/>
      <point x="620" y="1210"/>
    </contour>
    <contour>
      <point x="300" y="234" type="line" smooth="yes"/>
      <point x="300" y="213"/>
      <point x="321" y="213" type="qcurve" smooth="yes"/>
      <point x="505" y="213" type="line"/>
      <point x="636" y="340" type="line"/>
      <point x="455" y="591" type="line"/>
      <point x="300" y="440" type="line"/>
    </contour>
  </outline>
</glyph>
<glyph name="quotesingle" format="1">
  <advance width="430"/>
  <unicode hex="0027"/>
  <outline>
    <contour>
      <point x="270" y="990" type="line"/>
      <point x="160" y="990" type="line"/>
      <point x="100" y="1220" type="line"/>
      <point x="100" y="1450" type="line"/>
      <point x="330" y="1450" type="line"/>
      <point x="330" y="1220" type="line"/>
    </contour>
  </outline>
</glyph>
<glyph name="parenleft" format="1">
  <advance width="640"/>
  <unicode hex="0028"/>
  <outline>
    <contour>
      <point x="100" y="270" type="qcurve" smooth="yes"/>
      <point x="100" y="1130" type="line" smooth="yes"/>
      <point x="100" y="1254"/>
      <point x="222" y="1458"/>
      <point x="427" y="1580"/>
      <point x="550" y="1580" type="qcurve" smooth="yes"/>
      <point x="630" y="1580" type="line"/>
      <point x="630" y="1400" type="line"/>
      <point x="550" y="1400" type="line" smooth="yes"/>
      <point x="510" y="1400"/>
      <point x="406" y="1359"/>
      <point x="330" y="1267"/>
      <point x="330" y="1190" type="qcurve" smooth="yes"/>
      <point x="330" y="210" type="line" smooth="yes"/>
      <point x="330" y="133"/>
      <point x="406" y="41"/>
      <point x="510" y="0"/>
      <point x="550" y="0" type="qcurve" smooth="yes"/>
      <point x="630" y="0" type="line"/>
      <point x="630" y="-180" type="line"/>
      <point x="550" y="-180" type="line" smooth="yes"/>
      <point x="427" y="-180"/>
      <point x="222" y="-58"/>
      <point x="100" y="147"/>
    </contour>
  </outline>
</glyph>
<glyph name="parenright" format="1">
  <advance width="640"/>
  <unicode hex="0029"/>
  <outline>
    <contour>
      <point x="90" y="-180" type="qcurve" smooth="yes"/>
      <point x="10" y="-180" type="line"/>
      <point x="10" y="0" type="line"/>
      <point x="90" y="0" type="line" smooth="yes"/>
      <point x="131" y="0"/>
      <point x="234" y="41"/>
      <point x="310" y="133"/>
      <point x="310" y="210" type="qcurve" smooth="yes"/>
      <point x="310" y="1190" type="line" smooth="yes"/>
      <point x="310" y="1267"/>
      <point x="234" y="1359"/>
      <point x="131" y="1400"/>
      <point x="90" y="1400" type="qcurve" smooth="yes"/>
      <point x="10" y="1400" type="line"/>
      <point x="10" y="1580" type="line"/>
      <point x="90" y="1580" type="line" smooth="yes"/>
      <point x="214" y="1580"/>
      <point x="418" y="1458"/>
      <point x="540" y="1254"/>
      <point x="540" y="1130" type="qcurve" smooth="yes"/>
      <point x="540" y="270" type="line" smooth="yes"/>
      <point x="540" y="147"/>
      <point x="418" y="-58"/>
      <point x="214" y="-180"/>
    </contour>
  </outline>
</glyph>
<glyph name="asterisk" format="1">
  <advance width="1023"/>
  <unicode hex="002A"/>
  <outline>
    <contour>
      <point x="355" y="999" type="line"/>
      <point x="338" y="1001" type="line"/>
      <point x="100" y="1079" type="line"/>
      <point x="162" y="1269" type="line"/>
      <point x="400" y="1191" type="line"/>
      <point x="415" y="1183" type="line"/>
      <point x="411" y="1200" type="line"/>
      <point x="411" y="1450" type="line"/>
      <point x="611" y="1450" type="line"/>
      <point x="611" y="1200" type="line"/>
      <point x="608" y="1183" type="line"/>
      <point x="623" y="1191" type="line"/>
      <point x="861" y="1269" type="line"/>
      <point x="923" y="1079" type="line"/>
      <point x="685" y="1001" type="line"/>
      <point x="667" y="999" type="line"/>
      <point x="680" y="987" type="line"/>
      <point x="827" y="785" type="line"/>
      <point x="666" y="668" type="line"/>
      <point x="519" y="870" type="line"/>
      <point x="511" y="886" type="line"/>
      <point x="504" y="870" type="line"/>
      <point x="357" y="668" type="line"/>
      <point x="195" y="785" type="line"/>
      <point x="342" y="987" type="line"/>
    </contour>
  </outline>
</glyph>
<glyph name="plus" format="1">
  <advance width="1000"/>
  <unicode hex="002B"/>
  <outline>
    <contour>
      <point x="390" y="290" type="line"/>
      <point x="390" y="580" type="line"/>
      <point x="100" y="580" type="line"/>
      <point x="100" y="800" type="line"/>
      <point x="390" y="800" type="line"/>
      <point x="390" y="1090" type="line"/>
      <point x="610" y="1090" type="line"/>
      <point x="610" y="800" type="line"/>
      <point x="900" y="800" type="line"/>
      <point x="900" y="580" type="line"/>
      <point x="610" y="580" type="line"/>
      <point x="610" y="290" type="line"/>
    </contour>
  </outline>
</glyph>
<glyph name="comma" format="1">
  <advance width="430"/>
  <unicode hex="002C"/>
  <outline>
    <contour>
      <point x="120" y="-200" type="line"/>
      <point x="200" y="0" type="line"/>
      <point x="100" y="0" type="line"/>
      <point x="100" y="230" type="line"/>
      <point x="330" y="230" type="line"/>
      <point x="330" y="0" type="line"/>
      <point x="220" y="-200" type="line"/>
    </contour>
  </outline>
</glyph>
<glyph name="period" format="1">
  <advance width="430"/>
  <unicode hex="002E"/>
  <outline>
    <contour>
      <point x="100" y="230" type="line"/>
      <point x="330" y="230" type="line"/>
      <point x="330" y="0" type="line"/>
      <point x="100" y="0" type="line"/>
    </contour>
  </outline>
</glyph>
<glyph name="slash" format="1">
  <advance width="800"/>
  <unicode hex="002F"/>
  <outline>
    <contour>
      <point x="700" y="1400" type="curve"/>
      <point x="700" y="1400"/>
      <point x="347" y="0"/>
      <point x="347" y="0" type="curve"/>
      <point x="347" y="0"/>
      <point x="100" y="0"/>
      <point x="100" y="0" type="curve"/>
      <point x="100" y="0"/>
      <point x="460" y="1400"/>
      <point x="460" y="1400" type="curve"/>
      <point x="460" y="1400"/>
      <point x="700" y="1400"/>
    </contour>
  </outline>
</glyph>
<glyph name="zero" format="1">
  <advance width="930"/>
  <unicode hex="0030"/>
  <outline>
    <contour>
      <point x="680" y="0" type="qcurve" smooth="yes"/>
      <point x="250" y="0" type="line" smooth="yes"/>
      <point x="188" y="0"/>
      <point x="100" y="88"/>
      <point x="100" y="150" type="qcurve" smooth="yes"/>
      <point x="100" y="1250" type="line" smooth="yes"/>
      <point x="100" y="1312"/>
      <point x="188" y="1400"/>
      <point x="250" y="1400" type="qcurve" smooth="yes"/>
      <point x="680" y="1400" type="line" smooth="yes"/>
      <point x="742" y="1400"/>
      <point x="830" y="1312"/>
      <point x="830" y="1250" type="qcurve" smooth="yes"/>
      <point x="830" y="150" type="line" smooth="yes"/>
      <point x="830" y="88"/>
      <point x="742" y="0"/>
    </contour>
    <contour>
      <point x="403" y="240" type="qcurve" smooth="yes"/>
      <point x="527" y="240" type="line" smooth="yes"/>
      <point x="553" y="240"/>
      <point x="590" y="277"/>
      <point x="590" y="303" type="qcurve" smooth="yes"/>
      <point x="590" y="1097" type="line" smooth="yes"/>
      <point x="590" y="1123"/>
      <point x="553" y="1160"/>
      <point x="527" y="1160" type="qcurve" smooth="yes"/>
      <point x="403" y="1160" type="line" smooth="yes"/>
      <point x="377" y="1160"/>
      <point x="340" y="1123"/>
      <point x="340" y="1097" type="qcurve" smooth="yes"/>
      <point x="340" y="303" type="line" smooth="yes"/>
      <point x="340" y="277"/>
      <point x="377" y="240"/>
    </contour>
  </outline>
</glyph>
<glyph name="one" format="1">
  <advance width="620"/>
  <unicode hex="0031"/>
  <outline>
    <contour>
      <point x="280" y="0" type="line"/>
      <point x="280" y="1060" type="line"/>
      <point x="280" y="1060"/>
      <point x="238" y="1030"/>
      <point x="158" y="1000"/>
      <point x="100" y="1000" type="qcurve"/>
      <point x="100" y="1270" type="line"/>
      <point x="142" y="1270"/>
      <point x="215" y="1309"/>
      <point x="270" y="1361"/>
      <point x="300" y="1400"/>
      <point x="300" y="1400" type="qcurve"/>
      <point x="520" y="1400" type="line"/>
      <point x="520" y="0" type="line"/>
    </contour>
  </outline>
</glyph>
<glyph name="two" format="1">
  <advance width="930"/>
  <unicode hex="0032"/>
  <outline>
    <contour>
      <point x="360" y="990" type="line"/>
      <point x="120" y="990" type="line"/>
      <point x="120" y="1240" type="line" smooth="yes"/>
      <point x="120" y="1306"/>
      <point x="214" y="1400"/>
      <point x="280" y="1400" type="qcurve" smooth="yes"/>
      <point x="670" y="1400" type="line" smooth="yes"/>
      <point x="736" y="1400"/>
      <point x="830" y="1306"/>
      <point x="830" y="1240" type="qcurve" smooth="yes"/>
      <point x="830" y="980" type="line" smooth="yes"/>
      <point x="830" y="914"/>
      <point x="757" y="770"/>
      <point x="644" y="618"/>
      <point x="520" y="464"/>
      <point x="416" y="312"/>
      <point x="390" y="240" type="qcurve"/>
      <point x="830" y="240" type="line"/>
      <point x="830" y="0" type="line"/>
      <point x="100" y="0" type="line"/>
      <point x="100" y="100" type="line" smooth="yes"/>
      <point x="100" y="183"/>
      <point x="173" y="354"/>
      <point x="288" y="522"/>
      <point x="418" y="681"/>
      <point x="533" y="826"/>
      <point x="606" y="950"/>
      <point x="606" y="998" type="qcurve" smooth="yes"/>
      <point x="606" y="1117" type="line" smooth="yes"/>
      <point x="606" y="1143"/>
      <point x="570" y="1180"/>
      <point x="544" y="1180" type="qcurve" smooth="yes"/>
      <point x="423" y="1180" type="line" smooth="yes"/>
      <point x="397" y="1180"/>
      <point x="360" y="1143"/>
      <point x="360" y="1117" type="qcurve" smooth="yes"/>
    </contour>
  </outline>
</glyph>
<glyph name="three" format="1">
  <advance width="930"/>
  <unicode hex="0033"/>
  <outline>
    <contour>
      <point x="100" y="160" type="qcurve" smooth="yes"/>
      <point x="100" y="410" type="line"/>
      <point x="330" y="410" type="line"/>
      <point x="330" y="303" type="line" smooth="yes"/>
      <point x="330" y="277"/>
      <point x="367" y="240"/>
      <point x="393" y="240" type="qcurve" smooth="yes"/>
      <point x="538" y="240" type="line" smooth="yes"/>
      <point x="564" y="240"/>
      <point x="600" y="277"/>
      <point x="600" y="303" type="qcurve" smooth="yes"/>
      <point x="600" y="537" type="line" smooth="yes"/>
      <point x="600" y="563"/>
      <point x="564" y="600"/>
      <point x="538" y="600" type="qcurve" smooth="yes"/>
      <point x="380" y="600" type="line"/>
      <point x="380" y="820" type="line"/>
      <point x="538" y="820" type="line" smooth="yes"/>
      <point x="564" y="820"/>
      <point x="600" y="857"/>
      <point x="600" y="883" type="qcurve" smooth="yes"/>
      <point x="600" y="1107" type="line" smooth="yes"/>
      <point x="600" y="1133"/>
      <point x="564" y="1170"/>
      <point x="538" y="1170" type="qcurve" smooth="yes"/>
      <point x="383" y="1170" type="line" smooth="yes"/>
      <point x="357" y="1170"/>
      <point x="320" y="1133"/>
      <point x="320" y="1107" type="qcurve" smooth="yes"/>
      <point x="320" y="1020" type="line"/>
      <point x="100" y="1020" type="line"/>
      <point x="100" y="1240" type="line" smooth="yes"/>
      <point x="100" y="1306"/>
      <point x="194" y="1400"/>
      <point x="260" y="1400" type="qcurve" smooth="yes"/>
      <point x="670" y="1400" type="line" smooth="yes"/>
      <point x="736" y="1400"/>
      <point x="830" y="1306"/>
      <point x="830" y="1240" type="qcurve" smooth="yes"/>
      <point x="830" y="860" type="line" smooth="yes"/>
      <point x="830" y="810"/>
      <point x="773" y="727"/>
      <point x="726" y="710" type="qcurve"/>
      <point x="773" y="692"/>
      <point x="830" y="610"/>
      <point x="830" y="560" type="qcurve" smooth="yes"/>
      <point x="830" y="160" type="line" smooth="yes"/>
      <point x="830" y="94"/>
      <point x="736" y="0"/>
      <point x="670" y="0" type="qcurve" smooth="yes"/>
      <point x="260" y="0" type="line" smooth="yes"/>
      <point x="194" y="0"/>
      <point x="100" y="94"/>
    </contour>
  </outline>
</glyph>
<glyph name="four" format="1">
  <advance width="930"/>
  <unicode hex="0034"/>
  <outline>
    <contour>
      <point x="550" y="260" type="curve"/>
      <point x="550" y="260"/>
      <point x="100" y="260"/>
      <point x="100" y="260" type="curve"/>
      <point x="100" y="260"/>
      <point x="100" y="450"/>
      <point x="100" y="450" type="curve"/>
      <point x="100" y="450"/>
      <point x="510" y="1400"/>
      <point x="510" y="1400" type="curve"/>
      <point x="510" y="1400"/>
      <point x="780" y="1400"/>
      <point x="780" y="1400" type="curve"/>
      <point x="780" y="1400"/>
      <point x="780" y="480"/>
      <point x="780" y="480" type="curve"/>
      <point x="780" y="480"/>
      <point x="830" y="480"/>
      <point x="830" y="480" type="curve"/>
      <point x="830" y="480"/>
      <point x="830" y="260"/>
      <point x="830" y="260" type="curve"/>
      <point x="830" y="260"/>
      <point x="780" y="260"/>
      <point x="780" y="260" type="curve"/>
      <point x="780" y="260"/>
      <point x="780" y="0"/>
      <point x="780" y="0" type="curve"/>
      <point x="780" y="0"/>
      <point x="550" y="0"/>
      <point x="550" y="0" type="curve"/>
      <point x="550" y="0"/>
      <point x="550" y="260"/>
    </contour>
    <contour>
      <point x="550" y="480" type="curve"/>
      <point x="550" y="480"/>
      <point x="550" y="1002"/>
      <point x="550" y="1002" type="curve"/>
      <point x="550" y="1002"/>
      <point x="327" y="480"/>
      <point x="327" y="480" type="curve"/>
      <point x="327" y="480"/>
      <point x="550" y="480"/>
    </contour>
  </outline>
</glyph>
<glyph name="five" format="1">
  <advance width="930"/>
  <unicode hex="0035"/>
  <outline>
    <contour>
      <point x="670" y="0" type="qcurve" smooth="yes"/>
      <point x="260" y="0" type="line" smooth="yes"/>
      <point x="194" y="0"/>
      <point x="100" y="94"/>
      <point x="100" y="160" type="qcurve" smooth="yes"/>
      <point x="100" y="410" type="line"/>
      <point x="330" y="410" type="line"/>
      <point x="330" y="303" type="line" smooth="yes"/>
      <point x="330" y="277"/>
      <point x="367" y="240"/>
      <point x="393" y="240" type="qcurve" smooth="yes"/>
      <point x="538" y="240" type="line" smooth="yes"/>
      <point x="564" y="240"/>
      <point x="600" y="277"/>
      <point x="600" y="303" type="qcurve" smooth="yes"/>
      <point x="600" y="547" type="line" smooth="yes"/>
      <point x="600" y="573"/>
      <point x="564" y="610"/>
      <point x="538" y="610" type="qcurve" smooth="yes"/>
      <point x="260" y="610" type="line" smooth="yes"/>
      <point x="194" y="610"/>
      <point x="100" y="704"/>
      <point x="100" y="770" type="qcurve" smooth="yes"/>
      <point x="100" y="1400" type="line"/>
      <point x="820" y="1400" type="line"/>
      <point x="820" y="1170" type="line"/>
      <point x="330" y="1170" type="line"/>
      <point x="330" y="903" type="line" smooth="yes"/>
      <point x="330" y="877"/>
      <point x="366" y="840"/>
      <point x="392" y="840" type="qcurve" smooth="yes"/>
      <point x="670" y="840" type="line" smooth="yes"/>
      <point x="736" y="840"/>
      <point x="830" y="746"/>
      <point x="830" y="680" type="qcurve" smooth="yes"/>
      <point x="830" y="160" type="line" smooth="yes"/>
      <point x="830" y="94"/>
      <point x="736" y="0"/>
    </contour>
  </outline>
</glyph>
<glyph name="six" format="1">
  <advance width="930"/>
  <unicode hex="0036"/>
  <outline>
    <contour>
      <point x="600" y="1020" type="line"/>
      <point x="600" y="1107" type="line" smooth="yes"/>
      <point x="600" y="1133"/>
      <point x="563" y="1170"/>
      <point x="537" y="1170" type="qcurve" smooth="yes"/>
      <point x="392" y="1170" type="line" smooth="yes"/>
      <point x="366" y="1170"/>
      <point x="330" y="1133"/>
      <point x="330" y="1107" type="qcurve" smooth="yes"/>
      <point x="330" y="883" type="line" smooth="yes"/>
      <point x="330" y="857"/>
      <point x="366" y="820"/>
      <point x="392" y="820" type="qcurve" smooth="yes"/>
      <point x="670" y="820" type="line" smooth="yes"/>
      <point x="736" y="820"/>
      <point x="830" y="726"/>
      <point x="830" y="660" type="qcurve" smooth="yes"/>
      <point x="830" y="160" type="line" smooth="yes"/>
      <point x="830" y="94"/>
      <point x="736" y="0"/>
      <point x="670" y="0" type="qcurve" smooth="yes"/>
      <point x="260" y="0" type="line" smooth="yes"/>
      <point x="194" y="0"/>
      <point x="100" y="94"/>
      <point x="100" y="160" type="qcurve" smooth="yes"/>
      <point x="100" y="1240" type="line" smooth="yes"/>
      <point x="100" y="1306"/>
      <point x="194" y="1400"/>
      <point x="260" y="1400" type="qcurve" smooth="yes"/>
      <point x="670" y="1400" type="line" smooth="yes"/>
      <point x="736" y="1400"/>
      <point x="830" y="1306"/>
      <point x="830" y="1240" type="qcurve" smooth="yes"/>
      <point x="830" y="1020" type="line"/>
    </contour>
    <contour>
      <point x="392" y="600" type="line" smooth="yes"/>
      <point x="366" y="600"/>
      <point x="330" y="563"/>
      <point x="330" y="537" type="qcurve" smooth="yes"/>
      <point x="330" y="303" type="line" smooth="yes"/>
      <point x="330" y="277"/>
      <point x="366" y="240"/>
      <point x="392" y="240" type="qcurve" smooth="yes"/>
      <point x="537" y="240" type="line" smooth="yes"/>
      <point x="563" y="240"/>
      <point x="600" y="277"/>
      <point x="600" y="303" type="qcurve" smooth="yes"/>
      <point x="600" y="537" type="line" smooth="yes"/>
      <point x="600" y="563"/>
      <point x="563" y="600"/>
      <point x="537" y="600" type="qcurve" smooth="yes"/>
    </contour>
  </outline>
</glyph>
<glyph name="seven" format="1">
  <advance width="930"/>
  <unicode hex="0037"/>
  <outline>
    <contour>
      <point x="830" y="1200" type="line"/>
      <point x="530" y="0" type="line"/>
      <point x="270" y="0" type="line"/>
      <point x="571" y="1170" type="line"/>
      <point x="330" y="1170" type="line"/>
      <point x="330" y="1080" type="line"/>
      <point x="100" y="1080" type="line"/>
      <point x="100" y="1400" type="line"/>
      <point x="830" y="1400" type="line"/>
    </contour>
  </outline>
</glyph>
<glyph name="eight" format="1">
  <advance width="930"/>
  <unicode hex="0038"/>
  <outline>
    <contour>
      <point x="726" y="710" type="qcurve"/>
      <point x="773" y="693"/>
      <point x="830" y="610"/>
      <point x="830" y="560" type="qcurve" smooth="yes"/>
      <point x="830" y="160" type="line" smooth="yes"/>
      <point x="830" y="94"/>
      <point x="736" y="0"/>
      <point x="670" y="0" type="qcurve" smooth="yes"/>
      <point x="260" y="0" type="line" smooth="yes"/>
      <point x="194" y="0"/>
      <point x="100" y="94"/>
      <point x="100" y="160" type="qcurve" smooth="yes"/>
      <point x="100" y="560" type="line" smooth="yes"/>
      <point x="100" y="610"/>
      <point x="157" y="693"/>
      <point x="204" y="710" type="qcurve"/>
      <point x="157" y="727"/>
      <point x="100" y="810"/>
      <point x="100" y="860" type="qcurve" smooth="yes"/>
      <point x="100" y="1240" type="line" smooth="yes"/>
      <point x="100" y="1306"/>
      <point x="194" y="1400"/>
      <point x="260" y="1400" type="qcurve" smooth="yes"/>
      <point x="670" y="1400" type="line" smooth="yes"/>
      <point x="736" y="1400"/>
      <point x="830" y="1306"/>
      <point x="830" y="1240" type="qcurve" smooth="yes"/>
      <point x="830" y="860" type="line" smooth="yes"/>
      <point x="830" y="810"/>
      <point x="773" y="727"/>
    </contour>
    <contour>
      <point x="392" y="820" type="qcurve" smooth="yes"/>
      <point x="538" y="820" type="line" smooth="yes"/>
      <point x="564" y="820"/>
      <point x="600" y="857"/>
      <point x="600" y="883" type="qcurve" smooth="yes"/>
      <point x="600" y="1117" type="line" smooth="yes"/>
      <point x="600" y="1143"/>
      <point x="564" y="1180"/>
      <point x="538" y="1180" type="qcurve" smooth="yes"/>
      <point x="393" y="1180" type="line" smooth="yes"/>
      <point x="367" y="1180"/>
      <point x="330" y="1143"/>
      <point x="330" y="1117" type="qcurve" smooth="yes"/>
      <point x="330" y="883" type="line" smooth="yes"/>
      <point x="330" y="857"/>
      <point x="366" y="820"/>
    </contour>
    <contour>
      <point x="393" y="230" type="qcurve" smooth="yes"/>
      <point x="538" y="230" type="line" smooth="yes"/>
      <point x="564" y="230"/>
      <point x="600" y="267"/>
      <point x="600" y="293" type="qcurve" smooth="yes"/>
      <point x="600" y="537" type="line" smooth="yes"/>
      <point x="600" y="563"/>
      <point x="564" y="600"/>
      <point x="538" y="600" type="qcurve" smooth="yes"/>
      <point x="392" y="600" type="line" smooth="yes"/>
      <point x="366" y="600"/>
      <point x="330" y="563"/>
      <point x="330" y="537" type="qcurve" smooth="yes"/>
      <point x="330" y="293" type="line" smooth="yes"/>
      <point x="330" y="267"/>
      <point x="367" y="230"/>
    </contour>
  </outline>
</glyph>
<glyph name="nine" format="1">
  <advance width="930"/>
  <unicode hex="0039"/>
  <outline>
    <contour>
      <point x="830" y="1240" type="qcurve" smooth="yes"/>
      <point x="830" y="160" type="line" smooth="yes"/>
      <point x="830" y="94"/>
      <point x="736" y="0"/>
      <point x="670" y="0" type="qcurve" smooth="yes"/>
      <point x="260" y="0" type="line" smooth="yes"/>
      <point x="194" y="0"/>
      <point x="100" y="94"/>
      <point x="100" y="160" type="qcurve" smooth="yes"/>
      <point x="100" y="380" type="line"/>
      <point x="330" y="380" type="line"/>
      <point x="330" y="283" type="line" smooth="yes"/>
      <point x="330" y="257"/>
      <point x="367" y="220"/>
      <point x="393" y="220" type="qcurve" smooth="yes"/>
      <point x="538" y="220" type="line" smooth="yes"/>
      <point x="564" y="220"/>
      <point x="600" y="257"/>
      <point x="600" y="283" type="qcurve" smooth="yes"/>
      <point x="600" y="645" type="line"/>
      <point x="581" y="616"/>
      <point x="518" y="580"/>
      <point x="480" y="580" type="qcurve" smooth="yes"/>
      <point x="260" y="580" type="line" smooth="yes"/>
      <point x="194" y="580"/>
      <point x="100" y="674"/>
      <point x="100" y="740" type="qcurve" smooth="yes"/>
      <point x="100" y="1240" type="line" smooth="yes"/>
      <point x="100" y="1306"/>
      <point x="194" y="1400"/>
      <point x="260" y="1400" type="qcurve" smooth="yes"/>
      <point x="670" y="1400" type="line" smooth="yes"/>
      <point x="736" y="1400"/>
      <point x="830" y="1306"/>
    </contour>
    <contour>
      <point x="538" y="800" type="line" smooth="yes"/>
      <point x="564" y="800"/>
      <point x="600" y="837"/>
      <point x="600" y="863" type="qcurve" smooth="yes"/>
      <point x="600" y="1117" type="line" smooth="yes"/>
      <point x="600" y="1143"/>
      <point x="564" y="1180"/>
      <point x="538" y="1180" type="qcurve" smooth="yes"/>
      <point x="393" y="1180" type="line" smooth="yes"/>
      <point x="367" y="1180"/>
      <point x="330" y="1143"/>
      <point x="330" y="1117" type="qcurve" smooth="yes"/>
      <point x="330" y="863" type="line" smooth="yes"/>
      <point x="330" y="837"/>
      <point x="367" y="800"/>
      <point x="393" y="800" type="qcurve" smooth="yes"/>
    </contour>
  </outline>
</glyph>
<glyph name="colon" format="1">
  <advance width="430"/>
  <unicode hex="003A"/>
  <outline>
    <contour>
      <point x="100" y="500" type="curve"/>
      <point x="100" y="500"/>
      <point x="330" y="500"/>
      <point x="330" y="500" type="curve"/>
      <point x="330" y="500"/>
      <point x="330" y="270"/>
      <point x="330" y="270" type="curve"/>
      <point x="330" y="270"/>
      <point x="100" y="270"/>
      <point x="100" y="270" type="curve"/>
      <point x="100" y="270"/>
      <point x="100" y="500"/>
    </contour>
    <contour>
      <point x="100" y="1130" type="curve"/>
      <point x="100" y="1130"/>
      <point x="330" y="1130"/>
      <point x="330" y="1130" type="curve"/>
      <point x="330" y="1130"/>
      <point x="330" y="900"/>
      <point x="330" y="900" type="curve"/>
      <point x="330" y="900"/>
      <point x="100" y="900"/>
      <point x="100" y="900" type="curve"/>
      <point x="100" y="900"/>
      <point x="100" y="1130"/>
    </contour>
  </outline>
</glyph>
<glyph name="semicolon" format="1">
  <advance width="430"/>
  <unicode hex="003B"/>
  <outline>
    <contour>
      <point x="100" y="830" type="curve"/>
      <point x="100" y="830"/>
      <point x="330" y="830"/>
      <point x="330" y="830" type="curve"/>
      <point x="330" y="830"/>
      <point x="330" y="600"/>
      <point x="330" y="600" type="curve"/>
      <point x="330" y="600"/>
      <point x="100" y="600"/>
      <point x="100" y="600" type="curve"/>
      <point x="100" y="600"/>
      <point x="100" y="830"/>
    </contour>
    <contour>
      <point x="100" y="0" type="curve"/>
      <point x="100" y="0"/>
      <point x="100" y="230"/>
      <point x="100" y="230" type="curve"/>
      <point x="100" y="230"/>
      <point x="330" y="230"/>
      <point x="330" y="230" type="curve"/>
      <point x="330" y="230"/>
      <point x="330" y="0"/>
      <point x="330" y="0" type="curve"/>
      <point x="330" y="0"/>
      <point x="220" y="-200"/>
      <point x="220" y="-200" type="curve"/>
      <point x="220" y="-200"/>
      <point x="120" y="-200"/>
      <point x="120" y="-200" type="curve"/>
      <point x="120" y="-200"/>
      <point x="200" y="0"/>
      <point x="200" y="0" type="curve"/>
      <point x="200" y="0"/>
      <point x="100" y="0"/>
    </contour>
  </outline>
</glyph>
<glyph name="less" format="1">
  <advance width="900"/>
  <unicode hex="003C"/>
  <outline>
    <contour>
      <point x="800" y="230" type="line"/>
      <point x="100" y="580" type="line"/>
      <point x="100" y="820" type="line"/>
      <point x="800" y="1170" type="line"/>
      <point x="800" y="960" type="line"/>
      <point x="294" y="700" type="line"/>
      <point x="800" y="440" type="line"/>
    </contour>
  </outline>
</glyph>
<glyph name="equal" format="1">
  <advance width="1000"/>
  <unicode hex="003D"/>
  <outline>
    <contour>
      <point x="100" y="1010" type="line"/>
      <point x="900" y="1010" type="line"/>
      <point x="900" y="790" type="line"/>
      <point x="100" y="790" type="line"/>
    </contour>
    <contour>
      <point x="100" y="610" type="line"/>
      <point x="900" y="610" type="line"/>
      <point x="900" y="390" type="line"/>
      <point x="100" y="390" type="line"/>
    </contour>
  </outline>
</glyph>
<glyph name="greater" format="1">
  <advance width="900"/>
  <unicode hex="003E"/>
  <outline>
    <contour>
      <point x="800" y="580" type="line"/>
      <point x="100" y="230" type="line"/>
      <point x="100" y="440" type="line"/>
      <point x="606" y="700" type="line"/>
      <point x="100" y="960" type="line"/>
      <point x="100" y="1170" type="line"/>
      <point x="800" y="820" type="line"/>
    </contour>
  </outline>
</glyph>
<glyph name="question" format="1">
  <advance width="910"/>
  <unicode hex="003F"/>
  <outline>
    <contour>
      <point x="260" y="1400" type="qcurve" smooth="yes"/>
      <point x="650" y="1400" type="line" smooth="yes"/>
      <point x="716" y="1400"/>
      <point x="810" y="1306"/>
      <point x="810" y="1240" type="qcurve" smooth="yes"/>
      <point x="810" y="1048" type="line" smooth="yes"/>
      <point x="810" y="968"/>
      <point x="752" y="849"/>
      <point x="668" y="751"/>
      <point x="583" y="654"/>
      <point x="525" y="538"/>
      <point x="525" y="460" type="qcurve" smooth="yes"/>
      <point x="525" y="360" type="line"/>
      <point x="300" y="360" type="line"/>
      <point x="300" y="450" type="line" smooth="yes"/>
      <point x="300" y="540"/>
      <point x="358" y="678"/>
      <point x="445" y="791"/>
      <point x="531" y="890"/>
      <point x="589" y="990"/>
      <point x="589" y="1048" type="qcurve" smooth="yes"/>
      <point x="589" y="1127" type="line" smooth="yes"/>
      <point x="589" y="1153"/>
      <point x="553" y="1190"/>
      <point x="527" y="1190" type="qcurve" smooth="yes"/>
      <point x="393" y="1190" type="line" smooth="yes"/>
      <point x="367" y="1190"/>
      <point x="330" y="1153"/>
      <point x="330" y="1127" type="qcurve" smooth="yes"/>
      <point x="330" y="1000" type="line"/>
      <point x="100" y="1000" type="line"/>
      <point x="100" y="1240" type="line" smooth="yes"/>
      <point x="100" y="1306"/>
      <point x="194" y="1400"/>
    </contour>
    <contour>
      <point x="300" y="230" type="line"/>
      <point x="530" y="230" type="line"/>
      <point x="530" y="0" type="line"/>
      <point x="300" y="0" type="line"/>
    </contour>
  </outline>
</glyph>
<glyph name="at" format="1">
  <advance width="1420"/>
  <unicode hex="0040"/>
  <outline>
    <contour>
      <point x="500" y="60" type="line" smooth="yes"/>
      <point x="388" y="60"/>
      <point x="206" y="166"/>
      <point x="100" y="348"/>
      <point x="100" y="460" type="qcurve" smooth="yes"/>
      <point x="100" y="940" type="line" smooth="yes"/>
      <point x="100" y="1053"/>
      <point x="206" y="1234"/>
      <point x="388" y="1340"/>
      <point x="500" y="1340" type="qcurve" smooth="yes"/>
      <point x="920" y="1340" type="line" smooth="yes"/>
      <point x="1031" y="1340"/>
      <point x="1210" y="1237"/>
      <point x="1318" y="1060"/>
      <point x="1320" y="950" type="qcurve" smooth="yes"/>
      <point x="1320" y="540" type="line" smooth="yes"/>
      <point x="1320" y="474"/>
      <point x="1226" y="380"/>
      <point x="1160" y="380" type="qcurve" smooth="yes"/>
      <point x="1000" y="380" type="line" smooth="yes"/>
      <point x="957" y="380"/>
      <point x="884" y="425"/>
      <point x="860" y="463" type="qcurve"/>
      <point x="814" y="380"/>
      <point x="720" y="380" type="qcurve" smooth="yes"/>
      <point x="580" y="380" type="line" smooth="yes"/>
      <point x="514" y="380"/>
      <point x="420" y="474"/>
      <point x="420" y="540" type="qcurve" smooth="yes"/>
      <point x="420" y="860" type="line" smooth="yes"/>
      <point x="420" y="926"/>
      <point x="514" y="1020"/>
      <point x="580" y="1020" type="qcurve" smooth="yes"/>
      <point x="710" y="1020" type="line" smooth="yes"/>
      <point x="792" y="1020"/>
      <point x="840" y="953" type="qcurve"/>
      <point x="840" y="1020" type="line"/>
      <point x="1000" y="1020" type="line"/>
      <point x="1000" y="603" type="line" smooth="yes"/>
      <point x="1000" y="577"/>
      <point x="1037" y="540"/>
      <point x="1063" y="540" type="qcurve" smooth="yes"/>
      <point x="1100" y="540" type="line" smooth="yes"/>
      <point x="1148" y="540"/>
      <point x="1160" y="587" type="qcurve"/>
      <point x="1160" y="940" type="line" smooth="yes"/>
      <point x="1160" y="1041"/>
      <point x="1021" y="1180"/>
      <point x="920" y="1180" type="qcurve" smooth="yes"/>
      <point x="500" y="1180" type="line" smooth="yes"/>
      <point x="399" y="1180"/>
      <point x="260" y="1041"/>
      <point x="260" y="940" type="qcurve" smooth="yes"/>
      <point x="260" y="460" type="line" smooth="yes"/>
      <point x="260" y="359"/>
      <point x="399" y="220"/>
      <point x="500" y="220" type="qcurve" smooth="yes"/>
      <point x="1170" y="220" type="line"/>
      <point x="1170" y="60" type="line"/>
    </contour>
    <contour>
      <point x="778" y="540" type="line" smooth="yes"/>
      <point x="804" y="540"/>
      <point x="840" y="577"/>
      <point x="840" y="603" type="qcurve" smooth="yes"/>
      <point x="840" y="797" type="line" smooth="yes"/>
      <point x="840" y="823"/>
      <point x="804" y="860"/>
      <point x="778" y="860" type="qcurve" smooth="yes"/>
      <point x="643" y="860" type="line" smooth="yes"/>
      <point x="617" y="860"/>
      <point x="580" y="823"/>
      <point x="580" y="797" type="qcurve" smooth="yes"/>
      <point x="580" y="603" type="line" smooth="yes"/>
      <point x="580" y="577"/>
      <point x="617" y="540"/>
      <point x="643" y="540" type="qcurve" smooth="yes"/>
    </contour>
  </outline>
</glyph>
<glyph name="B" format="1">
  <advance width="880"/>
  <unicode hex="0042"/>
  <outline>
    <contour>
      <point x="100" y="0" type="line"/>
      <point x="100" y="1400" type="line"/>
      <point x="635" y="1400" type="line" smooth="yes"/>
      <point x="695" y="1400"/>
      <point x="780" y="1315"/>
      <point x="780" y="1255" type="qcurve" smooth="yes"/>
      <point x="780" y="835" type="line" smooth="yes"/>
      <point x="780" y="790"/>
      <point x="729" y="717"/>
      <point x="688" y="700" type="qcurve"/>
      <point x="729" y="684"/>
      <point x="780" y="610"/>
      <point x="780" y="565" type="qcurve" smooth="yes"/>
      <point x="780" y="145" type="line" smooth="yes"/>
      <point x="780" y="85"/>
      <point x="695" y="0"/>
      <point x="635" y="0" type="qcurve" smooth="yes"/>
    </contour>
    <contour>
      <point x="350" y="820" type="line"/>
      <point x="550" y="820" type="line"/>
      <point x="550" y="1160" type="line"/>
      <point x="350" y="1160" type="line"/>
    </contour>
    <contour>
      <point x="350" y="240" type="line"/>
      <point x="550" y="240" type="line"/>
      <point x="550" y="580" type="line"/>
      <point x="350" y="580" type="line"/>
    </contour>
  </outline>
</glyph>
<glyph name="C" format="1">
  <advance width="910"/>
  <unicode hex="0043"/>
  <outline>
    <contour>
      <point x="100" y="145" type="curve" smooth="yes"/>
      <point x="100" y="145"/>
      <point x="100" y="1255"/>
      <point x="100" y="1255" type="curve" smooth="yes"/>
      <point x="100" y="1335"/>
      <point x="165" y="1400"/>
      <point x="245" y="1400" type="curve" smooth="yes"/>
      <point x="245" y="1400"/>
      <point x="665" y="1400"/>
      <point x="665" y="1400" type="curve" smooth="yes"/>
      <point x="745" y="1400"/>
      <point x="810" y="1335"/>
      <point x="810" y="1255" type="curve" smooth="yes"/>
      <point x="810" y="1255"/>
      <point x="810" y="955"/>
      <point x="810" y="955" type="curve"/>
      <point x="810" y="955"/>
      <point x="560" y="955"/>
      <point x="560" y="955" type="curve"/>
      <point x="560" y="955"/>
      <point x="560" y="1143"/>
      <point x="560" y="1143" type="curve"/>
      <point x="560" y="1143"/>
      <point x="360" y="1143"/>
      <point x="360" y="1143" type="curve"/>
      <point x="360" y="1143"/>
      <point x="360" y="260"/>
      <point x="360" y="260" type="curve"/>
      <point x="360" y="260"/>
      <point x="560" y="260"/>
      <point x="560" y="260" type="curve"/>
      <point x="560" y="260"/>
      <point x="560" y="445"/>
      <point x="560" y="445" type="curve"/>
      <point x="560" y="445"/>
      <point x="810" y="445"/>
      <point x="810" y="445" type="curve"/>
      <point x="810" y="445"/>
      <point x="810" y="145"/>
      <point x="810" y="145" type="curve" smooth="yes"/>
      <point x="810" y="66"/>
      <point x="746" y="0"/>
      <point x="667" y="0" type="curve" smooth="yes"/>
      <point x="667" y="0"/>
      <point x="245" y="0"/>
      <point x="245" y="0" type="curve" smooth="yes"/>
      <point x="165" y="0"/>
      <point x="100" y="65"/>
    </contour>
  </outline>
</glyph>
<glyph name="F" format="1">
  <advance width="860"/>
  <unicode hex="0046"/>
  <outline>
    <contour>
      <point x="350" y="0" type="line"/>
      <point x="100" y="0" type="line"/>
      <point x="100" y="1400" type="line"/>
      <point x="810" y="1400" type="line"/>
      <point x="810" y="1170" type="line"/>
      <point x="350" y="1170" type="line"/>
      <point x="350" y="820" type="line"/>
      <point x="730" y="820" type="line"/>
      <point x="730" y="580" type="line"/>
      <point x="350" y="580" type="line"/>
    </contour>
  </outline>
</glyph>
<glyph name="H" format="1">
  <advance width="970"/>
  <unicode hex="0048"/>
  <outline>
    <contour>
      <point x="350" y="0" type="curve"/>
      <point x="350" y="0"/>
      <point x="100" y="0"/>
      <point x="100" y="0" type="curve"/>
      <point x="100" y="0"/>
      <point x="100" y="1400"/>
      <point x="100" y="1400" type="curve"/>
      <point x="100" y="1400"/>
      <point x="350" y="1400"/>
      <point x="350" y="1400" type="curve"/>
      <point x="350" y="1400"/>
      <point x="350" y="810"/>
      <point x="350" y="810" type="curve"/>
      <point x="350" y="810"/>
      <point x="620" y="810"/>
      <point x="620" y="810" type="curve"/>
      <point x="620" y="810"/>
      <point x="620" y="1400"/>
      <point x="620" y="1400" type="curve"/>
      <point x="620" y="1400"/>
      <point x="870" y="1400"/>
      <point x="870" y="1400" type="curve"/>
      <point x="870" y="1400"/>
      <point x="870" y="0"/>
      <point x="870" y="0" type="curve"/>
      <point x="870" y="0"/>
      <point x="620" y="0"/>
      <point x="620" y="0" type="curve"/>
      <point x="620" y="0"/>
      <point x="620" y="570"/>
      <point x="620" y="570" type="curve"/>
      <point x="620" y="570"/>
      <point x="350" y="570"/>
      <point x="350" y="570" type="curve"/>
      <point x="350" y="570"/>
      <point x="350" y="0"/>
    </contour>
  </outline>
</glyph>
<glyph name="J" format="1">
  <advance width="910"/>
  <unicode hex="004A"/>
  <outline>
    <contour>
      <point x="100" y="145" type="qcurve" smooth="yes"/>
      <point x="100" y="430" type="line"/>
      <point x="350" y="430" type="line"/>
      <point x="350" y="260" type="line"/>
      <point x="560" y="260" type="line"/>
      <point x="560" y="1400" type="line"/>
      <point x="810" y="1400" type="line"/>
      <point x="810" y="145" type="line" smooth="yes"/>
      <point x="810" y="85"/>
      <point x="725" y="0"/>
      <point x="665" y="0" type="qcurve" smooth="yes"/>
      <point x="245" y="0" type="line" smooth="yes"/>
      <point x="185" y="0"/>
      <point x="100" y="85"/>
    </contour>
  </outline>
</glyph>
<glyph name="K" format="1">
  <advance width="950"/>
  <unicode hex="004B"/>
  <outline>
    <contour>
      <point x="579" y="714" type="line"/>
      <point x="900" y="0" type="line"/>
      <point x="640" y="0" type="line"/>
      <point x="368" y="603" type="line"/>
      <point x="350" y="603" type="line"/>
      <point x="350" y="0" type="line"/>
      <point x="100" y="0" type="line"/>
      <point x="100" y="1400" type="line"/>
      <point x="350" y="1400" type="line"/>
      <point x="350" y="813" type="line"/>
      <point x="367" y="813" type="line"/>
      <point x="620" y="1400" type="line"/>
      <point x="880" y="1400" type="line"/>
    </contour>
  </outline>
</glyph>
<glyph name="M" format="1">
  <advance width="1320"/>
  <unicode hex="004D"/>
  <outline>
    <contour>
      <point x="860" y="1400" type="line"/>
      <point x="1220" y="1400" type="line"/>
      <point x="1220" y="0" type="line"/>
      <point x="1000" y="0" type="line"/>
      <point x="1000" y="1050" type="line"/>
      <point x="750" y="0" type="line"/>
      <point x="570" y="0" type="line"/>
      <point x="320" y="1050" type="line"/>
      <point x="320" y="0" type="line"/>
      <point x="100" y="0" type="line"/>
      <point x="100" y="1400" type="line"/>
      <point x="460" y="1400" type="line"/>
      <point x="660" y="482" type="line"/>
    </contour>
  </outline>
</glyph>
<glyph name="N" format="1">
  <advance width="980"/>
  <unicode hex="004E"/>
  <outline>
    <contour>
      <point x="640" y="610" type="curve"/>
      <point x="640" y="610"/>
      <point x="640" y="1400"/>
      <point x="640" y="1400" type="curve"/>
      <point x="640" y="1400"/>
      <point x="880" y="1400"/>
      <point x="880" y="1400" type="curve"/>
      <point x="880" y="1400"/>
      <point x="880" y="0"/>
      <point x="880" y="0" type="curve"/>
      <point x="880" y="0"/>
      <point x="670" y="0"/>
      <point x="670" y="0" type="curve"/>
      <point x="670" y="0"/>
      <point x="330" y="754"/>
      <point x="330" y="754" type="curve"/>
      <point x="330" y="754"/>
      <point x="330" y="0"/>
      <point x="330" y="0" type="curve"/>
      <point x="330" y="0"/>
      <point x="100" y="0"/>
      <point x="100" y="0" type="curve"/>
      <point x="100" y="0"/>
      <point x="100" y="1400"/>
      <point x="100" y="1400" type="curve"/>
      <point x="100" y="1400"/>
      <point x="310" y="1400"/>
      <point x="310" y="1400" type="curve"/>
      <point x="310" y="1400"/>
      <point x="640" y="610"/>
    </contour>
  </outline>
</glyph>
<glyph name="P" format="1">
  <advance width="890"/>
  <unicode hex="0050"/>
  <outline>
    <contour>
      <point x="810" y="1260" type="qcurve" smooth="yes"/>
      <point x="810" y="665" type="line" smooth="yes"/>
      <point x="810" y="605"/>
      <point x="725" y="520"/>
      <point x="665" y="520" type="qcurve" smooth="yes"/>
      <point x="350" y="520" type="line"/>
      <point x="350" y="0" type="line"/>
      <point x="100" y="0" type="line"/>
      <point x="100" y="1400" type="line"/>
      <point x="670" y="1400" type="line" smooth="yes"/>
      <point x="728" y="1400"/>
      <point x="810" y="1318"/>
    </contour>
    <contour>
      <point x="350" y="770" type="line"/>
      <point x="560" y="770" type="line"/>
      <point x="560" y="1160" type="line"/>
      <point x="350" y="1160" type="line"/>
    </contour>
  </outline>
</glyph>
<glyph name="Q" format="1">
  <advance width="940"/>
  <unicode hex="0051"/>
  <outline>
    <contour>
      <point x="100" y="145" type="qcurve" smooth="yes"/>
      <point x="100" y="1255" type="line" smooth="yes"/>
      <point x="100" y="1315"/>
      <point x="185" y="1400"/>
      <point x="245" y="1400" type="qcurve" smooth="yes"/>
      <point x="695" y="1400" type="line" smooth="yes"/>
      <point x="755" y="1400"/>
      <point x="840" y="1315"/>
      <point x="840" y="1255" type="qcurve" smooth="yes"/>
      <point x="840" y="145" type="line" smooth="yes"/>
      <point x="840" y="87"/>
      <point x="759" y="0"/>
      <point x="700" y="0" type="qcurve"/>
      <point x="820" y="-150" type="line"/>
      <point x="640" y="-250" type="line"/>
      <point x="499" y="-21" type="line"/>
      <point x="499" y="-21"/>
      <point x="484" y="0"/>
      <point x="465" y="0" type="qcurve" smooth="yes"/>
      <point x="245" y="0" type="line" smooth="yes"/>
      <point x="185" y="0"/>
      <point x="100" y="85"/>
    </contour>
    <contour>
      <point x="590" y="250" type="line"/>
      <point x="590" y="1150" type="line"/>
      <point x="350" y="1150" type="line"/>
      <point x="350" y="250" type="line"/>
    </contour>
  </outline>
</glyph>
<glyph name="W" format="1">
  <advance width="1442"/>
  <unicode hex="0057"/>
  <outline>
    <contour>
      <point x="996" y="470" type="line"/>
      <point x="1182" y="1400" type="line"/>
      <point x="1442" y="1400" type="line"/>
      <point x="1105" y="0" type="line"/>
      <point x="875" y="0" type="line"/>
      <point x="721" y="811" type="line"/>
      <point x="567" y="0" type="line"/>
      <point x="337" y="0" type="line"/>
      <point x="0" y="1400" type="line"/>
      <point x="260" y="1400" type="line"/>
      <point x="446" y="470" type="line"/>
      <point x="607" y="1400" type="line"/>
      <point x="835" y="1400" type="line"/>
    </contour>
  </outline>
</glyph>
<glyph name="Z" format="1">
  <advance width="890"/>
  <unicode hex="005A"/>
  <outline>
    <contour>
      <point x="90" y="1400" type="curve"/>
      <point x="90" y="1400"/>
      <point x="800" y="1400"/>
      <point x="800" y="1400" type="curve"/>
      <point x="800" y="1400"/>
      <point x="800" y="1240"/>
      <point x="800" y="1240" type="curve"/>
      <point x="800" y="1240"/>
      <point x="384" y="230"/>
      <point x="384" y="230" type="curve"/>
      <point x="384" y="230"/>
      <point x="800" y="230"/>
      <point x="800" y="230" type="curve"/>
      <point x="800" y="230"/>
      <point x="800" y="0"/>
      <point x="800" y="0" type="curve"/>
      <point x="800" y="0"/>
      <point x="90" y="0"/>
      <point x="90" y="0" type="curve"/>
      <point x="90" y="0"/>
      <point x="90" y="160"/>
      <point x="90" y="160" type="curve"/>
      <point x="90" y="160"/>
      <point x="529" y="1170"/>
      <point x="529" y="1170" type="curve"/>
      <point x="529" y="1170"/>
      <point x="90" y="1170"/>
      <point x="90" y="1170" type="curve"/>
      <point x="90" y="1170"/>
      <point x="90" y="1400"/>
    </contour>
  </outline>
</glyph>
<glyph name="bracketleft" format="1">
  <advance width="650"/>
  <unicode hex="005B"/>
  <outline>
    <contour>
      <point x="640" y="1400" type="curve"/>
      <point x="640" y="1400"/>
      <point x="330" y="1400"/>
      <point x="330" y="1400" type="curve"/>
      <point x="330" y="1400"/>
      <point x="330" y="0"/>
      <point x="330" y="0" type="curve"/>
      <point x="330" y="0"/>
      <point x="640" y="0"/>
      <point x="640" y="0" type="curve"/>
      <point x="640" y="0"/>
      <point x="640" y="-200"/>
      <point x="640" y="-200" type="curve"/>
      <point x="640" y="-200"/>
      <point x="100" y="-200"/>
      <point x="100" y="-200" type="curve"/>
      <point x="100" y="-200"/>
      <point x="100" y="1600"/>
      <point x="100" y="1600" type="curve"/>
      <point x="100" y="1600"/>
      <point x="640" y="1600"/>
      <point x="640" y="1600" type="curve"/>
      <point x="640" y="1600"/>
      <point x="640" y="1400"/>
    </contour>
  </outline>
</glyph>
<glyph name="backslash" format="1">
  <advance width="800"/>
  <unicode hex="005C"/>
  <outline>
    <contour>
      <point x="700" y="0" type="line"/>
      <point x="460" y="0" type="line"/>
      <point x="100" y="1400" type="line"/>
      <point x="347" y="1400" type="line"/>
    </contour>
  </outline>
</glyph>
<glyph name="bracketright" format="1">
  <advance width="650"/>
  <unicode hex="005D"/>
  <outline>
    <contour>
      <point x="10" y="1400" type="line"/>
      <point x="10" y="1600" type="line"/>
      <point x="550" y="1600" type="line"/>
      <point x="550" y="-200" type="line"/>
      <point x="10" y="-200" type="line"/>
      <point x="10" y="0" type="line"/>
      <point x="320" y="0" type="line"/>
      <point x="320" y="1400" type="line"/>
    </contour>
  </outline>
</glyph>
<glyph name="asciicircum" format="1">
  <advance width="935"/>
  <unicode hex="005E"/>
  <outline>
    <contour>
      <point x="350" y="1450" type="curve"/>
      <point x="350" y="1450"/>
      <point x="585" y="1450"/>
      <point x="585" y="1450" type="curve"/>
      <point x="585" y="1450"/>
      <point x="835" y="950"/>
      <point x="835" y="950" type="curve"/>
      <point x="835" y="950"/>
      <point x="625" y="950"/>
      <point x="625" y="950" type="curve"/>
      <point x="625" y="950"/>
      <point x="468" y="1253"/>
      <point x="468" y="1253" type="curve"/>
      <point x="468" y="1253"/>
      <point x="310" y="950"/>
      <point x="310" y="950" type="curve"/>
      <point x="310" y="950"/>
      <point x="100" y="950"/>
      <point x="100" y="950" type="curve"/>
      <point x="100" y="950"/>
      <point x="350" y="1450"/>
    </contour>
  </outline>
</glyph>
<glyph name="underscore" format="1">
  <advance width="1000"/>
  <unicode hex="005F"/>
  <outline>
    <contour>
      <point x="100" y="0" type="line"/>
      <point x="900" y="0" type="line"/>
      <point x="900" y="-200" type="line"/>
      <point x="100" y="-200" type="line"/>
    </contour>
  </outline>
</glyph>
<glyph name="grave" format="1">
  <advance width="600"/>
  <unicode hex="0060"/>
  <outline>
    <contour>
      <point x="360" y="1450" type="line"/>
      <point x="500" y="1050" type="line"/>
      <point x="300" y="1050" type="line"/>
      <point x="100" y="1450" type="line"/>
    </contour>
  </outline>
</glyph>
<glyph name="d" format="1">
  <advance width="890"/>
  <unicode hex="0064"/>
  <outline>
    <contour>
      <point x="100" y="0" type="line"/>
      <point x="100" y="1400" type="line"/>
      <point x="630" y="1400" type="line" smooth="yes"/>
      <point x="696" y="1400"/>
      <point x="790" y="1306"/>
      <point x="790" y="1240" type="qcurve" smooth="yes"/>
      <point x="790" y="160" type="line" smooth="yes"/>
      <point x="790" y="94"/>
      <point x="696" y="0"/>
      <point x="630" y="0" type="qcurve" smooth="yes"/>
    </contour>
    <contour>
      <point x="350" y="230" type="line"/>
      <point x="529" y="230" type="line" smooth="yes"/>
      <point x="550" y="230"/>
      <point x="550" y="251" type="qcurve" smooth="yes"/>
      <point x="550" y="1149" type="line" smooth="yes"/>
      <point x="550" y="1170"/>
      <point x="529" y="1170" type="qcurve" smooth="yes"/>
      <point x="350" y="1170" type="line"/>
    </contour>
  </outline>
</glyph>
<glyph name="h" format="1">
  <advance width="970"/>
  <unicode hex="0068"/>
  <outline>
    <contour>
      <point x="350" y="0" type="line"/>
      <point x="100" y="0" type="line"/>
      <point x="100" y="1400" type="line"/>
      <point x="350" y="1400" type="line"/>
      <point x="350" y="810" type="line"/>
      <point x="620" y="810" type="line"/>
      <point x="620" y="1400" type="line"/>
      <point x="870" y="1400" type="line"/>
      <point x="870" y="0" type="line"/>
      <point x="620" y="0" type="line"/>
      <point x="620" y="570" type="line"/>
      <point x="350" y="570" type="line"/>
    </contour>
  </outline>
</glyph>
<glyph name="l" format="1">
  <advance width="880"/>
  <unicode hex="006C"/>
  <outline>
    <contour>
      <point x="350" y="255" type="line"/>
      <point x="800" y="255" type="line"/>
      <point x="800" y="0" type="line"/>
      <point x="100" y="0" type="line"/>
      <point x="100" y="1400" type="line"/>
      <point x="350" y="1400" type="line"/>
    </contour>
  </outline>
</glyph>
<glyph name="n" format="1">
  <advance width="980"/>
  <unicode hex="006E"/>
  <outline>
    <contour>
      <point x="640" y="610" type="line"/>
      <point x="640" y="1400" type="line"/>
      <point x="880" y="1400" type="line"/>
      <point x="880" y="0" type="line"/>
      <point x="670" y="0" type="line"/>
      <point x="330" y="754" type="line"/>
      <point x="330" y="0" type="line"/>
      <point x="100" y="0" type="line"/>
      <point x="100" y="1400" type="line"/>
      <point x="310" y="1400" type="line"/>
    </contour>
  </outline>
</glyph>
<glyph name="p" format="1">
  <advance width="890"/>
  <unicode hex="0070"/>
  <outline>
    <contour>
      <point x="810" y="1260" type="qcurve" smooth="yes"/>
      <point x="810" y="665" type="line" smooth="yes"/>
      <point x="810" y="605"/>
      <point x="725" y="520"/>
      <point x="665" y="520" type="qcurve" smooth="yes"/>
      <point x="350" y="520" type="line"/>
      <point x="350" y="0" type="line"/>
      <point x="100" y="0" type="line"/>
      <point x="100" y="1400" type="line"/>
      <point x="670" y="1400" type="line" smooth="yes"/>
      <point x="728" y="1400"/>
      <point x="810" y="1318"/>
    </contour>
    <contour>
      <point x="350" y="770" type="line"/>
      <point x="560" y="770" type="line"/>
      <point x="560" y="1160" type="line"/>
      <point x="350" y="1160" type="line"/>
    </contour>
  </outline>
</glyph>
<glyph name="t" format="1">
  <advance width="880"/>
  <unicode hex="0074"/>
  <outline>
    <contour>
      <point x="315" y="0" type="line"/>
      <point x="315" y="1160" type="line"/>
      <point x="50" y="1160" type="line"/>
      <point x="50" y="1400" type="line"/>
      <point x="830" y="1400" type="line"/>
      <point x="830" y="1160" type="line"/>
      <point x="565" y="1160" type="line"/>
      <point x="565" y="0" type="line"/>
    </contour>
  </outline>
</glyph>
<glyph name="v" format="1">
  <advance width="990"/>
  <unicode hex="0076"/>
  <outline>
    <contour>
      <point x="495" y="460" type="curve"/>
      <point x="495" y="460"/>
      <point x="710" y="1400"/>
      <point x="710" y="1400" type="curve"/>
      <point x="710" y="1400"/>
      <point x="970" y="1400"/>
      <point x="970" y="1400" type="curve"/>
      <point x="970" y="1400"/>
      <point x="630" y="0"/>
      <point x="630" y="0" type="curve"/>
      <point x="630" y="0"/>
      <point x="360" y="0"/>
      <point x="360" y="0" type="curve"/>
      <point x="360" y="0"/>
      <point x="20" y="1400"/>
      <point x="20" y="1400" type="curve"/>
      <point x="20" y="1400"/>
      <point x="280" y="1400"/>
      <point x="280" y="1400" type="curve"/>
      <point x="280" y="1400"/>
      <point x="495" y="460"/>
    </contour>
  </outline>
</glyph>
<glyph name="w" format="1">
  <advance width="1442"/>
  <unicode hex="0077"/>
  <outline>
    <contour>
      <point x="996" y="470" type="curve"/>
      <point x="996" y="470"/>
      <point x="1182" y="1400"/>
      <point x="1182" y="1400" type="curve"/>
      <point x="1182" y="1400"/>
      <point x="1442" y="1400"/>
      <point x="1442" y="1400" type="curve"/>
      <point x="1442" y="1400"/>
      <point x="1105" y="0"/>
      <point x="1105" y="0" type="curve"/>
      <point x="1105" y="0"/>
      <point x="875" y="0"/>
      <point x="875" y="0" type="curve"/>
      <point x="875" y="0"/>
      <point x="721" y="811"/>
      <point x="721" y="811" type="curve"/>
      <point x="721" y="811"/>
      <point x="567" y="0"/>
      <point x="567" y="0" type="curve"/>
      <point x="567" y="0"/>
      <point x="337" y="0"/>
      <point x="337" y="0" type="curve"/>
      <point x="337" y="0"/>
      <point x="0" y="1400"/>
      <point x="0" y="1400" type="curve"/>
      <point x="0" y="1400"/>
      <point x="260" y="1400"/>
      <point x="260" y="1400" type="curve"/>
      <point x="260" y="1400"/>
      <point x="446" y="470"/>
      <point x="446" y="470" type="curve"/>
      <point x="446" y="470"/>
      <point x="607" y="1400"/>
      <point x="607" y="1400" type="curve"/>
      <point x="607" y="1400"/>
      <point x="835" y="1400"/>
      <point x="835" y="1400" type="curve"/>
      <point x="835" y="1400"/>
      <point x="996" y="470"/>
    </contour>
  </outline>
</glyph>
<glyph name="x" format="1">
  <advance width="875"/>
  <unicode hex="0078"/>
  <outline>
    <contour>
      <point x="855" y="1400" type="line"/>
      <point x="580" y="695" type="line"/>
      <point x="865" y="0" type="line"/>
      <point x="595" y="0" type="line"/>
      <point x="440" y="413" type="line"/>
      <point x="280" y="0" type="line"/>
      <point x="10" y="0" type="line"/>
      <point x="303" y="701" type="line"/>
      <point x="20" y="1400" type="line"/>
      <point x="260" y="1400" type="line"/>
      <point x="445" y="958" type="line"/>
      <point x="615" y="1400" type="line"/>
    </contour>
  </outline>
</glyph>
<glyph name="y" format="1">
  <advance width="920"/>
  <unicode hex="0079"/>
  <outline>
    <contour>
      <point x="860" y="1400" type="line"/>
      <point x="585" y="506" type="line"/>
      <point x="585" y="0" type="line"/>
      <point x="335" y="0" type="line"/>
      <point x="335" y="506" type="line"/>
      <point x="60" y="1400" type="line"/>
      <point x="310" y="1400" type="line"/>
      <point x="460" y="810" type="line"/>
      <point x="600" y="1400" type="line"/>
    </contour>
  </outline>
</glyph>
<glyph name="z" format="1">
  <advance width="890"/>
  <unicode hex="007A"/>
  <outline>
    <contour>
      <point x="90" y="1400" type="line"/>
      <point x="800" y="1400" type="line"/>
      <point x="800" y="1240" type="line"/>
      <point x="384" y="230" type="line"/>
      <point x="800" y="230" type="line"/>
      <point x="800" y="0" type="line"/>
      <point x="90" y="0" type="line"/>
      <point x="90" y="160" type="line"/>
      <point x="529" y="1170" type="line"/>
      <point x="90" y="1170" type="line"/>
    </contour>
  </outline>
</glyph>
<glyph name="braceleft" format="1">
  <advance width="730"/>
  <unicode hex="007B"/>
  <outline>
    <contour>
      <point x="100" y="775" type="line"/>
      <point x="128" y="775" type="line" smooth="yes"/>
      <point x="154" y="775"/>
      <point x="190" y="812"/>
      <point x="190" y="838" type="qcurve" smooth="yes"/>
      <point x="190" y="1130" type="line" smooth="yes"/>
      <point x="190" y="1254"/>
      <point x="312" y="1458"/>
      <point x="517" y="1580"/>
      <point x="640" y="1580" type="qcurve" smooth="yes"/>
      <point x="720" y="1580" type="line"/>
      <point x="720" y="1400" type="line"/>
      <point x="640" y="1400" type="line" smooth="yes"/>
      <point x="600" y="1400"/>
      <point x="496" y="1359"/>
      <point x="420" y="1267"/>
      <point x="420" y="1190" type="qcurve" smooth="yes"/>
      <point x="420" y="850" type="line" smooth="yes"/>
      <point x="420" y="800"/>
      <point x="363" y="717"/>
      <point x="316" y="700" type="qcurve"/>
      <point x="363" y="682"/>
      <point x="420" y="600"/>
      <point x="420" y="550" type="qcurve" smooth="yes"/>
      <point x="420" y="210" type="line" smooth="yes"/>
      <point x="420" y="133"/>
      <point x="496" y="41"/>
      <point x="600" y="0"/>
      <point x="640" y="0" type="qcurve" smooth="yes"/>
      <point x="720" y="0" type="line"/>
      <point x="720" y="-180" type="line"/>
      <point x="640" y="-180" type="line" smooth="yes"/>
      <point x="517" y="-180"/>
      <point x="312" y="-58"/>
      <point x="190" y="147"/>
      <point x="190" y="270" type="qcurve" smooth="yes"/>
      <point x="190" y="562" type="line" smooth="yes"/>
      <point x="190" y="588"/>
      <point x="154" y="625"/>
      <point x="128" y="625" type="qcurve" smooth="yes"/>
      <point x="100" y="625" type="line"/>
    </contour>
  </outline>
</glyph>
<glyph name="bar" format="1">
  <advance width="430"/>
  <unicode hex="007C"/>
  <outline>
    <contour>
      <point x="100" y="1580" type="line"/>
      <point x="330" y="1580" type="line"/>
      <point x="330" y="-180" type="line"/>
      <point x="100" y="-180" type="line"/>
    </contour>
  </outline>
</glyph>
<glyph name="braceright" format="1">
  <advance width="730"/>
  <unicode hex="007D"/>
  <outline>
    <contour>
      <point x="90" y="1580" type="line" smooth="yes"/>
      <point x="214" y="1580"/>
      <point x="418" y="1458"/>
      <point x="540" y="1254"/>
      <point x="540" y="1130" type="qcurve" smooth="yes"/>
      <point x="540" y="838" type="line" smooth="yes"/>
      <point x="540" y="812"/>
      <point x="576" y="775"/>
      <point x="602" y="775" type="qcurve" smooth="yes"/>
      <point x="630" y="775" type="line"/>
      <point x="630" y="625" type="line"/>
      <point x="602" y="625" type="line" smooth="yes"/>
      <point x="576" y="625"/>
      <point x="540" y="588"/>
      <point x="540" y="562" type="qcurve" smooth="yes"/>
      <point x="540" y="270" type="line" smooth="yes"/>
      <point x="540" y="147"/>
      <point x="418" y="-58"/>
      <point x="214" y="-180"/>
      <point x="90" y="-180" type="qcurve" smooth="yes"/>
      <point x="10" y="-180" type="line"/>
      <point x="10" y="0" type="line"/>
      <point x="90" y="0" type="line" smooth="yes"/>
      <point x="131" y="0"/>
      <point x="234" y="41"/>
      <point x="310" y="133"/>
      <point x="310" y="210" type="qcurve" smooth="yes"/>
      <point x="310" y="550" type="line" smooth="yes"/>
      <point x="310" y="600"/>
      <point x="367" y="682"/>
      <point x="414" y="700" type="qcurve"/>
      <point x="367" y="717"/>
      <point x="310" y="800"/>
      <point x="310" y="850" type="qcurve" smooth="yes"/>
      <point x="310" y="1190" type="line" smooth="yes"/>
      <point x="310" y="1267"/>
      <point x="234" y="1359"/>
      <point x="131" y="1400"/>
      <point x="90" y="1400" type="qcurve" smooth="yes"/>
      <point x="10" y="1400" type="line"/>
      <point x="10" y="1580" type="line"/>
    </contour>
  </outline>
</glyph>
<glyph name="exclamdown" format="1">
  <advance width="450"/>
  <unicode hex="00A1"/>
  <outline>
    <contour>
      <point x="110" y="1170" type="curve"/>
      <point x="110" y="1170"/>
      <point x="110" y="1400"/>
      <point x="110" y="1400" type="curve"/>
      <point x="110" y="1400"/>
      <point x="340" y="1400"/>
      <point x="340" y="1400" type="curve"/>
      <point x="340" y="1400"/>
      <point x="340" y="1170"/>
      <point x="340" y="1170" type="curve"/>
      <point x="340" y="1170"/>
      <point x="110" y="1170"/>
    </contour>
    <contour>
      <point x="330" y="1010" type="curve"/>
      <point x="330" y="1010"/>
      <point x="350" y="520"/>
      <point x="350" y="520" type="curve"/>
      <point x="350" y="520"/>
      <point x="350" y="0"/>
      <point x="350" y="0" type="curve"/>
      <point x="350" y="0"/>
      <point x="100" y="0"/>
      <point x="100" y="0" type="curve"/>
      <point x="100" y="0"/>
      <point x="100" y="520"/>
      <point x="100" y="520" type="curve"/>
      <point x="100" y="520"/>
      <point x="120" y="1010"/>
      <point x="120" y="1010" type="curve"/>
      <point x="120" y="1010"/>
      <point x="330" y="1010"/>
    </contour>
  </outline>
</glyph>
<glyph name="cent" format="1">
  <advance width="690"/>
  <unicode hex="00A2"/>
  <outline>
    <contour>
      <point x="100" y="540" type="curve" smooth="yes"/>
      <point x="100" y="540"/>
      <point x="100" y="860"/>
      <point x="100" y="860" type="curve" smooth="yes"/>
      <point x="100" y="948"/>
      <point x="172" y="1020"/>
      <point x="260" y="1020" type="curve"/>
      <point x="260" y="1020"/>
      <point x="260" y="1200"/>
      <point x="260" y="1200" type="curve"/>
      <point x="260" y="1200"/>
      <point x="430" y="1200"/>
      <point x="430" y="1200" type="curve"/>
      <point x="430" y="1200"/>
      <point x="430" y="1020"/>
      <point x="430" y="1020" type="curve"/>
      <point x="518" y="1020"/>
      <point x="590" y="948"/>
      <point x="590" y="860" type="curve" smooth="yes"/>
      <point x="590" y="860"/>
      <point x="590" y="800"/>
      <point x="590" y="800" type="curve"/>
      <point x="590" y="800"/>
      <point x="430" y="800"/>
      <point x="430" y="800" type="curve"/>
      <point x="430" y="800"/>
      <point x="430" y="860"/>
      <point x="430" y="860" type="curve"/>
      <point x="430" y="860"/>
      <point x="260" y="860"/>
      <point x="260" y="860" type="curve"/>
      <point x="260" y="860"/>
      <point x="260" y="540"/>
      <point x="260" y="540" type="curve"/>
      <point x="260" y="540"/>
      <point x="430" y="540"/>
      <point x="430" y="540" type="curve"/>
      <point x="430" y="540"/>
      <point x="430" y="600"/>
      <point x="430" y="600" type="curve"/>
      <point x="430" y="600"/>
      <point x="590" y="600"/>
      <point x="590" y="600" type="curve"/>
      <point x="590" y="600"/>
      <point x="590" y="540"/>
      <point x="590" y="540" type="curve" smooth="yes"/>
      <point x="590" y="452"/>
      <point x="518" y="380"/>
      <point x="430" y="380" type="curve"/>
      <point x="430" y="380"/>
      <point x="430" y="200"/>
      <point x="430" y="200" type="curve"/>
      <point x="430" y="200"/>
      <point x="260" y="200"/>
      <point x="260" y="200" type="curve"/>
      <point x="260" y="200"/>
      <point x="260" y="380"/>
      <point x="260" y="380" type="curve"/>
      <point x="172" y="380"/>
      <point x="100" y="452"/>
    </contour>
  </outline>
</glyph>
<glyph name="sterling" format="1">
  <advance width="910"/>
  <unicode hex="00A3"/>
  <outline>
    <contour>
      <point x="810" y="1240" type="curve" smooth="yes"/>
      <point x="810" y="1240"/>
      <point x="810" y="1000"/>
      <point x="810" y="1000" type="curve"/>
      <point x="810" y="1000"/>
      <point x="580" y="1000"/>
      <point x="580" y="1000" type="curve"/>
      <point x="580" y="1000"/>
      <point x="580" y="1127"/>
      <point x="580" y="1127" type="curve" smooth="yes"/>
      <point x="580" y="1162"/>
      <point x="552" y="1190"/>
      <point x="517" y="1190" type="curve" smooth="yes"/>
      <point x="517" y="1190"/>
      <point x="383" y="1190"/>
      <point x="383" y="1190" type="curve" smooth="yes"/>
      <point x="348" y="1190"/>
      <point x="321" y="1162"/>
      <point x="321" y="1127" type="curve" smooth="yes"/>
      <point x="321" y="1127"/>
      <point x="321" y="1085"/>
      <point x="321" y="1078" type="curve" smooth="yes"/>
      <point x="321" y="922"/>
      <point x="414" y="875"/>
      <point x="448" y="700" type="curve"/>
      <point x="448" y="700"/>
      <point x="810" y="700"/>
      <point x="810" y="700" type="curve"/>
      <point x="810" y="700"/>
      <point x="810" y="500"/>
      <point x="810" y="500" type="curve"/>
      <point x="810" y="500"/>
      <point x="446" y="500"/>
      <point x="446" y="500" type="curve"/>
      <point x="446" y="500"/>
      <point x="376" y="200"/>
      <point x="376" y="200" type="curve"/>
      <point x="376" y="200"/>
      <point x="810" y="200"/>
      <point x="810" y="200" type="curve"/>
      <point x="810" y="200"/>
      <point x="810" y="0"/>
      <point x="810" y="0" type="curve"/>
      <point x="810" y="0"/>
      <point x="100" y="0"/>
      <point x="100" y="0" type="curve"/>
      <point x="100" y="0"/>
      <point x="214" y="500"/>
      <point x="214" y="500" type="curve"/>
      <point x="214" y="500"/>
      <point x="100" y="500"/>
      <point x="100" y="500" type="curve"/>
      <point x="100" y="500"/>
      <point x="100" y="700"/>
      <point x="100" y="700" type="curve"/>
      <point x="100" y="700"/>
      <point x="216" y="700"/>
      <point x="216" y="700" type="curve"/>
      <point x="182" y="834"/>
      <point x="100" y="865"/>
      <point x="100" y="1078" type="curve" smooth="yes"/>
      <point x="100" y="1078"/>
      <point x="100" y="1240"/>
      <point x="100" y="1240" type="curve" smooth="yes"/>
      <point x="100" y="1328"/>
      <point x="172" y="1400"/>
      <point x="260" y="1400" type="curve" smooth="yes"/>
      <point x="260" y="1400"/>
      <point x="650" y="1400"/>
      <point x="650" y="1400" type="curve" smooth="yes"/>
      <point x="738" y="1400"/>
      <point x="810" y="1328"/>
    </contour>
  </outline>
</glyph>
<glyph name="currency" format="1">
  <advance width="980"/>
  <unicode hex="00A4"/>
  <outline>
    <contour>
      <point x="580" y="380" type="qcurve" smooth="yes"/>
      <point x="400" y="380" type="line" smooth="yes"/>
      <point x="345" y="380"/>
      <point x="259" y="447"/>
      <point x="245" y="500" type="qcurve"/>
      <point x="100" y="500" type="line"/>
      <point x="100" y="640" type="line"/>
      <point x="240" y="640" type="line"/>
      <point x="240" y="760" type="line"/>
      <point x="100" y="760" type="line"/>
      <point x="100" y="900" type="line"/>
      <point x="245" y="900" type="line"/>
      <point x="259" y="953"/>
      <point x="345" y="1020"/>
      <point x="400" y="1020" type="qcurve" smooth="yes"/>
      <point x="580" y="1020" type="line" smooth="yes"/>
      <point x="635" y="1020"/>
      <point x="722" y="953"/>
      <point x="735" y="900" type="qcurve"/>
      <point x="880" y="900" type="line"/>
      <point x="880" y="760" type="line"/>
      <point x="740" y="760" type="line"/>
      <point x="740" y="640" type="line"/>
      <point x="880" y="640" type="line"/>
      <point x="880" y="500" type="line"/>
      <point x="735" y="500" type="line"/>
      <point x="722" y="447"/>
      <point x="635" y="380"/>
    </contour>
    <contour>
      <point x="400" y="540" type="line"/>
      <point x="580" y="540" type="line"/>
      <point x="580" y="860" type="line"/>
      <point x="400" y="860" type="line"/>
    </contour>
  </outline>
</glyph>
<glyph name="yen" format="1">
  <advance width="1000"/>
  <unicode hex="00A5"/>
  <outline>
    <contour>
      <point x="640" y="1400" type="line"/>
      <point x="900" y="1400" type="line"/>
      <point x="684" y="699" type="line"/>
      <point x="900" y="699" type="line"/>
      <point x="900" y="499" type="line"/>
      <point x="625" y="499" type="line"/>
      <point x="625" y="399" type="line"/>
      <point x="900" y="399" type="line"/>
      <point x="900" y="199" type="line"/>
      <point x="625" y="199" type="line"/>
      <point x="625" y="0" type="line"/>
      <point x="375" y="0" type="line"/>
      <point x="375" y="199" type="line"/>
      <point x="100" y="199" type="line"/>
      <point x="100" y="399" type="line"/>
      <point x="375" y="399" type="line"/>
      <point x="375" y="499" type="line"/>
      <point x="100" y="499" type="line"/>
      <point x="100" y="699" type="line"/>
      <point x="316" y="699" type="line"/>
      <point x="100" y="1400" type="line"/>
      <point x="350" y="1400" type="line"/>
      <point x="500" y="790" type="line"/>
    </contour>
  </outline>
</glyph>
<glyph name="section" format="1">
  <advance width="930"/>
  <unicode hex="00A7"/>
  <outline>
    <contour>
      <point x="830" y="1244" type="qcurve" smooth="yes"/>
      <point x="830" y="1019" type="line"/>
      <point x="620" y="1019" type="line"/>
      <point x="620" y="1126" type="line" smooth="yes"/>
      <point x="620" y="1152"/>
      <point x="583" y="1189"/>
      <point x="557" y="1189" type="qcurve" smooth="yes"/>
      <point x="382" y="1189" type="line" smooth="yes"/>
      <point x="356" y="1189"/>
      <point x="320" y="1152"/>
      <point x="320" y="1126" type="qcurve" smooth="yes"/>
      <point x="320" y="1046" type="line"/>
      <point x="748" y="889" type="line"/>
      <point x="785" y="881"/>
      <point x="830" y="823"/>
      <point x="830" y="787" type="qcurve" smooth="yes"/>
      <point x="830" y="768"/>
      <point x="823" y="749" type="qcurve" smooth="yes"/>
      <point x="743" y="529" type="line"/>
      <point x="783" y="510"/>
      <point x="830" y="434"/>
      <point x="830" y="390" type="qcurve" smooth="yes"/>
      <point x="830" y="155" type="line" smooth="yes"/>
      <point x="830" y="91"/>
      <point x="740" y="0"/>
      <point x="675" y="0" type="qcurve" smooth="yes"/>
      <point x="255" y="0" type="line" smooth="yes"/>
      <point x="191" y="0"/>
      <point x="100" y="91"/>
      <point x="100" y="155" type="qcurve" smooth="yes"/>
      <point x="100" y="380" type="line"/>
      <point x="310" y="380" type="line"/>
      <point x="310" y="273" type="line" smooth="yes"/>
      <point x="310" y="247"/>
      <point x="347" y="210"/>
      <point x="373" y="210" type="qcurve" smooth="yes"/>
      <point x="548" y="210" type="line" smooth="yes"/>
      <point x="574" y="210"/>
      <point x="610" y="247"/>
      <point x="610" y="273" type="qcurve" smooth="yes"/>
      <point x="610" y="353" type="line"/>
      <point x="182" y="510" type="line"/>
      <point x="145" y="518"/>
      <point x="100" y="576"/>
      <point x="100" y="612" type="qcurve" smooth="yes"/>
      <point x="100" y="631"/>
      <point x="107" y="650" type="qcurve" smooth="yes"/>
      <point x="187" y="870" type="line"/>
      <point x="147" y="890"/>
      <point x="100" y="965"/>
      <point x="100" y="1009" type="qcurve" smooth="yes"/>
      <point x="100" y="1244" type="line" smooth="yes"/>
      <point x="100" y="1309"/>
      <point x="191" y="1399"/>
      <point x="255" y="1399" type="qcurve" smooth="yes"/>
      <point x="675" y="1399" type="line" smooth="yes"/>
      <point x="740" y="1399"/>
      <point x="830" y="1309"/>
    </contour>
    <contour>
      <point x="572" y="672" type="line" smooth="yes"/>
      <point x="574" y="679"/>
      <point x="574" y="687" type="qcurve" smooth="yes"/>
      <point x="574" y="727"/>
      <point x="538" y="744" type="qcurve" smooth="yes"/>
      <point x="385" y="799" type="line"/>
      <point x="358" y="727" type="line" smooth="yes"/>
      <point x="356" y="720"/>
      <point x="356" y="712" type="qcurve" smooth="yes"/>
      <point x="356" y="672"/>
      <point x="392" y="655" type="qcurve" smooth="yes"/>
      <point x="545" y="600" type="line"/>
    </contour>
  </outline>
</glyph>
<glyph name="dieresis" format="1">
  <advance width="800"/>
  <unicode hex="00A8"/>
  <outline>
    <contour>
      <point x="100" y="1720" type="line"/>
      <point x="330" y="1720" type="line"/>
      <point x="330" y="1490" type="line"/>
      <point x="100" y="1490" type="line"/>
    </contour>
    <contour>
      <point x="470" y="1720" type="line"/>
      <point x="700" y="1720" type="line"/>
      <point x="700" y="1490" type="line"/>
      <point x="470" y="1490" type="line"/>
    </contour>
  </outline>
</glyph>
<glyph name="ordfeminine" format="1">
  <advance width="843"/>
  <unicode hex="00AA"/>
  <outline>
    <contour>
      <point x="680" y="1450" type="line"/>
      <point x="680" y="1033" type="line" smooth="yes"/>
      <point x="680" y="1007"/>
      <point x="717" y="970"/>
      <point x="743" y="970" type="qcurve"/>
      <point x="743" y="810" type="line"/>
      <point x="680" y="810" type="line" smooth="yes"/>
      <point x="586" y="810"/>
      <point x="540" y="893" type="qcurve"/>
      <point x="494" y="810"/>
      <point x="400" y="810" type="qcurve" smooth="yes"/>
      <point x="260" y="810" type="line" smooth="yes"/>
      <point x="194" y="810"/>
      <point x="100" y="904"/>
      <point x="100" y="970" type="qcurve" smooth="yes"/>
      <point x="100" y="1290" type="line" smooth="yes"/>
      <point x="100" y="1356"/>
      <point x="194" y="1450"/>
      <point x="260" y="1450" type="qcurve" smooth="yes"/>
      <point x="390" y="1450" type="line" smooth="yes"/>
      <point x="472" y="1450"/>
      <point x="520" y="1383" type="qcurve"/>
      <point x="520" y="1450" type="line"/>
    </contour>
    <contour>
      <point x="458" y="970" type="line" smooth="yes"/>
      <point x="484" y="970"/>
      <point x="520" y="1007"/>
      <point x="520" y="1033" type="qcurve" smooth="yes"/>
      <point x="520" y="1227" type="line" smooth="yes"/>
      <point x="520" y="1253"/>
      <point x="484" y="1290"/>
      <point x="458" y="1290" type="qcurve" smooth="yes"/>
      <point x="323" y="1290" type="line" smooth="yes"/>
      <point x="297" y="1290"/>
      <point x="260" y="1253"/>
      <point x="260" y="1227" type="qcurve" smooth="yes"/>
      <point x="260" y="1033" type="line" smooth="yes"/>
      <point x="260" y="1007"/>
      <point x="297" y="970"/>
      <point x="323" y="970" type="qcurve" smooth="yes"/>
    </contour>
  </outline>
</glyph>
<glyph name="guillemotleft" format="1">
  <advance width="984"/>
  <unicode hex="00AB"/>
  <outline>
    <contour>
      <point x="301" y="700" type="curve"/>
      <point x="301" y="700"/>
      <point x="560" y="360"/>
      <point x="560" y="360" type="curve"/>
      <point x="560" y="360"/>
      <point x="372" y="360"/>
      <point x="372" y="360" type="curve"/>
      <point x="372" y="360"/>
      <point x="100" y="700"/>
      <point x="100" y="700" type="curve"/>
      <point x="100" y="700"/>
      <point x="372" y="1040"/>
      <point x="372" y="1040" type="curve"/>
      <point x="372" y="1040"/>
      <point x="560" y="1040"/>
      <point x="560" y="1040" type="curve"/>
      <point x="560" y="1040"/>
      <point x="301" y="700"/>
    </contour>
    <contour>
      <point x="884" y="1040" type="curve"/>
      <point x="884" y="1040"/>
      <point x="625" y="700"/>
      <point x="625" y="700" type="curve"/>
      <point x="625" y="700"/>
      <point x="884" y="360"/>
      <point x="884" y="360" type="curve"/>
      <point x="884" y="360"/>
      <point x="696" y="360"/>
      <point x="696" y="360" type="curve"/>
      <point x="696" y="360"/>
      <point x="424" y="700"/>
      <point x="424" y="700" type="curve"/>
      <point x="424" y="700"/>
      <point x="696" y="1040"/>
      <point x="696" y="1040" type="curve"/>
      <point x="696" y="1040"/>
      <point x="884" y="1040"/>
    </contour>
  </outline>
</glyph>
<glyph name="logicalnot" format="1">
  <advance width="1100"/>
  <unicode hex="00AC"/>
  <outline>
    <contour>
      <point x="100" y="810" type="line"/>
      <point x="1000" y="810" type="line"/>
      <point x="1000" y="410" type="line"/>
      <point x="780" y="410" type="line"/>
      <point x="780" y="590" type="line"/>
      <point x="100" y="590" type="line"/>
    </contour>
  </outline>
</glyph>
<glyph name="uni00AD" format="1">
  <advance width="1"/>
  <unicode hex="00AD"/>
  <outline>
    <contour>
      <point x="0" y="0" type="move" smooth="yes"/>
    </contour>
  </outline>
</glyph>
<glyph name="registered" format="1">
  <advance width="1330"/>
  <unicode hex="00AE"/>
  <outline>
    <contour>
      <point x="500" y="1340" type="qcurve" smooth="yes"/>
      <point x="830" y="1340" type="line" smooth="yes"/>
      <point x="941" y="1340"/>
      <point x="1120" y="1237"/>
      <point x="1228" y="1060"/>
      <point x="1230" y="950" type="qcurve" smooth="yes"/>
      <point x="1230" y="460" type="line" smooth="yes"/>
      <point x="1230" y="348"/>
      <point x="1124" y="166"/>
      <point x="943" y="60"/>
      <point x="830" y="60" type="qcurve" smooth="yes"/>
      <point x="500" y="60" type="line" smooth="yes"/>
      <point x="388" y="60"/>
      <point x="206" y="166"/>
      <point x="100" y="348"/>
      <point x="100" y="460" type="qcurve" smooth="yes"/>
      <point x="100" y="940" type="line" smooth="yes"/>
      <point x="100" y="1053"/>
      <point x="206" y="1234"/>
      <point x="388" y="1340"/>
    </contour>
    <contour>
      <point x="500" y="1180" type="line" smooth="yes"/>
      <point x="399" y="1180"/>
      <point x="260" y="1041"/>
      <point x="260" y="940" type="qcurve" smooth="yes"/>
      <point x="260" y="460" type="line" smooth="yes"/>
      <point x="260" y="359"/>
      <point x="399" y="220"/>
      <point x="500" y="220" type="qcurve" smooth="yes"/>
      <point x="830" y="220" type="line" smooth="yes"/>
      <point x="931" y="220"/>
      <point x="1070" y="359"/>
      <point x="1070" y="460" type="qcurve" smooth="yes"/>
      <point x="1070" y="940" type="line" smooth="yes"/>
      <point x="1070" y="1041"/>
      <point x="931" y="1180"/>
      <point x="830" y="1180" type="qcurve" smooth="yes"/>
    </contour>
    <contour>
      <point x="580" y="380" type="line"/>
      <point x="420" y="380" type="line"/>
      <point x="420" y="1020" type="line"/>
      <point x="750" y="1020" type="line" smooth="yes"/>
      <point x="816" y="1020"/>
      <point x="910" y="926"/>
      <point x="910" y="860" type="qcurve" smooth="yes"/>
      <point x="910" y="740" type="line" smooth="yes"/>
      <point x="910" y="651"/>
      <point x="834" y="604" type="qcurve"/>
      <point x="925" y="380" type="line"/>
      <point x="765" y="380" type="line"/>
      <point x="691" y="580" type="line"/>
      <point x="580" y="580" type="line"/>
    </contour>
    <contour>
      <point x="580" y="860" type="line"/>
      <point x="580" y="740" type="line"/>
      <point x="750" y="740" type="line"/>
      <point x="750" y="860" type="line"/>
    </contour>
  </outline>
</glyph>
<glyph name="macron" format="1">
  <advance width="1000"/>
  <unicode hex="00AF"/>
  <outline>
    <contour>
      <point x="100" y="1700" type="line"/>
      <point x="900" y="1700" type="line"/>
      <point x="900" y="1500" type="line"/>
      <point x="100" y="1500" type="line"/>
    </contour>
  </outline>
</glyph>
<glyph name="plusminus" format="1">
  <advance width="1000"/>
  <unicode hex="00B1"/>
  <outline>
    <contour>
      <point x="100" y="365" type="curve"/>
      <point x="100" y="365"/>
      <point x="900" y="365"/>
      <point x="900" y="365" type="curve"/>
      <point x="900" y="365"/>
      <point x="900" y="145"/>
      <point x="900" y="145" type="curve"/>
      <point x="900" y="145"/>
      <point x="100" y="145"/>
      <point x="100" y="145" type="curve"/>
      <point x="100" y="145"/>
      <point x="100" y="365"/>
    </contour>
    <contour>
      <point x="610" y="455" type="curve"/>
      <point x="610" y="455"/>
      <point x="390" y="455"/>
      <point x="390" y="455" type="curve"/>
      <point x="390" y="455"/>
      <point x="390" y="745"/>
      <point x="390" y="745" type="curve"/>
      <point x="390" y="745"/>
      <point x="100" y="745"/>
      <point x="100" y="745" type="curve"/>
      <point x="100" y="745"/>
      <point x="100" y="965"/>
      <point x="100" y="965" type="curve"/>
      <point x="100" y="965"/>
      <point x="390" y="965"/>
      <point x="390" y="965" type="curve"/>
      <point x="390" y="965"/>
      <point x="390" y="1255"/>
      <point x="390" y="1255" type="curve"/>
      <point x="390" y="1255"/>
      <point x="610" y="1255"/>
      <point x="610" y="1255" type="curve"/>
      <point x="610" y="1255"/>
      <point x="610" y="965"/>
      <point x="610" y="965" type="curve"/>
      <point x="610" y="965"/>
      <point x="900" y="965"/>
      <point x="900" y="965" type="curve"/>
      <point x="900" y="965"/>
      <point x="900" y="745"/>
      <point x="900" y="745" type="curve"/>
      <point x="900" y="745"/>
      <point x="610" y="745"/>
      <point x="610" y="745" type="curve"/>
      <point x="610" y="745"/>
      <point x="610" y="455"/>
    </contour>
  </outline>
</glyph>
<glyph name="uni00B2" format="1">
  <advance width="520"/>
  <unicode hex="00B2"/>
  <outline>
    <contour>
      <point x="420" y="1260" type="line" smooth="yes"/>
      <point x="420" y="1214"/>
      <point x="344" y="1113"/>
      <point x="253" y="1010"/>
      <point x="232" y="960" type="qcurve"/>
      <point x="420" y="960" type="line"/>
      <point x="420" y="850" type="line"/>
      <point x="100" y="850" type="line"/>
      <point x="100" y="900" type="line" smooth="yes"/>
      <point x="100" y="953"/>
      <point x="168" y="1062"/>
      <point x="256" y="1163"/>
      <point x="324" y="1249"/>
      <point x="324" y="1280" type="qcurve" smooth="yes"/>
      <point x="324" y="1325" type="line" smooth="yes"/>
      <point x="322" y="1350"/>
      <point x="297" y="1350" type="qcurve" smooth="yes"/>
      <point x="235" y="1350" type="line" smooth="yes"/>
      <point x="208" y="1350"/>
      <point x="208" y="1323" type="qcurve" smooth="yes"/>
      <point x="208" y="1280" type="line"/>
      <point x="108" y="1280" type="line"/>
      <point x="108" y="1380" type="line" smooth="yes"/>
      <point x="108" y="1409"/>
      <point x="149" y="1450"/>
      <point x="178" y="1450" type="qcurve" smooth="yes"/>
      <point x="350" y="1450" type="line" smooth="yes"/>
      <point x="379" y="1450"/>
      <point x="420" y="1409"/>
      <point x="420" y="1380" type="qcurve" smooth="yes"/>
    </contour>
  </outline>
</glyph>
<glyph name="uni00B3" format="1">
  <advance width="520"/>
  <unicode hex="00B3"/>
  <outline>
    <contour>
      <point x="350" y="1450" type="line" smooth="yes"/>
      <point x="379" y="1450"/>
      <point x="420" y="1409"/>
      <point x="420" y="1380" type="qcurve" smooth="yes"/>
      <point x="420" y="1220" type="line" smooth="yes"/>
      <point x="420" y="1175"/>
      <point x="380" y="1157" type="qcurve"/>
      <point x="380" y="1143" type="line"/>
      <point x="420" y="1125"/>
      <point x="420" y="1080" type="qcurve" smooth="yes"/>
      <point x="420" y="920" type="line" smooth="yes"/>
      <point x="420" y="891"/>
      <point x="379" y="850"/>
      <point x="350" y="850" type="qcurve" smooth="yes"/>
      <point x="170" y="850" type="line" smooth="yes"/>
      <point x="141" y="850"/>
      <point x="100" y="891"/>
      <point x="100" y="920" type="qcurve" smooth="yes"/>
      <point x="100" y="1020" type="line"/>
      <point x="200" y="1020" type="line"/>
      <point x="200" y="977" type="line" smooth="yes"/>
      <point x="200" y="950"/>
      <point x="227" y="950" type="qcurve" smooth="yes"/>
      <point x="293" y="950" type="line" smooth="yes"/>
      <point x="320" y="950"/>
      <point x="320" y="977" type="qcurve" smooth="yes"/>
      <point x="320" y="1073" type="line" smooth="yes"/>
      <point x="320" y="1100"/>
      <point x="293" y="1100" type="qcurve" smooth="yes"/>
      <point x="220" y="1100" type="line"/>
      <point x="220" y="1200" type="line"/>
      <point x="293" y="1200" type="line" smooth="yes"/>
      <point x="320" y="1200"/>
      <point x="320" y="1227" type="qcurve" smooth="yes"/>
      <point x="320" y="1323" type="line" smooth="yes"/>
      <point x="320" y="1350"/>
      <point x="293" y="1350" type="qcurve" smooth="yes"/>
      <point x="227" y="1350" type="line" smooth="yes"/>
      <point x="200" y="1350"/>
      <point x="200" y="1323" type="qcurve" smooth="yes"/>
      <point x="200" y="1280" type="line"/>
      <point x="100" y="1280" type="line"/>
      <point x="100" y="1380" type="line" smooth="yes"/>
      <point x="100" y="1409"/>
      <point x="141" y="1450"/>
      <point x="170" y="1450" type="qcurve" smooth="yes"/>
    </contour>
  </outline>
</glyph>
<glyph name="acute" format="1">
  <advance width="600"/>
  <unicode hex="00B4"/>
  <outline>
    <contour>
      <point x="100" y="1400" type="curve"/>
      <point x="100" y="1400"/>
      <point x="240" y="1800"/>
      <point x="240" y="1800" type="curve"/>
      <point x="240" y="1800"/>
      <point x="500" y="1800"/>
      <point x="500" y="1800" type="curve"/>
      <point x="500" y="1800"/>
      <point x="300" y="1400"/>
      <point x="300" y="1400" type="curve"/>
      <point x="300" y="1400"/>
      <point x="100" y="1400"/>
    </contour>
  </outline>
</glyph>
<glyph name="mu" format="1">
  <advance width="843"/>
  <unicode hex="00B5"/>
  <outline>
    <contour>
      <point x="260" y="640" type="line"/>
      <point x="260" y="223" type="line" smooth="yes"/>
      <point x="260" y="197"/>
      <point x="297" y="160"/>
      <point x="323" y="160" type="qcurve" smooth="yes"/>
      <point x="458" y="160" type="line" smooth="yes"/>
      <point x="484" y="160"/>
      <point x="520" y="197"/>
      <point x="520" y="223" type="qcurve" smooth="yes"/>
      <point x="520" y="640" type="line"/>
      <point x="680" y="640" type="line"/>
      <point x="680" y="223" type="line" smooth="yes"/>
      <point x="680" y="197"/>
      <point x="717" y="160"/>
      <point x="743" y="160" type="qcurve"/>
      <point x="743" y="0" type="line"/>
      <point x="680" y="0" type="line" smooth="yes"/>
      <point x="586" y="0"/>
      <point x="540" y="83" type="qcurve"/>
      <point x="494" y="0"/>
      <point x="400" y="0" type="qcurve" smooth="yes"/>
      <point x="260" y="0" type="line"/>
      <point x="260" y="-300" type="line"/>
      <point x="100" y="-300" type="line"/>
      <point x="100" y="640" type="line"/>
    </contour>
  </outline>
</glyph>
<glyph name="paragraph" format="1">
  <advance width="1080"/>
  <unicode hex="00B6"/>
  <outline>
    <contour>
      <point x="450" y="0" type="line"/>
      <point x="450" y="750" type="line"/>
      <point x="240" y="750" type="line" smooth="yes"/>
      <point x="182" y="752"/>
      <point x="100" y="837"/>
      <point x="100" y="895" type="qcurve" smooth="yes"/>
      <point x="100" y="1260" type="line" smooth="yes"/>
      <point x="100" y="1318"/>
      <point x="182" y="1400"/>
      <point x="240" y="1400" type="qcurve" smooth="yes"/>
      <point x="980" y="1400" type="line"/>
      <point x="980" y="0" type="line"/>
      <point x="780" y="0" type="line"/>
      <point x="780" y="1200" type="line"/>
      <point x="650" y="1200" type="line"/>
      <point x="650" y="0" type="line"/>
    </contour>
  </outline>
</glyph>
<glyph name="periodcentered" format="1">
  <advance width="430"/>
  <unicode hex="00B7"/>
  <outline>
    <contour>
      <point x="100" y="815" type="curve"/>
      <point x="100" y="815"/>
      <point x="330" y="815"/>
      <point x="330" y="815" type="curve"/>
      <point x="330" y="815"/>
      <point x="330" y="585"/>
      <point x="330" y="585" type="curve"/>
      <point x="330" y="585"/>
      <point x="100" y="585"/>
      <point x="100" y="585" type="curve"/>
      <point x="100" y="585"/>
      <point x="100" y="815"/>
    </contour>
  </outline>
</glyph>
<glyph name="uni00B9" format="1">
  <advance width="380"/>
  <unicode hex="00B9"/>
  <outline>
    <contour>
      <point x="280" y="850" type="line"/>
      <point x="177" y="850" type="line"/>
      <point x="177" y="1305" type="line"/>
      <point x="177" y="1305"/>
      <point x="138" y="1278"/>
      <point x="100" y="1278" type="qcurve"/>
      <point x="100" y="1395" type="line"/>
      <point x="139" y="1397"/>
      <point x="187" y="1450"/>
      <point x="187" y="1450" type="qcurve"/>
      <point x="280" y="1450" type="line"/>
    </contour>
  </outline>
</glyph>
<glyph name="ordmasculine" format="1">
  <advance width="660"/>
  <unicode hex="00BA"/>
  <outline>
    <contour>
      <point x="100" y="1169" type="qcurve" smooth="yes"/>
      <point x="100" y="1220" type="line" smooth="yes"/>
      <point x="100" y="1284"/>
      <point x="162" y="1388"/>
      <point x="267" y="1450"/>
      <point x="330" y="1450" type="qcurve" smooth="yes"/>
      <point x="394" y="1450"/>
      <point x="498" y="1388"/>
      <point x="560" y="1284"/>
      <point x="560" y="1220" type="qcurve" smooth="yes"/>
      <point x="560" y="1169" type="line" smooth="yes"/>
      <point x="560" y="1074"/>
      <point x="425" y="940"/>
      <point x="330" y="940" type="qcurve" smooth="yes"/>
      <point x="235" y="940"/>
      <point x="100" y="1074"/>
    </contour>
    <contour>
      <point x="259" y="1184" type="line" smooth="yes"/>
      <point x="259" y="1144"/>
      <point x="301" y="1089"/>
      <point x="330" y="1089" type="qcurve" smooth="yes"/>
      <point x="359" y="1089"/>
      <point x="401" y="1144"/>
      <point x="401" y="1184" type="qcurve" smooth="yes"/>
      <point x="401" y="1206" type="line" smooth="yes"/>
      <point x="401" y="1246"/>
      <point x="359" y="1300"/>
      <point x="330" y="1300" type="qcurve" smooth="yes"/>
      <point x="301" y="1300"/>
      <point x="259" y="1246"/>
      <point x="259" y="1206" type="qcurve" smooth="yes"/>
    </contour>
  </outline>
</glyph>
<glyph name="guillemotright" format="1">
  <advance width="984"/>
  <unicode hex="00BB"/>
  <outline>
    <contour>
      <point x="612" y="1040" type="curve"/>
      <point x="612" y="1040"/>
      <point x="884" y="700"/>
      <point x="884" y="700" type="curve"/>
      <point x="884" y="700"/>
      <point x="612" y="360"/>
      <point x="612" y="360" type="curve"/>
      <point x="612" y="360"/>
      <point x="424" y="360"/>
      <point x="424" y="360" type="curve"/>
      <point x="424" y="360"/>
      <point x="683" y="700"/>
      <point x="683" y="700" type="curve"/>
      <point x="683" y="700"/>
      <point x="424" y="1040"/>
      <point x="424" y="1040" type="curve"/>
      <point x="424" y="1040"/>
      <point x="612" y="1040"/>
    </contour>
    <contour>
      <point x="288" y="360" type="curve"/>
      <point x="288" y="360"/>
      <point x="100" y="360"/>
      <point x="100" y="360" type="curve"/>
      <point x="100" y="360"/>
      <point x="359" y="700"/>
      <point x="359" y="700" type="curve"/>
      <point x="359" y="700"/>
      <point x="100" y="1040"/>
      <point x="100" y="1040" type="curve"/>
      <point x="100" y="1040"/>
      <point x="288" y="1040"/>
      <point x="288" y="1040" type="curve"/>
      <point x="288" y="1040"/>
      <point x="560" y="700"/>
      <point x="560" y="700" type="curve"/>
      <point x="560" y="700"/>
      <point x="288" y="360"/>
    </contour>
  </outline>
</glyph>
<glyph name="onequarter" format="1">
  <advance width="970"/>
  <unicode hex="00BC"/>
  <outline>
    <contour>
      <point x="230" y="1400" type="qcurve"/>
      <point x="323" y="1400" type="line"/>
      <point x="323" y="800" type="line"/>
      <point x="220" y="800" type="line"/>
      <point x="220" y="1255" type="line"/>
      <point x="220" y="1255"/>
      <point x="181" y="1228"/>
      <point x="143" y="1228" type="qcurve"/>
      <point x="143" y="1345" type="line"/>
      <point x="182" y="1347"/>
      <point x="230" y="1400"/>
    </contour>
    <contour>
      <point x="870" y="1400" type="line"/>
      <point x="250" y="0" type="line"/>
      <point x="100" y="0" type="line"/>
      <point x="720" y="1400" type="line"/>
    </contour>
    <contour>
      <point x="685" y="0" type="line"/>
      <point x="685" y="120" type="line"/>
      <point x="485" y="120" type="line"/>
      <point x="485" y="195" type="line"/>
      <point x="665" y="600" type="line"/>
      <point x="785" y="600" type="line"/>
      <point x="785" y="210" type="line"/>
      <point x="805" y="210" type="line"/>
      <point x="805" y="120" type="line"/>
      <point x="785" y="120" type="line"/>
      <point x="785" y="0" type="line"/>
    </contour>
    <contour>
      <point x="685" y="210" type="line"/>
      <point x="685" y="438" type="line"/>
      <point x="587" y="210" type="line"/>
    </contour>
  </outline>
</glyph>
<glyph name="onehalf" format="1">
  <advance width="970"/>
  <unicode hex="00BD"/>
  <outline>
    <contour>
      <point x="220" y="800" type="line"/>
      <point x="220" y="1255" type="line"/>
      <point x="220" y="1255"/>
      <point x="181" y="1228"/>
      <point x="143" y="1228" type="qcurve"/>
      <point x="143" y="1345" type="line"/>
      <point x="182" y="1347"/>
      <point x="230" y="1400"/>
      <point x="230" y="1400" type="qcurve"/>
      <point x="323" y="1400" type="line"/>
      <point x="323" y="800" type="line"/>
    </contour>
    <contour>
      <point x="720" y="1400" type="line"/>
      <point x="870" y="1400" type="line"/>
      <point x="250" y="0" type="line"/>
      <point x="100" y="0" type="line"/>
    </contour>
    <contour>
      <point x="550" y="0" type="line"/>
      <point x="550" y="50" type="line" smooth="yes"/>
      <point x="550" y="103"/>
      <point x="618" y="212"/>
      <point x="706" y="313"/>
      <point x="774" y="399"/>
      <point x="774" y="430" type="qcurve" smooth="yes"/>
      <point x="774" y="475" type="line" smooth="yes"/>
      <point x="772" y="500"/>
      <point x="747" y="500" type="qcurve" smooth="yes"/>
      <point x="685" y="500" type="line" smooth="yes"/>
      <point x="658" y="500"/>
      <point x="658" y="473" type="qcurve" smooth="yes"/>
      <point x="658" y="430" type="line"/>
      <point x="558" y="430" type="line"/>
      <point x="558" y="530" type="line" smooth="yes"/>
      <point x="558" y="559"/>
      <point x="599" y="600"/>
      <point x="628" y="600" type="qcurve" smooth="yes"/>
      <point x="800" y="600" type="line" smooth="yes"/>
      <point x="829" y="600"/>
      <point x="870" y="559"/>
      <point x="870" y="530" type="qcurve" smooth="yes"/>
      <point x="870" y="410" type="line" smooth="yes"/>
      <point x="870" y="364"/>
      <point x="794" y="263"/>
      <point x="703" y="160"/>
      <point x="682" y="110" type="qcurve"/>
      <point x="870" y="110" type="line"/>
      <point x="870" y="0" type="line"/>
    </contour>
  </outline>
</glyph>
<glyph name="threequarters" format="1">
  <advance width="970"/>
  <unicode hex="00BE"/>
  <outline>
    <contour>
      <point x="420" y="1170" type="line" smooth="yes"/>
      <point x="420" y="1125"/>
      <point x="380" y="1107" type="qcurve"/>
      <point x="380" y="1093" type="line"/>
      <point x="420" y="1075"/>
      <point x="420" y="1030" type="qcurve" smooth="yes"/>
      <point x="420" y="870" type="line" smooth="yes"/>
      <point x="420" y="841"/>
      <point x="379" y="800"/>
      <point x="350" y="800" type="qcurve" smooth="yes"/>
      <point x="170" y="800" type="line" smooth="yes"/>
      <point x="141" y="800"/>
      <point x="100" y="841"/>
      <point x="100" y="870" type="qcurve" smooth="yes"/>
      <point x="100" y="970" type="line"/>
      <point x="200" y="970" type="line"/>
      <point x="200" y="927" type="line" smooth="yes"/>
      <point x="200" y="900"/>
      <point x="227" y="900" type="qcurve" smooth="yes"/>
      <point x="293" y="900" type="line" smooth="yes"/>
      <point x="320" y="900"/>
      <point x="320" y="927" type="qcurve" smooth="yes"/>
      <point x="320" y="1023" type="line" smooth="yes"/>
      <point x="320" y="1050"/>
      <point x="293" y="1050" type="qcurve" smooth="yes"/>
      <point x="220" y="1050" type="line"/>
      <point x="220" y="1150" type="line"/>
      <point x="293" y="1150" type="line" smooth="yes"/>
      <point x="320" y="1150"/>
      <point x="320" y="1177" type="qcurve" smooth="yes"/>
      <point x="320" y="1273" type="line" smooth="yes"/>
      <point x="320" y="1300"/>
      <point x="293" y="1300" type="qcurve" smooth="yes"/>
      <point x="227" y="1300" type="line" smooth="yes"/>
      <point x="200" y="1300"/>
      <point x="200" y="1273" type="qcurve" smooth="yes"/>
      <point x="200" y="1230" type="line"/>
      <point x="100" y="1230" type="line"/>
      <point x="100" y="1330" type="line" smooth="yes"/>
      <point x="100" y="1359"/>
      <point x="141" y="1400"/>
      <point x="170" y="1400" type="qcurve" smooth="yes"/>
      <point x="350" y="1400" type="line" smooth="yes"/>
      <point x="379" y="1400"/>
      <point x="420" y="1359"/>
      <point x="420" y="1330" type="qcurve" smooth="yes"/>
    </contour>
    <contour>
      <point x="720" y="1400" type="line"/>
      <point x="870" y="1400" type="line"/>
      <point x="250" y="0" type="line"/>
      <point x="100" y="0" type="line"/>
    </contour>
    <contour>
      <point x="785" y="0" type="line"/>
      <point x="685" y="0" type="line"/>
      <point x="685" y="120" type="line"/>
      <point x="485" y="120" type="line"/>
      <point x="485" y="195" type="line"/>
      <point x="665" y="600" type="line"/>
      <point x="785" y="600" type="line"/>
      <point x="785" y="210" type="line"/>
      <point x="805" y="210" type="line"/>
      <point x="805" y="120" type="line"/>
      <point x="785" y="120" type="line"/>
    </contour>
    <contour>
      <point x="685" y="210" type="line"/>
      <point x="685" y="438" type="line"/>
      <point x="587" y="210" type="line"/>
    </contour>
  </outline>
</glyph>
<glyph name="questiondown" format="1">
  <advance width="910"/>
  <unicode hex="00BF"/>
  <outline>
    <contour>
      <point x="380" y="1400" type="line"/>
      <point x="610" y="1400" type="line"/>
      <point x="610" y="1170" type="line"/>
      <point x="380" y="1170" type="line"/>
    </contour>
    <contour>
      <point x="810" y="160" type="line" smooth="yes"/>
      <point x="810" y="94"/>
      <point x="716" y="0"/>
      <point x="650" y="0" type="qcurve" smooth="yes"/>
      <point x="260" y="0" type="line" smooth="yes"/>
      <point x="194" y="0"/>
      <point x="100" y="94"/>
      <point x="100" y="160" type="qcurve" smooth="yes"/>
      <point x="100" y="352" type="line" smooth="yes"/>
      <point x="100" y="432"/>
      <point x="158" y="551"/>
      <point x="242" y="649"/>
      <point x="327" y="746"/>
      <point x="385" y="862"/>
      <point x="385" y="940" type="qcurve" smooth="yes"/>
      <point x="385" y="1040" type="line"/>
      <point x="610" y="1040" type="line"/>
      <point x="610" y="950" type="line" smooth="yes"/>
      <point x="610" y="860"/>
      <point x="552" y="722"/>
      <point x="465" y="609"/>
      <point x="379" y="510"/>
      <point x="321" y="410"/>
      <point x="321" y="352" type="qcurve" smooth="yes"/>
      <point x="321" y="273" type="line" smooth="yes"/>
      <point x="321" y="247"/>
      <point x="357" y="210"/>
      <point x="383" y="210" type="qcurve" smooth="yes"/>
      <point x="517" y="210" type="line" smooth="yes"/>
      <point x="543" y="210"/>
      <point x="580" y="247"/>
      <point x="580" y="273" type="qcurve" smooth="yes"/>
      <point x="580" y="400" type="line"/>
      <point x="810" y="400" type="line"/>
    </contour>
  </outline>
</glyph>
<glyph name="Aacute" format="1">
  <advance width="940"/>
  <unicode hex="00C1"/>
  <outline>
    <contour>
      <point x="760" y="1750" type="line"/>
      <point x="560" y="1490" type="line"/>
      <point x="400" y="1490" type="line"/>
      <point x="540" y="1750" type="line"/>
    </contour>
    <contour>
      <point x="230" y="0" type="line"/>
      <point x="0" y="0" type="line"/>
      <point x="350" y="1400" type="line"/>
      <point x="590" y="1400" type="line"/>
      <point x="940" y="0" type="line"/>
      <point x="710" y="0" type="line"/>
      <point x="644" y="260" type="line"/>
      <point x="296" y="260" type="line"/>
    </contour>
    <contour>
      <point x="349" y="470" type="line"/>
      <point x="591" y="470" type="line"/>
      <point x="470" y="945" type="line"/>
    </contour>
  </outline>
</glyph>
<glyph name="Acircumflex" format="1">
  <advance width="940"/>
  <unicode hex="00C2"/>
  <outline>
    <contour>
      <point x="230" y="0" type="curve"/>
      <point x="230" y="0"/>
      <point x="0" y="0"/>
      <point x="0" y="0" type="curve"/>
      <point x="0" y="0"/>
      <point x="350" y="1400"/>
      <point x="350" y="1400" type="curve"/>
      <point x="350" y="1400"/>
      <point x="590" y="1400"/>
      <point x="590" y="1400" type="curve"/>
      <point x="590" y="1400"/>
      <point x="940" y="0"/>
      <point x="940" y="0" type="curve"/>
      <point x="940" y="0"/>
      <point x="710" y="0"/>
      <point x="710" y="0" type="curve"/>
      <point x="710" y="0"/>
      <point x="644" y="260"/>
      <point x="644" y="260" type="curve"/>
      <point x="644" y="260"/>
      <point x="296" y="260"/>
      <point x="296" y="260" type="curve"/>
      <point x="296" y="260"/>
      <point x="230" y="0"/>
    </contour>
    <contour>
      <point x="349" y="470" type="curve"/>
      <point x="349" y="470"/>
      <point x="591" y="470"/>
      <point x="591" y="470" type="curve"/>
      <point x="591" y="470"/>
      <point x="470" y="945"/>
      <point x="470" y="945" type="curve"/>
      <point x="470" y="945"/>
      <point x="349" y="470"/>
    </contour>
    <contour>
      <point x="384" y="1800" type="curve"/>
      <point x="384" y="1800"/>
      <point x="557" y="1800"/>
      <point x="557" y="1800" type="curve"/>
      <point x="557" y="1800"/>
      <point x="741" y="1500"/>
      <point x="741" y="1500" type="curve"/>
      <point x="741" y="1500"/>
      <point x="586" y="1500"/>
      <point x="586" y="1500" type="curve"/>
      <point x="586" y="1500"/>
      <point x="471" y="1682"/>
      <point x="471" y="1682" type="curve"/>
      <point x="471" y="1682"/>
      <point x="355" y="1500"/>
      <point x="355" y="1500" type="curve"/>
      <point x="355" y="1500"/>
      <point x="200" y="1500"/>
      <point x="200" y="1500" type="curve"/>
      <point x="200" y="1500"/>
      <point x="384" y="1800"/>
    </contour>
  </outline>
</glyph>
<glyph name="Atilde" format="1">
  <advance width="940"/>
  <unicode hex="00C3"/>
  <outline>
    <contour>
      <point x="230" y="0" type="curve"/>
      <point x="230" y="0"/>
      <point x="0" y="0"/>
      <point x="0" y="0" type="curve"/>
      <point x="0" y="0"/>
      <point x="350" y="1400"/>
      <point x="350" y="1400" type="curve"/>
      <point x="350" y="1400"/>
      <point x="590" y="1400"/>
      <point x="590" y="1400" type="curve"/>
      <point x="590" y="1400"/>
      <point x="940" y="0"/>
      <point x="940" y="0" type="curve"/>
      <point x="940" y="0"/>
      <point x="710" y="0"/>
      <point x="710" y="0" type="curve"/>
      <point x="710" y="0"/>
      <point x="644" y="260"/>
      <point x="644" y="260" type="curve"/>
      <point x="644" y="260"/>
      <point x="296" y="260"/>
      <point x="296" y="260" type="curve"/>
      <point x="296" y="260"/>
      <point x="230" y="0"/>
    </contour>
    <contour>
      <point x="349" y="470" type="curve"/>
      <point x="349" y="470"/>
      <point x="591" y="470"/>
      <point x="591" y="470" type="curve"/>
      <point x="591" y="470"/>
      <point x="470" y="945"/>
      <point x="470" y="945" type="curve"/>
      <point x="470" y="945"/>
      <point x="349" y="470"/>
    </contour>
    <contour>
      <point x="732" y="1653" type="curve"/>
      <point x="732" y="1653"/>
      <point x="821" y="1626"/>
      <point x="821" y="1626" type="curve"/>
      <point x="808" y="1553"/>
      <point x="740" y="1496"/>
      <point x="664" y="1496" type="curve" smooth="yes"/>
      <point x="598" y="1496"/>
      <point x="544" y="1535"/>
      <point x="522" y="1593" type="curve"/>
      <point x="511" y="1608"/>
      <point x="496" y="1619"/>
      <point x="476" y="1619" type="curve" smooth="yes"/>
      <point x="441" y="1619"/>
      <point x="408" y="1589"/>
      <point x="408" y="1553" type="curve"/>
      <point x="408" y="1553"/>
      <point x="319" y="1580"/>
      <point x="319" y="1580" type="curve"/>
      <point x="331" y="1653"/>
      <point x="399" y="1710"/>
      <point x="476" y="1710" type="curve" smooth="yes"/>
      <point x="541" y="1710"/>
      <point x="596" y="1671"/>
      <point x="617" y="1613" type="curve"/>
      <point x="629" y="1598"/>
      <point x="643" y="1587"/>
      <point x="664" y="1587" type="curve" smooth="yes"/>
      <point x="699" y="1587"/>
      <point x="732" y="1617"/>
    </contour>
  </outline>
</glyph>
<glyph name="Aring" format="1">
  <advance width="940"/>
  <unicode hex="00C5"/>
  <outline>
    <contour>
      <point x="230" y="0" type="curve"/>
      <point x="230" y="0"/>
      <point x="0" y="0"/>
      <point x="0" y="0" type="curve"/>
      <point x="0" y="0"/>
      <point x="350" y="1400"/>
      <point x="350" y="1400" type="curve"/>
      <point x="350" y="1400"/>
      <point x="590" y="1400"/>
      <point x="590" y="1400" type="curve"/>
      <point x="590" y="1400"/>
      <point x="940" y="0"/>
      <point x="940" y="0" type="curve"/>
      <point x="940" y="0"/>
      <point x="710" y="0"/>
      <point x="710" y="0" type="curve"/>
      <point x="710" y="0"/>
      <point x="644" y="260"/>
      <point x="644" y="260" type="curve"/>
      <point x="644" y="260"/>
      <point x="296" y="260"/>
      <point x="296" y="260" type="curve"/>
      <point x="296" y="260"/>
      <point x="230" y="0"/>
    </contour>
    <contour>
      <point x="349" y="470" type="curve"/>
      <point x="349" y="470"/>
      <point x="591" y="470"/>
      <point x="591" y="470" type="curve"/>
      <point x="591" y="470"/>
      <point x="470" y="945"/>
      <point x="470" y="945" type="curve"/>
      <point x="470" y="945"/>
      <point x="349" y="470"/>
    </contour>
    <contour>
      <point x="610" y="1661" type="curve" smooth="yes"/>
      <point x="610" y="1661"/>
      <point x="610" y="1626"/>
      <point x="610" y="1626" type="curve" smooth="yes"/>
      <point x="610" y="1549"/>
      <point x="549" y="1490"/>
      <point x="470" y="1490" type="curve" smooth="yes"/>
      <point x="391" y="1490"/>
      <point x="330" y="1549"/>
      <point x="330" y="1626" type="curve" smooth="yes"/>
      <point x="330" y="1626"/>
      <point x="330" y="1661"/>
      <point x="330" y="1661" type="curve" smooth="yes"/>
      <point x="330" y="1738"/>
      <point x="391" y="1800"/>
      <point x="470" y="1800" type="curve" smooth="yes"/>
      <point x="549" y="1800"/>
      <point x="610" y="1738"/>
    </contour>
    <contour>
      <point x="525" y="1659" type="curve" smooth="yes"/>
      <point x="525" y="1700"/>
      <point x="500" y="1730"/>
      <point x="470" y="1730" type="curve" smooth="yes"/>
      <point x="440" y="1730"/>
      <point x="415" y="1700"/>
      <point x="415" y="1659" type="curve" smooth="yes"/>
      <point x="415" y="1659"/>
      <point x="415" y="1631"/>
      <point x="415" y="1631" type="curve" smooth="yes"/>
      <point x="415" y="1589"/>
      <point x="440" y="1560"/>
      <point x="470" y="1560" type="curve" smooth="yes"/>
      <point x="500" y="1560"/>
      <point x="525" y="1589"/>
      <point x="525" y="1631" type="curve" smooth="yes"/>
      <point x="525" y="1631"/>
      <point x="525" y="1659"/>
    </contour>
  </outline>
</glyph>
<glyph name="AE" format="1">
  <advance width="1461"/>
  <unicode hex="00C6"/>
  <outline>
    <contour>
      <point x="899" y="240" type="line"/>
      <point x="1361" y="240" type="line"/>
      <point x="1361" y="0" type="line"/>
      <point x="649" y="0" type="line"/>
      <point x="649" y="318" type="line"/>
      <point x="412" y="318" type="line"/>
      <point x="330" y="0" type="line"/>
      <point x="100" y="0" type="line"/>
      <point x="450" y="1400" type="line"/>
      <point x="1360" y="1400" type="line"/>
      <point x="1360" y="1170" type="line"/>
      <point x="899" y="1170" type="line"/>
      <point x="899" y="800" type="line"/>
      <point x="1279" y="800" type="line"/>
      <point x="1279" y="580" type="line"/>
      <point x="899" y="580" type="line"/>
    </contour>
    <contour>
      <point x="649" y="548" type="line"/>
      <point x="649" y="1170" type="line"/>
      <point x="631" y="1170" type="line"/>
      <point x="471" y="548" type="line"/>
    </contour>
  </outline>
</glyph>
<glyph name="Eacute" format="1">
  <advance width="912"/>
  <unicode hex="00C9"/>
  <outline>
    <contour>
      <point x="660" y="1750" type="line"/>
      <point x="460" y="1490" type="line"/>
      <point x="300" y="1490" type="line"/>
      <point x="440" y="1750" type="line"/>
    </contour>
    <contour>
      <point x="100" y="0" type="line"/>
      <point x="100" y="1400" type="line"/>
      <point x="810" y="1400" type="line"/>
      <point x="810" y="1170" type="line"/>
      <point x="350" y="1170" type="line"/>
      <point x="350" y="820" type="line"/>
      <point x="730" y="820" type="line"/>
      <point x="730" y="580" type="line"/>
      <point x="350" y="580" type="line"/>
      <point x="350" y="240" type="line"/>
      <point x="812" y="240" type="line"/>
      <point x="812" y="0" type="line"/>
    </contour>
  </outline>
</glyph>
<glyph name="Igrave" format="1">
  <advance width="450"/>
  <unicode hex="00CC"/>
  <outline>
    <contour>
      <point x="190" y="1490" type="line"/>
      <point x="-10" y="1750" type="line"/>
      <point x="210" y="1750" type="line"/>
      <point x="350" y="1490" type="line"/>
    </contour>
    <contour>
      <point x="100" y="1400" type="line"/>
      <point x="350" y="1400" type="line"/>
      <point x="350" y="0" type="line"/>
      <point x="100" y="0" type="line"/>
    </contour>
  </outline>
</glyph>
<glyph name="Idieresis" format="1">
  <advance width="590"/>
  <unicode hex="00CF"/>
  <outline>
    <contour>
      <point x="30" y="1700" type="line"/>
      <point x="180" y="1700" type="line"/>
      <point x="180" y="1550" type="line"/>
      <point x="30" y="1550" type="line"/>
    </contour>
    <contour>
      <point x="270" y="1700" type="line"/>
      <point x="420" y="1700" type="line"/>
      <point x="420" y="1550" type="line"/>
      <point x="270" y="1550" type="line"/>
    </contour>
    <contour>
      <point x="100" y="1400" type="line"/>
      <point x="350" y="1400" type="line"/>
      <point x="350" y="0" type="line"/>
      <point x="100" y="0" type="line"/>
    </contour>
  </outline>
</glyph>
<glyph name="Ntilde" format="1">
  <advance width="975"/>
  <unicode hex="00D1"/>
  <outline>
    <contour>
      <point x="920" y="1696" type="line"/>
      <point x="890" y="1606"/>
      <point x="735" y="1491"/>
      <point x="635" y="1491" type="qcurve" smooth="yes"/>
      <point x="633" y="1491"/>
      <point x="632" y="1491" type="qcurve" smooth="yes"/>
      <point x="573" y="1491"/>
      <point x="464" y="1539"/>
      <point x="423" y="1578" type="qcurve" smooth="yes"/>
      <point x="384" y="1614"/>
      <point x="333" y="1614" type="qcurve" smooth="yes"/>
      <point x="295" y="1614"/>
      <point x="229" y="1571"/>
      <point x="216" y="1530" type="qcurve"/>
      <point x="50" y="1585" type="line"/>
      <point x="80" y="1674"/>
      <point x="235" y="1790"/>
      <point x="335" y="1790" type="qcurve" smooth="yes"/>
      <point x="459" y="1790"/>
      <point x="547" y="1702" type="qcurve" smooth="yes"/>
      <point x="583" y="1666"/>
      <point x="635" y="1666" type="qcurve" smooth="yes"/>
      <point x="676" y="1666"/>
      <point x="741" y="1713"/>
      <point x="754" y="1751" type="qcurve"/>
    </contour>
    <contour>
      <point x="640" y="610" type="line"/>
      <point x="640" y="1400" type="line"/>
      <point x="880" y="1400" type="line"/>
      <point x="880" y="0" type="line"/>
      <point x="670" y="0" type="line"/>
      <point x="330" y="754" type="line"/>
      <point x="330" y="0" type="line"/>
      <point x="100" y="0" type="line"/>
      <point x="100" y="1400" type="line"/>
      <point x="310" y="1400" type="line"/>
    </contour>
  </outline>
</glyph>
<glyph name="Otilde" format="1">
  <advance width="940"/>
  <unicode hex="00D5"/>
  <outline>
    <contour>
      <point x="633" y="1653" type="qcurve"/>
      <point x="722" y="1626" type="line"/>
      <point x="712" y="1571"/>
      <point x="622" y="1496"/>
      <point x="565" y="1496" type="qcurve" smooth="yes"/>
      <point x="516" y="1496"/>
      <point x="440" y="1550"/>
      <point x="423" y="1593" type="qcurve"/>
      <point x="404" y="1619"/>
      <point x="377" y="1619" type="qcurve" smooth="yes"/>
      <point x="351" y="1619"/>
      <point x="309" y="1580"/>
      <point x="309" y="1553" type="qcurve"/>
      <point x="220" y="1580" type="line"/>
      <point x="229" y="1635"/>
      <point x="319" y="1710"/>
      <point x="377" y="1710" type="qcurve" smooth="yes"/>
      <point x="426" y="1710"/>
      <point x="502" y="1657"/>
      <point x="518" y="1613" type="qcurve"/>
      <point x="527" y="1602"/>
      <point x="549" y="1587"/>
      <point x="565" y="1587" type="qcurve" smooth="yes"/>
      <point x="591" y="1587"/>
      <point x="633" y="1626"/>
    </contour>
    <contour>
      <point x="840" y="1255" type="qcurve" smooth="yes"/>
      <point x="840" y="145" type="line" smooth="yes"/>
      <point x="840" y="85"/>
      <point x="755" y="0"/>
      <point x="695" y="0" type="qcurve" smooth="yes"/>
      <point x="245" y="0" type="line" smooth="yes"/>
      <point x="185" y="0"/>
      <point x="100" y="85"/>
      <point x="100" y="145" type="qcurve" smooth="yes"/>
      <point x="100" y="1255" type="line" smooth="yes"/>
      <point x="100" y="1315"/>
      <point x="185" y="1400"/>
      <point x="245" y="1400" type="qcurve" smooth="yes"/>
      <point x="695" y="1400" type="line" smooth="yes"/>
      <point x="755" y="1400"/>
      <point x="840" y="1315"/>
    </contour>
    <contour>
      <point x="350" y="250" type="line"/>
      <point x="590" y="250" type="line"/>
      <point x="590" y="1150" type="line"/>
      <point x="350" y="1150" type="line"/>
    </contour>
  </outline>
</glyph>
<glyph name="Odieresis" format="1">
  <advance width="940"/>
  <unicode hex="00D6"/>
  <outline>
    <contour>
      <point x="275" y="1700" type="line"/>
      <point x="425" y="1700" type="line"/>
      <point x="425" y="1550" type="line"/>
      <point x="275" y="1550" type="line"/>
    </contour>
    <contour>
      <point x="515" y="1700" type="line"/>
      <point x="665" y="1700" type="line"/>
      <point x="665" y="1550" type="line"/>
      <point x="515" y="1550" type="line"/>
    </contour>
    <contour>
      <point x="840" y="1255" type="qcurve" smooth="yes"/>
      <point x="840" y="145" type="line" smooth="yes"/>
      <point x="840" y="85"/>
      <point x="755" y="0"/>
      <point x="695" y="0" type="qcurve" smooth="yes"/>
      <point x="245" y="0" type="line" smooth="yes"/>
      <point x="185" y="0"/>
      <point x="100" y="85"/>
      <point x="100" y="145" type="qcurve" smooth="yes"/>
      <point x="100" y="1255" type="line" smooth="yes"/>
      <point x="100" y="1315"/>
      <point x="185" y="1400"/>
      <point x="245" y="1400" type="qcurve" smooth="yes"/>
      <point x="695" y="1400" type="line" smooth="yes"/>
      <point x="755" y="1400"/>
      <point x="840" y="1315"/>
    </contour>
    <contour>
      <point x="350" y="250" type="line"/>
      <point x="590" y="250" type="line"/>
      <point x="590" y="1150" type="line"/>
      <point x="350" y="1150" type="line"/>
    </contour>
  </outline>
</glyph>
<glyph name="multiply" format="1">
  <advance width="921"/>
  <unicode hex="00D7"/>
  <outline>
    <contour>
      <point x="666" y="1061" type="line"/>
      <point x="821" y="905" type="line"/>
      <point x="616" y="700" type="line"/>
      <point x="821" y="495" type="line"/>
      <point x="666" y="340" type="line"/>
      <point x="461" y="545" type="line"/>
      <point x="256" y="340" type="line"/>
      <point x="100" y="495" type="line"/>
      <point x="305" y="700" type="line"/>
      <point x="100" y="905" type="line"/>
      <point x="256" y="1061" type="line"/>
      <point x="461" y="856" type="line"/>
    </contour>
  </outline>
</glyph>
<glyph name="Ugrave" format="1">
  <advance width="970"/>
  <unicode hex="00D9"/>
  <outline>
    <contour>
      <point x="350" y="1400" type="curve"/>
      <point x="350" y="1400"/>
      <point x="350" y="250"/>
      <point x="350" y="250" type="curve"/>
      <point x="350" y="250"/>
      <point x="620" y="250"/>
      <point x="620" y="250" type="curve"/>
      <point x="620" y="250"/>
      <point x="620" y="1400"/>
      <point x="620" y="1400" type="curve"/>
      <point x="620" y="1400"/>
      <point x="870" y="1400"/>
      <point x="870" y="1400" type="curve"/>
      <point x="870" y="1400"/>
      <point x="870" y="145"/>
      <point x="870" y="145" type="curve" smooth="yes"/>
      <point x="870" y="65"/>
      <point x="805" y="0"/>
      <point x="725" y="0" type="curve" smooth="yes"/>
      <point x="725" y="0"/>
      <point x="245" y="0"/>
      <point x="245" y="0" type="curve" smooth="yes"/>
      <point x="165" y="0"/>
      <point x="100" y="65"/>
      <point x="100" y="145" type="curve" smooth="yes"/>
      <point x="100" y="145"/>
      <point x="100" y="1400"/>
      <point x="100" y="1400" type="curve"/>
      <point x="100" y="1400"/>
      <point x="350" y="1400"/>
    </contour>
    <contour>
      <point x="500" y="1490" type="curve"/>
      <point x="500" y="1490"/>
      <point x="300" y="1750"/>
      <point x="300" y="1750" type="curve"/>
      <point x="300" y="1750"/>
      <point x="520" y="1750"/>
      <point x="520" y="1750" type="curve"/>
      <point x="520" y="1750"/>
      <point x="660" y="1490"/>
      <point x="660" y="1490" type="curve"/>
      <point x="660" y="1490"/>
      <point x="500" y="1490"/>
    </contour>
  </outline>
</glyph>
<glyph name="Yacute" format="1">
  <advance width="920"/>
  <unicode hex="00DD"/>
  <outline>
    <contour>
      <point x="730" y="1750" type="line"/>
      <point x="530" y="1490" type="line"/>
      <point x="370" y="1490" type="line"/>
      <point x="510" y="1750" type="line"/>
    </contour>
    <contour>
      <point x="860" y="1400" type="line"/>
      <point x="585" y="506" type="line"/>
      <point x="585" y="0" type="line"/>
      <point x="335" y="0" type="line"/>
      <point x="335" y="506" type="line"/>
      <point x="60" y="1400" type="line"/>
      <point x="310" y="1400" type="line"/>
      <point x="460" y="810" type="line"/>
      <point x="600" y="1400" type="line"/>
    </contour>
  </outline>
</glyph>
<glyph name="Thorn" format="1">
  <advance width="940"/>
  <unicode hex="00DE"/>
  <outline>
    <contour>
      <point x="840" y="1060" type="qcurve" smooth="yes"/>
      <point x="840" y="445" type="line" smooth="yes"/>
      <point x="840" y="385"/>
      <point x="755" y="300"/>
      <point x="695" y="300" type="qcurve" smooth="yes"/>
      <point x="350" y="300" type="line"/>
      <point x="350" y="0" type="line"/>
      <point x="100" y="0" type="line"/>
      <point x="100" y="1400" type="line"/>
      <point x="350" y="1400" type="line"/>
      <point x="350" y="1200" type="line"/>
      <point x="700" y="1200" type="line" smooth="yes"/>
      <point x="758" y="1200"/>
      <point x="840" y="1118"/>
    </contour>
    <contour>
      <point x="350" y="550" type="line"/>
      <point x="590" y="550" type="line"/>
      <point x="590" y="960" type="line"/>
      <point x="350" y="960" type="line"/>
    </contour>
  </outline>
</glyph>
<glyph name="germandbls" format="1">
  <advance width="930"/>
  <unicode hex="00DF"/>
  <outline>
    <contour>
      <point x="830" y="1240" type="qcurve" smooth="yes"/>
      <point x="830" y="860" type="line" smooth="yes"/>
      <point x="830" y="808"/>
      <point x="771" y="727"/>
      <point x="726" y="710" type="qcurve"/>
      <point x="773" y="693"/>
      <point x="830" y="610"/>
      <point x="830" y="560" type="qcurve" smooth="yes"/>
      <point x="830" y="144" type="line" smooth="yes"/>
      <point x="830" y="84"/>
      <point x="746" y="0"/>
      <point x="686" y="0" type="qcurve" smooth="yes"/>
      <point x="525" y="0" type="line" smooth="yes"/>
      <point x="517" y="0"/>
      <point x="517" y="8" type="qcurve" smooth="yes"/>
      <point x="517" y="13"/>
      <point x="525" y="18" type="qcurve" smooth="yes"/>
      <point x="600" y="59"/>
      <point x="600" y="144" type="qcurve" smooth="yes"/>
      <point x="600" y="537" type="line" smooth="yes"/>
      <point x="600" y="563"/>
      <point x="564" y="600"/>
      <point x="538" y="600" type="qcurve" smooth="yes"/>
      <point x="430" y="600" type="line"/>
      <point x="430" y="820" type="line"/>
      <point x="538" y="820" type="line" smooth="yes"/>
      <point x="564" y="820"/>
      <point x="600" y="857"/>
      <point x="600" y="883" type="qcurve" smooth="yes"/>
      <point x="600" y="1107" type="line" smooth="yes"/>
      <point x="600" y="1133"/>
      <point x="564" y="1170"/>
      <point x="538" y="1170" type="qcurve" smooth="yes"/>
      <point x="383" y="1170" type="line" smooth="yes"/>
      <point x="357" y="1170"/>
      <point x="320" y="1133"/>
      <point x="320" y="1107" type="qcurve" smooth="yes"/>
      <point x="320" y="0" type="line"/>
      <point x="100" y="0" type="line"/>
      <point x="100" y="1240" type="line" smooth="yes"/>
      <point x="100" y="1306"/>
      <point x="194" y="1400"/>
      <point x="260" y="1400" type="qcurve" smooth="yes"/>
      <point x="670" y="1400" type="line" smooth="yes"/>
      <point x="736" y="1400"/>
      <point x="830" y="1306"/>
    </contour>
  </outline>
</glyph>
<glyph name="acircumflex" format="1">
  <advance width="940"/>
  <unicode hex="00E2"/>
  <outline>
    <contour>
      <point x="384" y="1800" type="line"/>
      <point x="557" y="1800" type="line"/>
      <point x="741" y="1500" type="line"/>
      <point x="586" y="1500" type="line"/>
      <point x="471" y="1682" type="line"/>
      <point x="355" y="1500" type="line"/>
      <point x="200" y="1500" type="line"/>
    </contour>
    <contour>
      <point x="230" y="0" type="line"/>
      <point x="0" y="0" type="line"/>
      <point x="350" y="1400" type="line"/>
      <point x="590" y="1400" type="line"/>
      <point x="940" y="0" type="line"/>
      <point x="710" y="0" type="line"/>
      <point x="644" y="260" type="line"/>
      <point x="296" y="260" type="line"/>
    </contour>
    <contour>
      <point x="349" y="470" type="line"/>
      <point x="591" y="470" type="line"/>
      <point x="470" y="945" type="line"/>
    </contour>
  </outline>
</glyph>
<glyph name="atilde" format="1">
  <advance width="940"/>
  <unicode hex="00E3"/>
  <outline>
    <contour>
      <point x="632" y="1653" type="qcurve"/>
      <point x="721" y="1626" type="line"/>
      <point x="711" y="1571"/>
      <point x="621" y="1496"/>
      <point x="564" y="1496" type="qcurve" smooth="yes"/>
      <point x="515" y="1496"/>
      <point x="439" y="1550"/>
      <point x="422" y="1593" type="qcurve"/>
      <point x="403" y="1619"/>
      <point x="376" y="1619" type="qcurve" smooth="yes"/>
      <point x="350" y="1619"/>
      <point x="308" y="1580"/>
      <point x="308" y="1553" type="qcurve"/>
      <point x="219" y="1580" type="line"/>
      <point x="228" y="1635"/>
      <point x="318" y="1710"/>
      <point x="376" y="1710" type="qcurve" smooth="yes"/>
      <point x="425" y="1710"/>
      <point x="501" y="1657"/>
      <point x="517" y="1613" type="qcurve"/>
      <point x="526" y="1602"/>
      <point x="548" y="1587"/>
      <point x="564" y="1587" type="qcurve" smooth="yes"/>
      <point x="590" y="1587"/>
      <point x="632" y="1626"/>
    </contour>
    <contour>
      <point x="230" y="0" type="line"/>
      <point x="0" y="0" type="line"/>
      <point x="350" y="1400" type="line"/>
      <point x="590" y="1400" type="line"/>
      <point x="940" y="0" type="line"/>
      <point x="710" y="0" type="line"/>
      <point x="644" y="260" type="line"/>
      <point x="296" y="260" type="line"/>
    </contour>
    <contour>
      <point x="349" y="470" type="line"/>
      <point x="591" y="470" type="line"/>
      <point x="470" y="945" type="line"/>
    </contour>
  </outline>
</glyph>
<glyph name="adieresis" format="1">
  <advance width="940"/>
  <unicode hex="00E4"/>
  <outline>
    <contour>
      <point x="275" y="1700" type="line"/>
      <point x="425" y="1700" type="line"/>
      <point x="425" y="1550" type="line"/>
      <point x="275" y="1550" type="line"/>
    </contour>
    <contour>
      <point x="515" y="1700" type="line"/>
      <point x="665" y="1700" type="line"/>
      <point x="665" y="1550" type="line"/>
      <point x="515" y="1550" type="line"/>
    </contour>
    <contour>
      <point x="230" y="0" type="line"/>
      <point x="0" y="0" type="line"/>
      <point x="350" y="1400" type="line"/>
      <point x="590" y="1400" type="line"/>
      <point x="940" y="0" type="line"/>
      <point x="710" y="0" type="line"/>
      <point x="644" y="260" type="line"/>
      <point x="296" y="260" type="line"/>
    </contour>
    <contour>
      <point x="349" y="470" type="line"/>
      <point x="591" y="470" type="line"/>
      <point x="470" y="945" type="line"/>
    </contour>
  </outline>
</glyph>
<glyph name="aring" format="1">
  <advance width="940"/>
  <unicode hex="00E5"/>
  <outline>
    <contour>
      <point x="610" y="1661" type="qcurve" smooth="yes"/>
      <point x="610" y="1626" type="line" smooth="yes"/>
      <point x="610" y="1568"/>
      <point x="529" y="1490"/>
      <point x="470" y="1490" type="qcurve" smooth="yes"/>
      <point x="411" y="1490"/>
      <point x="330" y="1568"/>
      <point x="330" y="1626" type="qcurve" smooth="yes"/>
      <point x="330" y="1661" type="line" smooth="yes"/>
      <point x="330" y="1719"/>
      <point x="411" y="1800"/>
      <point x="470" y="1800" type="qcurve" smooth="yes"/>
      <point x="529" y="1800"/>
      <point x="610" y="1719"/>
    </contour>
    <contour>
      <point x="525" y="1659" type="line" smooth="yes"/>
      <point x="525" y="1690"/>
      <point x="493" y="1730"/>
      <point x="470" y="1730" type="qcurve" smooth="yes"/>
      <point x="448" y="1730"/>
      <point x="415" y="1690"/>
      <point x="415" y="1659" type="qcurve" smooth="yes"/>
      <point x="415" y="1631" type="line" smooth="yes"/>
      <point x="415" y="1600"/>
      <point x="448" y="1560"/>
      <point x="470" y="1560" type="qcurve" smooth="yes"/>
      <point x="493" y="1560"/>
      <point x="525" y="1600"/>
      <point x="525" y="1631" type="qcurve" smooth="yes"/>
    </contour>
    <contour>
      <point x="230" y="0" type="line"/>
      <point x="0" y="0" type="line"/>
      <point x="350" y="1400" type="line"/>
      <point x="590" y="1400" type="line"/>
      <point x="940" y="0" type="line"/>
      <point x="710" y="0" type="line"/>
      <point x="644" y="260" type="line"/>
      <point x="296" y="260" type="line"/>
    </contour>
    <contour>
      <point x="349" y="470" type="line"/>
      <point x="591" y="470" type="line"/>
      <point x="470" y="945" type="line"/>
    </contour>
  </outline>
</glyph>
<glyph name="ccedilla" format="1">
  <advance width="910"/>
  <unicode hex="00E7"/>
  <outline>
    <contour>
      <point x="100" y="145" type="qcurve" smooth="yes"/>
      <point x="100" y="1255" type="line" smooth="yes"/>
      <point x="100" y="1315"/>
      <point x="185" y="1400"/>
      <point x="245" y="1400" type="qcurve" smooth="yes"/>
      <point x="665" y="1400" type="line" smooth="yes"/>
      <point x="725" y="1400"/>
      <point x="810" y="1315"/>
      <point x="810" y="1255" type="qcurve" smooth="yes"/>
      <point x="810" y="955" type="line"/>
      <point x="560" y="955" type="line"/>
      <point x="560" y="1143" type="line"/>
      <point x="360" y="1143" type="line"/>
      <point x="360" y="260" type="line"/>
      <point x="560" y="260" type="line"/>
      <point x="560" y="445" type="line"/>
      <point x="810" y="445" type="line"/>
      <point x="810" y="145" type="line" smooth="yes"/>
      <point x="810" y="86"/>
      <point x="726" y="0"/>
      <point x="667" y="0" type="qcurve" smooth="yes"/>
      <point x="665" y="0" type="line"/>
      <point x="745" y="-80" type="line"/>
      <point x="745" y="-230" type="line" smooth="yes"/>
      <point x="745" y="-296"/>
      <point x="651" y="-390"/>
      <point x="585" y="-390" type="qcurve" smooth="yes"/>
      <point x="325" y="-390" type="line" smooth="yes"/>
      <point x="259" y="-390"/>
      <point x="165" y="-296"/>
      <point x="165" y="-230" type="qcurve" smooth="yes"/>
      <point x="165" y="-155" type="line"/>
      <point x="325" y="-155" type="line"/>
      <point x="325" y="-167" type="line" smooth="yes"/>
      <point x="325" y="-193"/>
      <point x="362" y="-230"/>
      <point x="388" y="-230" type="qcurve" smooth="yes"/>
      <point x="523" y="-230" type="line" smooth="yes"/>
      <point x="549" y="-230"/>
      <point x="585" y="-193"/>
      <point x="585" y="-167" type="qcurve" smooth="yes"/>
      <point x="584" y="-149" type="line"/>
      <point x="439" y="0" type="line"/>
      <point x="245" y="0" type="line" smooth="yes"/>
      <point x="185" y="0"/>
      <point x="100" y="85"/>
    </contour>
  </outline>
</glyph>
<glyph name="iacute" format="1">
  <advance width="560"/>
  <unicode hex="00ED"/>
  <outline>
    <contour>
      <point x="460" y="1750" type="line"/>
      <point x="260" y="1490" type="line"/>
      <point x="100" y="1490" type="line"/>
      <point x="240" y="1750" type="line"/>
    </contour>
    <contour>
      <point x="100" y="1400" type="line"/>
      <point x="350" y="1400" type="line"/>
      <point x="350" y="0" type="line"/>
      <point x="100" y="0" type="line"/>
    </contour>
  </outline>
</glyph>
<glyph name="icircumflex" format="1">
  <advance width="596"/>
  <unicode hex="00EE"/>
  <outline>
    <contour>
      <point x="139" y="1800" type="line"/>
      <point x="312" y="1800" type="line"/>
      <point x="496" y="1500" type="line"/>
      <point x="341" y="1500" type="line"/>
      <point x="226" y="1682" type="line"/>
      <point x="110" y="1500" type="line"/>
      <point x="-45" y="1500" type="line"/>
    </contour>
    <contour>
      <point x="100" y="1400" type="line"/>
      <point x="350" y="1400" type="line"/>
      <point x="350" y="0" type="line"/>
      <point x="100" y="0" type="line"/>
    </contour>
  </outline>
</glyph>
<glyph name="idieresis" format="1">
  <advance width="590"/>
  <unicode hex="00EF"/>
  <outline>
    <contour>
      <point x="100" y="1700" type="line"/>
      <point x="250" y="1700" type="line"/>
      <point x="250" y="1550" type="line"/>
      <point x="100" y="1550" type="line"/>
    </contour>
    <contour>
      <point x="340" y="1700" type="line"/>
      <point x="490" y="1700" type="line"/>
      <point x="490" y="1550" type="line"/>
      <point x="340" y="1550" type="line"/>
    </contour>
    <contour>
      <point x="170" y="1400" type="line"/>
      <point x="420" y="1400" type="line"/>
      <point x="420" y="0" type="line"/>
      <point x="170" y="0" type="line"/>
    </contour>
  </outline>
</glyph>
<glyph name="eth" format="1">
  <advance width="890"/>
  <unicode hex="00F0"/>
  <outline>
    <contour>
      <point x="100" y="0" type="line"/>
      <point x="100" y="450" type="line"/>
      <point x="40" y="450" type="line"/>
      <point x="40" y="560" type="line"/>
      <point x="100" y="560" type="line"/>
      <point x="100" y="1400" type="line"/>
      <point x="630" y="1400" type="line" smooth="yes"/>
      <point x="696" y="1400"/>
      <point x="790" y="1306"/>
      <point x="790" y="1240" type="qcurve" smooth="yes"/>
      <point x="790" y="160" type="line" smooth="yes"/>
      <point x="790" y="94"/>
      <point x="696" y="0"/>
      <point x="630" y="0" type="qcurve" smooth="yes"/>
    </contour>
    <contour>
      <point x="350" y="450" type="line"/>
      <point x="350" y="230" type="line"/>
      <point x="529" y="230" type="line" smooth="yes"/>
      <point x="550" y="230"/>
      <point x="550" y="251" type="qcurve" smooth="yes"/>
      <point x="550" y="1149" type="line" smooth="yes"/>
      <point x="550" y="1170"/>
      <point x="529" y="1170" type="qcurve" smooth="yes"/>
      <point x="350" y="1170" type="line"/>
      <point x="350" y="560" type="line"/>
      <point x="480" y="560" type="line"/>
      <point x="480" y="450" type="line"/>
    </contour>
  </outline>
</glyph>
<glyph name="ntilde" format="1">
  <advance width="975"/>
  <unicode hex="00F1"/>
  <outline>
    <contour>
      <point x="640" y="610" type="curve"/>
      <point x="640" y="610"/>
      <point x="640" y="1400"/>
      <point x="640" y="1400" type="curve"/>
      <point x="640" y="1400"/>
      <point x="880" y="1400"/>
      <point x="880" y="1400" type="curve"/>
      <point x="880" y="1400"/>
      <point x="880" y="0"/>
      <point x="880" y="0" type="curve"/>
      <point x="880" y="0"/>
      <point x="670" y="0"/>
      <point x="670" y="0" type="curve"/>
      <point x="670" y="0"/>
      <point x="330" y="754"/>
      <point x="330" y="754" type="curve"/>
      <point x="330" y="754"/>
      <point x="330" y="0"/>
      <point x="330" y="0" type="curve"/>
      <point x="330" y="0"/>
      <point x="100" y="0"/>
      <point x="100" y="0" type="curve"/>
      <point x="100" y="0"/>
      <point x="100" y="1400"/>
      <point x="100" y="1400" type="curve"/>
      <point x="100" y="1400"/>
      <point x="310" y="1400"/>
      <point x="310" y="1400" type="curve"/>
      <point x="310" y="1400"/>
      <point x="640" y="610"/>
    </contour>
    <contour>
      <point x="920" y="1696" type="curve"/>
      <point x="880" y="1576"/>
      <point x="768" y="1491"/>
      <point x="635" y="1491" type="curve" smooth="yes"/>
      <point x="634" y="1491"/>
      <point x="633" y="1491"/>
      <point x="632" y="1491" type="curve" smooth="yes"/>
      <point x="554" y="1491"/>
      <point x="478" y="1526"/>
      <point x="423" y="1578" type="curve" smooth="yes"/>
      <point x="396" y="1602"/>
      <point x="364" y="1614"/>
      <point x="333" y="1614" type="curve" smooth="yes"/>
      <point x="282" y="1614"/>
      <point x="234" y="1584"/>
      <point x="216" y="1530" type="curve"/>
      <point x="216" y="1530"/>
      <point x="50" y="1585"/>
      <point x="50" y="1585" type="curve"/>
      <point x="90" y="1704"/>
      <point x="202" y="1790"/>
      <point x="335" y="1790" type="curve" smooth="yes"/>
      <point x="414" y="1790"/>
      <point x="491" y="1758"/>
      <point x="547" y="1702" type="curve" smooth="yes"/>
      <point x="570" y="1679"/>
      <point x="602" y="1666"/>
      <point x="635" y="1666" type="curve" smooth="yes"/>
      <point x="689" y="1666"/>
      <point x="737" y="1700"/>
      <point x="754" y="1751" type="curve"/>
      <point x="754" y="1751"/>
      <point x="920" y="1696"/>
    </contour>
  </outline>
</glyph>
<glyph name="ograve" format="1">
  <advance width="940"/>
  <unicode hex="00F2"/>
  <outline>
    <contour>
      <point x="840" y="1255" type="curve" smooth="yes"/>
      <point x="840" y="1255"/>
      <point x="840" y="145"/>
      <point x="840" y="145" type="curve" smooth="yes"/>
      <point x="840" y="65"/>
      <point x="775" y="0"/>
      <point x="695" y="0" type="curve" smooth="yes"/>
      <point x="695" y="0"/>
      <point x="245" y="0"/>
      <point x="245" y="0" type="curve" smooth="yes"/>
      <point x="165" y="0"/>
      <point x="100" y="65"/>
      <point x="100" y="145" type="curve" smooth="yes"/>
      <point x="100" y="145"/>
      <point x="100" y="1255"/>
      <point x="100" y="1255" type="curve" smooth="yes"/>
      <point x="100" y="1335"/>
      <point x="165" y="1400"/>
      <point x="245" y="1400" type="curve" smooth="yes"/>
      <point x="245" y="1400"/>
      <point x="695" y="1400"/>
      <point x="695" y="1400" type="curve" smooth="yes"/>
      <point x="775" y="1400"/>
      <point x="840" y="1335"/>
    </contour>
    <contour>
      <point x="350" y="250" type="curve"/>
      <point x="350" y="250"/>
      <point x="590" y="250"/>
      <point x="590" y="250" type="curve"/>
      <point x="590" y="250"/>
      <point x="590" y="1150"/>
      <point x="590" y="1150" type="curve"/>
      <point x="590" y="1150"/>
      <point x="350" y="1150"/>
      <point x="350" y="1150" type="curve"/>
      <point x="350" y="1150"/>
      <point x="350" y="250"/>
    </contour>
    <contour>
      <point x="440" y="1490" type="curve"/>
      <point x="440" y="1490"/>
      <point x="240" y="1750"/>
      <point x="240" y="1750" type="curve"/>
      <point x="240" y="1750"/>
      <point x="460" y="1750"/>
      <point x="460" y="1750" type="curve"/>
      <point x="460" y="1750"/>
      <point x="600" y="1490"/>
      <point x="600" y="1490" type="curve"/>
      <point x="600" y="1490"/>
      <point x="440" y="1490"/>
    </contour>
  </outline>
</glyph>
<glyph name="ocircumflex" format="1">
  <advance width="940"/>
  <unicode hex="00F4"/>
  <outline>
    <contour>
      <point x="840" y="1255" type="curve" smooth="yes"/>
      <point x="840" y="1255"/>
      <point x="840" y="145"/>
      <point x="840" y="145" type="curve" smooth="yes"/>
      <point x="840" y="65"/>
      <point x="775" y="0"/>
      <point x="695" y="0" type="curve" smooth="yes"/>
      <point x="695" y="0"/>
      <point x="245" y="0"/>
      <point x="245" y="0" type="curve" smooth="yes"/>
      <point x="165" y="0"/>
      <point x="100" y="65"/>
      <point x="100" y="145" type="curve" smooth="yes"/>
      <point x="100" y="145"/>
      <point x="100" y="1255"/>
      <point x="100" y="1255" type="curve" smooth="yes"/>
      <point x="100" y="1335"/>
      <point x="165" y="1400"/>
      <point x="245" y="1400" type="curve" smooth="yes"/>
      <point x="245" y="1400"/>
      <point x="695" y="1400"/>
      <point x="695" y="1400" type="curve" smooth="yes"/>
      <point x="775" y="1400"/>
      <point x="840" y="1335"/>
    </contour>
    <contour>
      <point x="350" y="250" type="curve"/>
      <point x="350" y="250"/>
      <point x="590" y="250"/>
      <point x="590" y="250" type="curve"/>
      <point x="590" y="250"/>
      <point x="590" y="1150"/>
      <point x="590" y="1150" type="curve"/>
      <point x="590" y="1150"/>
      <point x="350" y="1150"/>
      <point x="350" y="1150" type="curve"/>
      <point x="350" y="1150"/>
      <point x="350" y="250"/>
    </contour>
    <contour>
      <point x="384" y="1800" type="curve"/>
      <point x="384" y="1800"/>
      <point x="557" y="1800"/>
      <point x="557" y="1800" type="curve"/>
      <point x="557" y="1800"/>
      <point x="741" y="1500"/>
      <point x="741" y="1500" type="curve"/>
      <point x="741" y="1500"/>
      <point x="586" y="1500"/>
      <point x="586" y="1500" type="curve"/>
      <point x="586" y="1500"/>
      <point x="471" y="1682"/>
      <point x="471" y="1682" type="curve"/>
      <point x="471" y="1682"/>
      <point x="355" y="1500"/>
      <point x="355" y="1500" type="curve"/>
      <point x="355" y="1500"/>
      <point x="200" y="1500"/>
      <point x="200" y="1500" type="curve"/>
      <point x="200" y="1500"/>
      <point x="384" y="1800"/>
    </contour>
  </outline>
</glyph>
<glyph name="divide" format="1">
  <advance width="1000"/>
  <unicode hex="00F7"/>
  <outline>
    <contour>
      <point x="385" y="1130" type="line"/>
      <point x="615" y="1130" type="line"/>
      <point x="615" y="900" type="line"/>
      <point x="385" y="900" type="line"/>
    </contour>
    <contour>
      <point x="100" y="810" type="line"/>
      <point x="900" y="810" type="line"/>
      <point x="900" y="590" type="line"/>
      <point x="100" y="590" type="line"/>
    </contour>
    <contour>
      <point x="385" y="500" type="line"/>
      <point x="615" y="500" type="line"/>
      <point x="615" y="270" type="line"/>
      <point x="385" y="270" type="line"/>
    </contour>
  </outline>
</glyph>
<glyph name="oslash" format="1">
  <advance width="940"/>
  <unicode hex="00F8"/>
  <outline>
    <contour>
      <point x="840" y="1255" type="curve" smooth="yes"/>
      <point x="840" y="1255"/>
      <point x="840" y="145"/>
      <point x="840" y="145" type="curve" smooth="yes"/>
      <point x="840" y="65"/>
      <point x="775" y="0"/>
      <point x="695" y="0" type="curve" smooth="yes"/>
      <point x="695" y="0"/>
      <point x="245" y="0"/>
      <point x="245" y="0" type="curve" smooth="yes"/>
      <point x="165" y="0"/>
      <point x="100" y="65"/>
      <point x="100" y="145" type="curve" smooth="yes"/>
      <point x="100" y="145"/>
      <point x="100" y="1255"/>
      <point x="100" y="1255" type="curve" smooth="yes"/>
      <point x="100" y="1335"/>
      <point x="165" y="1400"/>
      <point x="245" y="1400" type="curve" smooth="yes"/>
      <point x="245" y="1400"/>
      <point x="695" y="1400"/>
      <point x="695" y="1400" type="curve" smooth="yes"/>
      <point x="775" y="1400"/>
      <point x="840" y="1335"/>
    </contour>
    <contour>
      <point x="350" y="732" type="curve"/>
      <point x="350" y="732"/>
      <point x="590" y="928"/>
      <point x="590" y="928" type="curve"/>
      <point x="590" y="928"/>
      <point x="590" y="1150"/>
      <point x="590" y="1150" type="curve"/>
      <point x="590" y="1150"/>
      <point x="350" y="1150"/>
      <point x="350" y="1150" type="curve"/>
      <point x="350" y="1150"/>
      <point x="350" y="732"/>
    </contour>
    <contour>
      <point x="350" y="250" type="curve"/>
      <point x="350" y="250"/>
      <point x="590" y="250"/>
      <point x="590" y="250" type="curve"/>
      <point x="590" y="250"/>
      <point x="590" y="658"/>
      <point x="590" y="658" type="curve"/>
      <point x="590" y="658"/>
      <point x="350" y="462"/>
      <point x="350" y="462" type="curve"/>
      <point x="350" y="462"/>
      <point x="350" y="250"/>
    </contour>
  </outline>
</glyph>
<glyph name="ugrave" format="1">
  <advance width="970"/>
  <unicode hex="00F9"/>
  <outline>
    <contour>
      <point x="500" y="1490" type="line"/>
      <point x="300" y="1750" type="line"/>
      <point x="520" y="1750" type="line"/>
      <point x="660" y="1490" type="line"/>
    </contour>
    <contour>
      <point x="350" y="1400" type="line"/>
      <point x="350" y="250" type="line"/>
      <point x="620" y="250" type="line"/>
      <point x="620" y="1400" type="line"/>
      <point x="870" y="1400" type="line"/>
      <point x="870" y="145" type="line" smooth="yes"/>
      <point x="870" y="85"/>
      <point x="785" y="0"/>
      <point x="725" y="0" type="qcurve" smooth="yes"/>
      <point x="245" y="0" type="line" smooth="yes"/>
      <point x="185" y="0"/>
      <point x="100" y="85"/>
      <point x="100" y="145" type="qcurve" smooth="yes"/>
      <point x="100" y="1400" type="line"/>
    </contour>
  </outline>
</glyph>
<glyph name="uacute" format="1">
  <advance width="970"/>
  <unicode hex="00FA"/>
  <outline>
    <contour>
      <point x="725" y="1750" type="line"/>
      <point x="525" y="1490" type="line"/>
      <point x="365" y="1490" type="line"/>
      <point x="505" y="1750" type="line"/>
    </contour>
    <contour>
      <point x="350" y="1400" type="line"/>
      <point x="350" y="250" type="line"/>
      <point x="620" y="250" type="line"/>
      <point x="620" y="1400" type="line"/>
      <point x="870" y="1400" type="line"/>
      <point x="870" y="145" type="line" smooth="yes"/>
      <point x="870" y="85"/>
      <point x="785" y="0"/>
      <point x="725" y="0" type="qcurve" smooth="yes"/>
      <point x="245" y="0" type="line" smooth="yes"/>
      <point x="185" y="0"/>
      <point x="100" y="85"/>
      <point x="100" y="145" type="qcurve" smooth="yes"/>
      <point x="100" y="1400" type="line"/>
    </contour>
  </outline>
</glyph>
<glyph name="yacute" format="1">
  <advance width="920"/>
  <unicode hex="00FD"/>
  <outline>
    <contour>
      <point x="690" y="1750" type="line"/>
      <point x="490" y="1490" type="line"/>
      <point x="330" y="1490" type="line"/>
      <point x="470" y="1750" type="line"/>
    </contour>
    <contour>
      <point x="860" y="1400" type="line"/>
      <point x="585" y="506" type="line"/>
      <point x="585" y="0" type="line"/>
      <point x="335" y="0" type="line"/>
      <point x="335" y="506" type="line"/>
      <point x="60" y="1400" type="line"/>
      <point x="310" y="1400" type="line"/>
      <point x="460" y="810" type="line"/>
      <point x="600" y="1400" type="line"/>
    </contour>
  </outline>
</glyph>
<glyph name="ydieresis" format="1">
  <advance width="920"/>
  <unicode hex="00FF"/>
  <outline>
    <contour>
      <point x="265" y="1700" type="line"/>
      <point x="415" y="1700" type="line"/>
      <point x="415" y="1550" type="line"/>
      <point x="265" y="1550" type="line"/>
    </contour>
    <contour>
      <point x="505" y="1700" type="line"/>
      <point x="655" y="1700" type="line"/>
      <point x="655" y="1550" type="line"/>
      <point x="505" y="1550" type="line"/>
    </contour>
    <contour>
      <point x="860" y="1400" type="line"/>
      <point x="585" y="506" type="line"/>
      <point x="585" y="0" type="line"/>
      <point x="335" y="0" type="line"/>
      <point x="335" y="506" type="line"/>
      <point x="60" y="1400" type="line"/>
      <point x="310" y="1400" type="line"/>
      <point x="460" y="810" type="line"/>
      <point x="600" y="1400" type="line"/>
    </contour>
  </outline>
</glyph>
<glyph name="Amacron" format="1">
  <advance width="940"/>
  <unicode hex="0100"/>
  <outline>
    <contour>
      <point x="250" y="1640" type="line"/>
      <point x="690" y="1640" type="line"/>
      <point x="690" y="1530" type="line"/>
      <point x="250" y="1530" type="line"/>
    </contour>
    <contour>
      <point x="230" y="0" type="line"/>
      <point x="0" y="0" type="line"/>
      <point x="350" y="1400" type="line"/>
      <point x="590" y="1400" type="line"/>
      <point x="940" y="0" type="line"/>
      <point x="710" y="0" type="line"/>
      <point x="644" y="260" type="line"/>
      <point x="296" y="260" type="line"/>
    </contour>
    <contour>
      <point x="349" y="470" type="line"/>
      <point x="591" y="470" type="line"/>
      <point x="470" y="945" type="line"/>
    </contour>
  </outline>
</glyph>
<glyph name="Abreve" format="1">
  <advance width="940"/>
  <unicode hex="0102"/>
  <outline>
    <contour>
      <point x="470" y="1504" type="qcurve" smooth="yes"/>
      <point x="398" y="1504"/>
      <point x="285" y="1598"/>
      <point x="274" y="1667" type="qcurve"/>
      <point x="385" y="1700" type="line"/>
      <point x="385" y="1667"/>
      <point x="437" y="1619"/>
      <point x="470" y="1619" type="qcurve" smooth="yes"/>
      <point x="503" y="1619"/>
      <point x="555" y="1667"/>
      <point x="555" y="1700" type="qcurve"/>
      <point x="666" y="1667" type="line"/>
      <point x="655" y="1598"/>
      <point x="542" y="1504"/>
    </contour>
    <contour>
      <point x="230" y="0" type="line"/>
      <point x="0" y="0" type="line"/>
      <point x="350" y="1400" type="line"/>
      <point x="590" y="1400" type="line"/>
      <point x="940" y="0" type="line"/>
      <point x="710" y="0" type="line"/>
      <point x="644" y="260" type="line"/>
      <point x="296" y="260" type="line"/>
    </contour>
    <contour>
      <point x="349" y="470" type="line"/>
      <point x="591" y="470" type="line"/>
      <point x="470" y="945" type="line"/>
    </contour>
  </outline>
</glyph>
<glyph name="Aogonek" format="1">
  <advance width="940"/>
  <unicode hex="0104"/>
  <outline>
    <contour>
      <point x="230" y="0" type="line"/>
      <point x="80" y="-153" type="line"/>
      <point x="80" y="-167" type="line" smooth="yes"/>
      <point x="80" y="-193"/>
      <point x="116" y="-230"/>
      <point x="142" y="-230" type="qcurve" smooth="yes"/>
      <point x="277" y="-230" type="line" smooth="yes"/>
      <point x="303" y="-230"/>
      <point x="340" y="-193"/>
      <point x="340" y="-167" type="qcurve" smooth="yes"/>
      <point x="340" y="-155" type="line"/>
      <point x="500" y="-155" type="line"/>
      <point x="500" y="-230" type="line" smooth="yes"/>
      <point x="500" y="-296"/>
      <point x="406" y="-390"/>
      <point x="340" y="-390" type="qcurve" smooth="yes"/>
      <point x="80" y="-390" type="line" smooth="yes"/>
      <point x="14" y="-390"/>
      <point x="-80" y="-296"/>
      <point x="-80" y="-230" type="qcurve" smooth="yes"/>
      <point x="-80" y="-80" type="line"/>
      <point x="0" y="0" type="line"/>
      <point x="350" y="1400" type="line"/>
      <point x="590" y="1400" type="line"/>
      <point x="940" y="0" type="line"/>
      <point x="710" y="0" type="line"/>
      <point x="644" y="260" type="line"/>
      <point x="296" y="260" type="line"/>
    </contour>
    <contour>
      <point x="349" y="470" type="line"/>
      <point x="591" y="470" type="line"/>
      <point x="470" y="945" type="line"/>
    </contour>
  </outline>
</glyph>
<glyph name="Cacute" format="1">
  <advance width="910"/>
  <unicode hex="0106"/>
  <outline>
    <contour>
      <point x="700" y="1750" type="line"/>
      <point x="500" y="1490" type="line"/>
      <point x="340" y="1490" type="line"/>
      <point x="480" y="1750" type="line"/>
    </contour>
    <contour>
      <point x="100" y="145" type="qcurve" smooth="yes"/>
      <point x="100" y="1255" type="line" smooth="yes"/>
      <point x="100" y="1315"/>
      <point x="185" y="1400"/>
      <point x="245" y="1400" type="qcurve" smooth="yes"/>
      <point x="665" y="1400" type="line" smooth="yes"/>
      <point x="725" y="1400"/>
      <point x="810" y="1315"/>
      <point x="810" y="1255" type="qcurve" smooth="yes"/>
      <point x="810" y="955" type="line"/>
      <point x="560" y="955" type="line"/>
      <point x="560" y="1143" type="line"/>
      <point x="360" y="1143" type="line"/>
      <point x="360" y="260" type="line"/>
      <point x="560" y="260" type="line"/>
      <point x="560" y="445" type="line"/>
      <point x="810" y="445" type="line"/>
      <point x="810" y="145" type="line" smooth="yes"/>
      <point x="810" y="86"/>
      <point x="726" y="0"/>
      <point x="667" y="0" type="qcurve" smooth="yes"/>
      <point x="245" y="0" type="line" smooth="yes"/>
      <point x="185" y="0"/>
      <point x="100" y="85"/>
    </contour>
  </outline>
</glyph>
<glyph name="Dcaron" format="1">
  <advance width="890"/>
  <unicode hex="010E"/>
  <outline>
    <contour>
      <point x="359" y="1500" type="line"/>
      <point x="175" y="1800" type="line"/>
      <point x="330" y="1800" type="line"/>
      <point x="446" y="1618" type="line"/>
      <point x="561" y="1800" type="line"/>
      <point x="716" y="1800" type="line"/>
      <point x="532" y="1500" type="line"/>
    </contour>
    <contour>
      <point x="100" y="0" type="line"/>
      <point x="100" y="1400" type="line"/>
      <point x="630" y="1400" type="line" smooth="yes"/>
      <point x="696" y="1400"/>
      <point x="790" y="1306"/>
      <point x="790" y="1240" type="qcurve" smooth="yes"/>
      <point x="790" y="160" type="line" smooth="yes"/>
      <point x="790" y="94"/>
      <point x="696" y="0"/>
      <point x="630" y="0" type="qcurve" smooth="yes"/>
    </contour>
    <contour>
      <point x="350" y="230" type="line"/>
      <point x="529" y="230" type="line" smooth="yes"/>
      <point x="550" y="230"/>
      <point x="550" y="251" type="qcurve" smooth="yes"/>
      <point x="550" y="1149" type="line" smooth="yes"/>
      <point x="550" y="1170"/>
      <point x="529" y="1170" type="qcurve" smooth="yes"/>
      <point x="350" y="1170" type="line"/>
    </contour>
  </outline>
</glyph>
<glyph name="Dcroat" format="1">
  <advance width="890"/>
  <unicode hex="0110"/>
  <outline>
    <contour>
      <point x="100" y="0" type="line"/>
      <point x="100" y="645" type="line"/>
      <point x="60" y="645" type="line"/>
      <point x="60" y="755" type="line"/>
      <point x="100" y="755" type="line"/>
      <point x="100" y="1400" type="line"/>
      <point x="630" y="1400" type="line" smooth="yes"/>
      <point x="696" y="1400"/>
      <point x="790" y="1306"/>
      <point x="790" y="1240" type="qcurve" smooth="yes"/>
      <point x="790" y="160" type="line" smooth="yes"/>
      <point x="790" y="94"/>
      <point x="696" y="0"/>
      <point x="630" y="0" type="qcurve" smooth="yes"/>
    </contour>
    <contour>
      <point x="350" y="645" type="line"/>
      <point x="350" y="230" type="line"/>
      <point x="529" y="230" type="line" smooth="yes"/>
      <point x="550" y="230"/>
      <point x="550" y="251" type="qcurve" smooth="yes"/>
      <point x="550" y="1149" type="line" smooth="yes"/>
      <point x="550" y="1170"/>
      <point x="529" y="1170" type="qcurve" smooth="yes"/>
      <point x="350" y="1170" type="line"/>
      <point x="350" y="755" type="line"/>
      <point x="500" y="755" type="line"/>
      <point x="500" y="645" type="line"/>
    </contour>
  </outline>
</glyph>
<glyph name="Emacron" format="1">
  <advance width="912"/>
  <unicode hex="0112"/>
  <outline>
    <contour>
      <point x="236" y="1640" type="line"/>
      <point x="676" y="1640" type="line"/>
      <point x="676" y="1530" type="line"/>
      <point x="236" y="1530" type="line"/>
    </contour>
    <contour>
      <point x="100" y="0" type="line"/>
      <point x="100" y="1400" type="line"/>
      <point x="810" y="1400" type="line"/>
      <point x="810" y="1170" type="line"/>
      <point x="350" y="1170" type="line"/>
      <point x="350" y="820" type="line"/>
      <point x="730" y="820" type="line"/>
      <point x="730" y="580" type="line"/>
      <point x="350" y="580" type="line"/>
      <point x="350" y="240" type="line"/>
      <point x="812" y="240" type="line"/>
      <point x="812" y="0" type="line"/>
    </contour>
  </outline>
</glyph>
<glyph name="emacron" format="1">
  <advance width="912"/>
  <unicode hex="0113"/>
  <outline>
    <contour>
      <point x="100" y="0" type="curve"/>
      <point x="100" y="0"/>
      <point x="100" y="1400"/>
      <point x="100" y="1400" type="curve"/>
      <point x="100" y="1400"/>
      <point x="810" y="1400"/>
      <point x="810" y="1400" type="curve"/>
      <point x="810" y="1400"/>
      <point x="810" y="1170"/>
      <point x="810" y="1170" type="curve"/>
      <point x="810" y="1170"/>
      <point x="350" y="1170"/>
      <point x="350" y="1170" type="curve"/>
      <point x="350" y="1170"/>
      <point x="350" y="820"/>
      <point x="350" y="820" type="curve"/>
      <point x="350" y="820"/>
      <point x="730" y="820"/>
      <point x="730" y="820" type="curve"/>
      <point x="730" y="820"/>
      <point x="730" y="580"/>
      <point x="730" y="580" type="curve"/>
      <point x="730" y="580"/>
      <point x="350" y="580"/>
      <point x="350" y="580" type="curve"/>
      <point x="350" y="580"/>
      <point x="350" y="240"/>
      <point x="350" y="240" type="curve"/>
      <point x="350" y="240"/>
      <point x="812" y="240"/>
      <point x="812" y="240" type="curve"/>
      <point x="812" y="240"/>
      <point x="812" y="0"/>
      <point x="812" y="0" type="curve"/>
      <point x="812" y="0"/>
      <point x="100" y="0"/>
    </contour>
    <contour>
      <point x="236" y="1640" type="curve"/>
      <point x="236" y="1640"/>
      <point x="676" y="1640"/>
      <point x="676" y="1640" type="curve"/>
      <point x="676" y="1640"/>
      <point x="676" y="1530"/>
      <point x="676" y="1530" type="curve"/>
      <point x="676" y="1530"/>
      <point x="236" y="1530"/>
      <point x="236" y="1530" type="curve"/>
      <point x="236" y="1530"/>
      <point x="236" y="1640"/>
    </contour>
  </outline>
</glyph>
<glyph name="Ebreve" format="1">
  <advance width="912"/>
  <unicode hex="0114"/>
  <outline>
    <contour>
      <point x="456" y="1504" type="qcurve" smooth="yes"/>
      <point x="384" y="1504"/>
      <point x="271" y="1598"/>
      <point x="260" y="1667" type="qcurve"/>
      <point x="371" y="1700" type="line"/>
      <point x="371" y="1667"/>
      <point x="423" y="1619"/>
      <point x="456" y="1619" type="qcurve" smooth="yes"/>
      <point x="489" y="1619"/>
      <point x="541" y="1667"/>
      <point x="541" y="1700" type="qcurve"/>
      <point x="652" y="1667" type="line"/>
      <point x="641" y="1598"/>
      <point x="528" y="1504"/>
    </contour>
    <contour>
      <point x="100" y="0" type="line"/>
      <point x="100" y="1400" type="line"/>
      <point x="810" y="1400" type="line"/>
      <point x="810" y="1170" type="line"/>
      <point x="350" y="1170" type="line"/>
      <point x="350" y="820" type="line"/>
      <point x="730" y="820" type="line"/>
      <point x="730" y="580" type="line"/>
      <point x="350" y="580" type="line"/>
      <point x="350" y="240" type="line"/>
      <point x="812" y="240" type="line"/>
      <point x="812" y="0" type="line"/>
    </contour>
  </outline>
</glyph>
<glyph name="ebreve" format="1">
  <advance width="912"/>
  <unicode hex="0115"/>
  <outline>
    <contour>
      <point x="100" y="0" type="curve"/>
      <point x="100" y="0"/>
      <point x="100" y="1400"/>
      <point x="100" y="1400" type="curve"/>
      <point x="100" y="1400"/>
      <point x="810" y="1400"/>
      <point x="810" y="1400" type="curve"/>
      <point x="810" y="1400"/>
      <point x="810" y="1170"/>
      <point x="810" y="1170" type="curve"/>
      <point x="810" y="1170"/>
      <point x="350" y="1170"/>
      <point x="350" y="1170" type="curve"/>
      <point x="350" y="1170"/>
      <point x="350" y="820"/>
      <point x="350" y="820" type="curve"/>
      <point x="350" y="820"/>
      <point x="730" y="820"/>
      <point x="730" y="820" type="curve"/>
      <point x="730" y="820"/>
      <point x="730" y="580"/>
      <point x="730" y="580" type="curve"/>
      <point x="730" y="580"/>
      <point x="350" y="580"/>
      <point x="350" y="580" type="curve"/>
      <point x="350" y="580"/>
      <point x="350" y="240"/>
      <point x="350" y="240" type="curve"/>
      <point x="350" y="240"/>
      <point x="812" y="240"/>
      <point x="812" y="240" type="curve"/>
      <point x="812" y="240"/>
      <point x="812" y="0"/>
      <point x="812" y="0" type="curve"/>
      <point x="812" y="0"/>
      <point x="100" y="0"/>
    </contour>
    <contour>
      <point x="456" y="1504" type="curve" smooth="yes"/>
      <point x="360" y="1504"/>
      <point x="275" y="1575"/>
      <point x="260" y="1667" type="curve"/>
      <point x="260" y="1667"/>
      <point x="371" y="1700"/>
      <point x="371" y="1700" type="curve"/>
      <point x="371" y="1656"/>
      <point x="412" y="1619"/>
      <point x="456" y="1619" type="curve" smooth="yes"/>
      <point x="500" y="1619"/>
      <point x="541" y="1656"/>
      <point x="541" y="1700" type="curve"/>
      <point x="541" y="1700"/>
      <point x="652" y="1667"/>
      <point x="652" y="1667" type="curve"/>
      <point x="637" y="1575"/>
      <point x="552" y="1504"/>
    </contour>
  </outline>
</glyph>
<glyph name="Edotaccent" format="1">
  <advance width="912"/>
  <unicode hex="0116"/>
  <outline>
    <contour>
      <point x="380" y="1700" type="line"/>
      <point x="530" y="1700" type="line"/>
      <point x="530" y="1550" type="line"/>
      <point x="380" y="1550" type="line"/>
    </contour>
    <contour>
      <point x="100" y="0" type="line"/>
      <point x="100" y="1400" type="line"/>
      <point x="810" y="1400" type="line"/>
      <point x="810" y="1170" type="line"/>
      <point x="350" y="1170" type="line"/>
      <point x="350" y="820" type="line"/>
      <point x="730" y="820" type="line"/>
      <point x="730" y="580" type="line"/>
      <point x="350" y="580" type="line"/>
      <point x="350" y="240" type="line"/>
      <point x="812" y="240" type="line"/>
      <point x="812" y="0" type="line"/>
    </contour>
  </outline>
</glyph>
<glyph name="eogonek" format="1">
  <advance width="912"/>
  <unicode hex="0119"/>
  <outline>
    <contour>
      <point x="542" y="0" type="line"/>
      <point x="392" y="-153" type="line"/>
      <point x="392" y="-167" type="line" smooth="yes"/>
      <point x="392" y="-193"/>
      <point x="428" y="-230"/>
      <point x="454" y="-230" type="qcurve" smooth="yes"/>
      <point x="589" y="-230" type="line" smooth="yes"/>
      <point x="615" y="-230"/>
      <point x="652" y="-193"/>
      <point x="652" y="-167" type="qcurve" smooth="yes"/>
      <point x="652" y="-155" type="line"/>
      <point x="812" y="-155" type="line"/>
      <point x="812" y="-230" type="line" smooth="yes"/>
      <point x="812" y="-296"/>
      <point x="718" y="-390"/>
      <point x="652" y="-390" type="qcurve" smooth="yes"/>
      <point x="392" y="-390" type="line" smooth="yes"/>
      <point x="326" y="-390"/>
      <point x="232" y="-296"/>
      <point x="232" y="-230" type="qcurve" smooth="yes"/>
      <point x="232" y="-80" type="line"/>
      <point x="312" y="0" type="line"/>
      <point x="100" y="0" type="line"/>
      <point x="100" y="1400" type="line"/>
      <point x="810" y="1400" type="line"/>
      <point x="810" y="1170" type="line"/>
      <point x="350" y="1170" type="line"/>
      <point x="350" y="820" type="line"/>
      <point x="730" y="820" type="line"/>
      <point x="730" y="580" type="line"/>
      <point x="350" y="580" type="line"/>
      <point x="350" y="240" type="line"/>
      <point x="812" y="240" type="line"/>
      <point x="812" y="0" type="line"/>
    </contour>
  </outline>
</glyph>
<glyph name="ecaron" format="1">
  <advance width="912"/>
  <unicode hex="011B"/>
  <outline>
    <contour>
      <point x="369" y="1500" type="line"/>
      <point x="185" y="1800" type="line"/>
      <point x="340" y="1800" type="line"/>
      <point x="456" y="1618" type="line"/>
      <point x="571" y="1800" type="line"/>
      <point x="726" y="1800" type="line"/>
      <point x="542" y="1500" type="line"/>
    </contour>
    <contour>
      <point x="100" y="0" type="line"/>
      <point x="100" y="1400" type="line"/>
      <point x="810" y="1400" type="line"/>
      <point x="810" y="1170" type="line"/>
      <point x="350" y="1170" type="line"/>
      <point x="350" y="820" type="line"/>
      <point x="730" y="820" type="line"/>
      <point x="730" y="580" type="line"/>
      <point x="350" y="580" type="line"/>
      <point x="350" y="240" type="line"/>
      <point x="812" y="240" type="line"/>
      <point x="812" y="0" type="line"/>
    </contour>
  </outline>
</glyph>
<glyph name="Gcircumflex" format="1">
  <advance width="932"/>
  <unicode hex="011C"/>
  <outline>
    <contour>
      <point x="100" y="145" type="curve" smooth="yes"/>
      <point x="100" y="145"/>
      <point x="100" y="1255"/>
      <point x="100" y="1255" type="curve" smooth="yes"/>
      <point x="100" y="1335"/>
      <point x="165" y="1400"/>
      <point x="245" y="1400" type="curve" smooth="yes"/>
      <point x="245" y="1400"/>
      <point x="685" y="1400"/>
      <point x="685" y="1400" type="curve" smooth="yes"/>
      <point x="765" y="1400"/>
      <point x="830" y="1335"/>
      <point x="830" y="1255" type="curve" smooth="yes"/>
      <point x="830" y="1255"/>
      <point x="830" y="955"/>
      <point x="830" y="955" type="curve"/>
      <point x="830" y="955"/>
      <point x="600" y="955"/>
      <point x="600" y="955" type="curve"/>
      <point x="600" y="955"/>
      <point x="600" y="1152"/>
      <point x="600" y="1152" type="curve"/>
      <point x="600" y="1152"/>
      <point x="350" y="1152"/>
      <point x="350" y="1152" type="curve"/>
      <point x="350" y="1152"/>
      <point x="350" y="248"/>
      <point x="350" y="248" type="curve"/>
      <point x="350" y="248"/>
      <point x="537" y="248"/>
      <point x="537" y="248" type="curve" smooth="yes"/>
      <point x="572" y="248"/>
      <point x="600" y="276"/>
      <point x="600" y="311" type="curve" smooth="yes"/>
      <point x="600" y="311"/>
      <point x="600" y="470"/>
      <point x="600" y="470" type="curve"/>
      <point x="600" y="470"/>
      <point x="480" y="470"/>
      <point x="480" y="470" type="curve"/>
      <point x="480" y="470"/>
      <point x="480" y="700"/>
      <point x="480" y="700" type="curve"/>
      <point x="480" y="700"/>
      <point x="830" y="700"/>
      <point x="830" y="700" type="curve"/>
      <point x="830" y="700"/>
      <point x="830" y="144"/>
      <point x="830" y="144" type="curve" smooth="yes"/>
      <point x="830" y="89"/>
      <point x="859" y="42"/>
      <point x="904" y="18" type="curve" smooth="yes"/>
      <point x="907" y="16"/>
      <point x="912" y="14"/>
      <point x="912" y="8" type="curve" smooth="yes"/>
      <point x="912" y="2"/>
      <point x="909" y="0"/>
      <point x="904" y="0" type="curve" smooth="yes"/>
      <point x="904" y="0"/>
      <point x="826" y="0"/>
      <point x="826" y="0" type="curve" smooth="yes"/>
      <point x="746" y="0"/>
      <point x="681" y="66"/>
      <point x="680" y="148" type="curve"/>
      <point x="680" y="148"/>
      <point x="678" y="148"/>
      <point x="678" y="148" type="curve"/>
      <point x="678" y="148"/>
      <point x="678" y="140"/>
      <point x="678" y="140" type="curve" smooth="yes"/>
      <point x="678" y="62"/>
      <point x="614" y="0"/>
      <point x="536" y="0" type="curve" smooth="yes"/>
      <point x="526" y="0"/>
      <point x="245" y="0"/>
      <point x="245" y="0" type="curve" smooth="yes"/>
      <point x="165" y="0"/>
      <point x="100" y="65"/>
    </contour>
    <contour>
      <point x="374" y="1800" type="curve"/>
      <point x="374" y="1800"/>
      <point x="547" y="1800"/>
      <point x="547" y="1800" type="curve"/>
      <point x="547" y="1800"/>
      <point x="731" y="1500"/>
      <point x="731" y="1500" type="curve"/>
      <point x="731" y="1500"/>
      <point x="576" y="1500"/>
      <point x="576" y="1500" type="curve"/>
      <point x="576" y="1500"/>
      <point x="461" y="1682"/>
      <point x="461" y="1682" type="curve"/>
      <point x="461" y="1682"/>
      <point x="345" y="1500"/>
      <point x="345" y="1500" type="curve"/>
      <point x="345" y="1500"/>
      <point x="190" y="1500"/>
      <point x="190" y="1500" type="curve"/>
      <point x="190" y="1500"/>
      <point x="374" y="1800"/>
    </contour>
  </outline>
</glyph>
<glyph name="gbreve" format="1">
  <advance width="932"/>
  <unicode hex="011F"/>
  <outline>
    <contour>
      <point x="466" y="1504" type="qcurve" smooth="yes"/>
      <point x="394" y="1504"/>
      <point x="281" y="1598"/>
      <point x="270" y="1667" type="qcurve"/>
      <point x="381" y="1700" type="line"/>
      <point x="381" y="1667"/>
      <point x="433" y="1619"/>
      <point x="466" y="1619" type="qcurve" smooth="yes"/>
      <point x="499" y="1619"/>
      <point x="551" y="1667"/>
      <point x="551" y="1700" type="qcurve"/>
      <point x="662" y="1667" type="line"/>
      <point x="651" y="1598"/>
      <point x="538" y="1504"/>
    </contour>
    <contour>
      <point x="100" y="145" type="qcurve" smooth="yes"/>
      <point x="100" y="1255" type="line" smooth="yes"/>
      <point x="100" y="1315"/>
      <point x="185" y="1400"/>
      <point x="245" y="1400" type="qcurve" smooth="yes"/>
      <point x="685" y="1400" type="line" smooth="yes"/>
      <point x="745" y="1400"/>
      <point x="830" y="1315"/>
      <point x="830" y="1255" type="qcurve" smooth="yes"/>
      <point x="830" y="955" type="line"/>
      <point x="600" y="955" type="line"/>
      <point x="600" y="1152" type="line"/>
      <point x="350" y="1152" type="line"/>
      <point x="350" y="248" type="line"/>
      <point x="537" y="248" type="line" smooth="yes"/>
      <point x="563" y="248"/>
      <point x="600" y="285"/>
      <point x="600" y="311" type="qcurve" smooth="yes"/>
      <point x="600" y="470" type="line"/>
      <point x="480" y="470" type="line"/>
      <point x="480" y="700" type="line"/>
      <point x="830" y="700" type="line"/>
      <point x="830" y="144" type="line" smooth="yes"/>
      <point x="830" y="57"/>
      <point x="904" y="18" type="qcurve" smooth="yes"/>
      <point x="912" y="13"/>
      <point x="912" y="8" type="qcurve" smooth="yes"/>
      <point x="912" y="0"/>
      <point x="904" y="0" type="qcurve" smooth="yes"/>
      <point x="826" y="0" type="line" smooth="yes"/>
      <point x="766" y="0"/>
      <point x="681" y="87"/>
      <point x="680" y="148" type="qcurve"/>
      <point x="678" y="148" type="line"/>
      <point x="678" y="140" type="line" smooth="yes"/>
      <point x="678" y="82"/>
      <point x="595" y="0"/>
      <point x="536" y="0" type="qcurve" smooth="yes"/>
      <point x="245" y="0" type="line" smooth="yes"/>
      <point x="185" y="0"/>
      <point x="100" y="85"/>
    </contour>
  </outline>
</glyph>
<glyph name="uni0122" format="1">
  <advance width="932"/>
  <unicode hex="0122"/>
  <outline>
    <contour>
      <point x="470" y="-150" type="line"/>
      <point x="324" y="0" type="line"/>
      <point x="245" y="0" type="line" smooth="yes"/>
      <point x="185" y="0"/>
      <point x="100" y="85"/>
      <point x="100" y="145" type="qcurve" smooth="yes"/>
      <point x="100" y="1255" type="line" smooth="yes"/>
      <point x="100" y="1315"/>
      <point x="185" y="1400"/>
      <point x="245" y="1400" type="qcurve" smooth="yes"/>
      <point x="685" y="1400" type="line" smooth="yes"/>
      <point x="745" y="1400"/>
      <point x="830" y="1315"/>
      <point x="830" y="1255" type="qcurve" smooth="yes"/>
      <point x="830" y="955" type="line"/>
      <point x="600" y="955" type="line"/>
      <point x="600" y="1152" type="line"/>
      <point x="350" y="1152" type="line"/>
      <point x="350" y="248" type="line"/>
      <point x="537" y="248" type="line" smooth="yes"/>
      <point x="563" y="248"/>
      <point x="600" y="285"/>
      <point x="600" y="311" type="qcurve" smooth="yes"/>
      <point x="600" y="470" type="line"/>
      <point x="480" y="470" type="line"/>
      <point x="480" y="700" type="line"/>
      <point x="830" y="700" type="line"/>
      <point x="830" y="144" type="line" smooth="yes"/>
      <point x="830" y="57"/>
      <point x="904" y="18" type="qcurve" smooth="yes"/>
      <point x="912" y="13"/>
      <point x="912" y="8" type="qcurve" smooth="yes"/>
      <point x="912" y="0"/>
      <point x="904" y="0" type="qcurve" smooth="yes"/>
      <point x="826" y="0" type="line" smooth="yes"/>
      <point x="766" y="0"/>
      <point x="681" y="87"/>
      <point x="680" y="148" type="qcurve"/>
      <point x="678" y="148" type="line"/>
      <point x="678" y="140" type="line" smooth="yes"/>
      <point x="678" y="85"/>
      <point x="603" y="5"/>
      <point x="549" y="0" type="qcurve"/>
      <point x="630" y="-80" type="line"/>
      <point x="630" y="-230" type="line" smooth="yes"/>
      <point x="630" y="-296"/>
      <point x="536" y="-390"/>
      <point x="470" y="-390" type="qcurve" smooth="yes"/>
      <point x="210" y="-390" type="line" smooth="yes"/>
      <point x="144" y="-390"/>
      <point x="50" y="-296"/>
      <point x="50" y="-230" type="qcurve" smooth="yes"/>
      <point x="50" y="-155" type="line"/>
      <point x="210" y="-155" type="line"/>
      <point x="210" y="-167" type="line" smooth="yes"/>
      <point x="210" y="-193"/>
      <point x="247" y="-230"/>
      <point x="273" y="-230" type="qcurve" smooth="yes"/>
      <point x="408" y="-230" type="line" smooth="yes"/>
      <point x="434" y="-230"/>
      <point x="470" y="-193"/>
      <point x="470" y="-167" type="qcurve" smooth="yes"/>
    </contour>
  </outline>
</glyph>
<glyph name="Hcircumflex" format="1">
  <advance width="970"/>
  <unicode hex="0124"/>
  <outline>
    <contour>
      <point x="399" y="1800" type="line"/>
      <point x="572" y="1800" type="line"/>
      <point x="756" y="1500" type="line"/>
      <point x="601" y="1500" type="line"/>
      <point x="486" y="1682" type="line"/>
      <point x="370" y="1500" type="line"/>
      <point x="215" y="1500" type="line"/>
    </contour>
    <contour>
      <point x="350" y="0" type="line"/>
      <point x="100" y="0" type="line"/>
      <point x="100" y="1400" type="line"/>
      <point x="350" y="1400" type="line"/>
      <point x="350" y="810" type="line"/>
      <point x="620" y="810" type="line"/>
      <point x="620" y="1400" type="line"/>
      <point x="870" y="1400" type="line"/>
      <point x="870" y="0" type="line"/>
      <point x="620" y="0" type="line"/>
      <point x="620" y="570" type="line"/>
      <point x="350" y="570" type="line"/>
    </contour>
  </outline>
</glyph>
<glyph name="hbar" format="1">
  <advance width="990"/>
  <unicode hex="0127"/>
  <outline>
    <contour>
      <point x="350" y="0" type="line"/>
      <point x="100" y="0" type="line"/>
      <point x="100" y="940" type="line"/>
      <point x="20" y="940" type="line"/>
      <point x="20" y="1050" type="line"/>
      <point x="100" y="1050" type="line"/>
      <point x="100" y="1400" type="line"/>
      <point x="350" y="1400" type="line"/>
      <point x="350" y="1050" type="line"/>
      <point x="620" y="1050" type="line"/>
      <point x="620" y="1400" type="line"/>
      <point x="870" y="1400" type="line"/>
      <point x="870" y="1050" type="line"/>
      <point x="970" y="1050" type="line"/>
      <point x="970" y="940" type="line"/>
      <point x="870" y="940" type="line"/>
      <point x="870" y="0" type="line"/>
      <point x="620" y="0" type="line"/>
      <point x="620" y="570" type="line"/>
      <point x="350" y="570" type="line"/>
    </contour>
    <contour>
      <point x="620" y="940" type="line"/>
      <point x="350" y="940" type="line"/>
      <point x="350" y="810" type="line"/>
      <point x="620" y="810" type="line"/>
    </contour>
  </outline>
</glyph>
<glyph name="Itilde" format="1">
  <advance width="702"/>
  <unicode hex="0128"/>
  <outline>
    <contour>
      <point x="388" y="1653" type="qcurve"/>
      <point x="477" y="1626" type="line"/>
      <point x="467" y="1571"/>
      <point x="377" y="1496"/>
      <point x="320" y="1496" type="qcurve" smooth="yes"/>
      <point x="271" y="1496"/>
      <point x="195" y="1550"/>
      <point x="178" y="1593" type="qcurve"/>
      <point x="159" y="1619"/>
      <point x="132" y="1619" type="qcurve" smooth="yes"/>
      <point x="106" y="1619"/>
      <point x="64" y="1580"/>
      <point x="64" y="1553" type="qcurve"/>
      <point x="-25" y="1580" type="line"/>
      <point x="-16" y="1635"/>
      <point x="74" y="1710"/>
      <point x="132" y="1710" type="qcurve" smooth="yes"/>
      <point x="181" y="1710"/>
      <point x="257" y="1657"/>
      <point x="273" y="1613" type="qcurve"/>
      <point x="282" y="1602"/>
      <point x="304" y="1587"/>
      <point x="320" y="1587" type="qcurve" smooth="yes"/>
      <point x="346" y="1587"/>
      <point x="388" y="1626"/>
    </contour>
    <contour>
      <point x="100" y="1400" type="line"/>
      <point x="350" y="1400" type="line"/>
      <point x="350" y="0" type="line"/>
      <point x="100" y="0" type="line"/>
    </contour>
  </outline>
</glyph>
<glyph name="itilde" format="1">
  <advance width="702"/>
  <unicode hex="0129"/>
  <outline>
    <contour>
      <point x="225" y="1400" type="curve"/>
      <point x="225" y="1400"/>
      <point x="475" y="1400"/>
      <point x="475" y="1400" type="curve"/>
      <point x="475" y="1400"/>
      <point x="475" y="0"/>
      <point x="475" y="0" type="curve"/>
      <point x="475" y="0"/>
      <point x="225" y="0"/>
      <point x="225" y="0" type="curve"/>
      <point x="225" y="0"/>
      <point x="225" y="1400"/>
    </contour>
    <contour>
      <point x="513" y="1653" type="curve"/>
      <point x="513" y="1653"/>
      <point x="602" y="1626"/>
      <point x="602" y="1626" type="curve"/>
      <point x="589" y="1553"/>
      <point x="521" y="1496"/>
      <point x="445" y="1496" type="curve" smooth="yes"/>
      <point x="379" y="1496"/>
      <point x="325" y="1535"/>
      <point x="303" y="1593" type="curve"/>
      <point x="292" y="1608"/>
      <point x="277" y="1619"/>
      <point x="257" y="1619" type="curve" smooth="yes"/>
      <point x="222" y="1619"/>
      <point x="189" y="1589"/>
      <point x="189" y="1553" type="curve"/>
      <point x="189" y="1553"/>
      <point x="100" y="1580"/>
      <point x="100" y="1580" type="curve"/>
      <point x="112" y="1653"/>
      <point x="180" y="1710"/>
      <point x="257" y="1710" type="curve" smooth="yes"/>
      <point x="322" y="1710"/>
      <point x="377" y="1671"/>
      <point x="398" y="1613" type="curve"/>
      <point x="410" y="1598"/>
      <point x="424" y="1587"/>
      <point x="445" y="1587" type="curve" smooth="yes"/>
      <point x="480" y="1587"/>
      <point x="513" y="1617"/>
    </contour>
  </outline>
</glyph>
<glyph name="Imacron" format="1">
  <advance width="645"/>
  <unicode hex="012A"/>
  <outline>
    <contour>
      <point x="100" y="1400" type="curve"/>
      <point x="100" y="1400"/>
      <point x="350" y="1400"/>
      <point x="350" y="1400" type="curve"/>
      <point x="350" y="1400"/>
      <point x="350" y="0"/>
      <point x="350" y="0" type="curve"/>
      <point x="350" y="0"/>
      <point x="100" y="0"/>
      <point x="100" y="0" type="curve"/>
      <point x="100" y="0"/>
      <point x="100" y="1400"/>
    </contour>
    <contour>
      <point x="5" y="1640" type="curve"/>
      <point x="5" y="1640"/>
      <point x="445" y="1640"/>
      <point x="445" y="1640" type="curve"/>
      <point x="445" y="1640"/>
      <point x="445" y="1530"/>
      <point x="445" y="1530" type="curve"/>
      <point x="445" y="1530"/>
      <point x="5" y="1530"/>
      <point x="5" y="1530" type="curve"/>
      <point x="5" y="1530"/>
      <point x="5" y="1640"/>
    </contour>
  </outline>
</glyph>
<glyph name="imacron" format="1">
  <advance width="645"/>
  <unicode hex="012B"/>
  <outline>
    <contour>
      <point x="200" y="1400" type="curve"/>
      <point x="200" y="1400"/>
      <point x="450" y="1400"/>
      <point x="450" y="1400" type="curve"/>
      <point x="450" y="1400"/>
      <point x="450" y="0"/>
      <point x="450" y="0" type="curve"/>
      <point x="450" y="0"/>
      <point x="200" y="0"/>
      <point x="200" y="0" type="curve"/>
      <point x="200" y="0"/>
      <point x="200" y="1400"/>
    </contour>
    <contour>
      <point x="105" y="1640" type="curve"/>
      <point x="105" y="1640"/>
      <point x="545" y="1640"/>
      <point x="545" y="1640" type="curve"/>
      <point x="545" y="1640"/>
      <point x="545" y="1530"/>
      <point x="545" y="1530" type="curve"/>
      <point x="545" y="1530"/>
      <point x="105" y="1530"/>
      <point x="105" y="1530" type="curve"/>
      <point x="105" y="1530"/>
      <point x="105" y="1640"/>
    </contour>
  </outline>
</glyph>
<glyph name="Ibreve" format="1">
  <advance width="592"/>
  <unicode hex="012C"/>
  <outline>
    <contour>
      <point x="226" y="1504" type="qcurve" smooth="yes"/>
      <point x="154" y="1504"/>
      <point x="41" y="1598"/>
      <point x="30" y="1667" type="qcurve"/>
      <point x="141" y="1700" type="line"/>
      <point x="141" y="1667"/>
      <point x="193" y="1619"/>
      <point x="226" y="1619" type="qcurve" smooth="yes"/>
      <point x="259" y="1619"/>
      <point x="311" y="1667"/>
      <point x="311" y="1700" type="qcurve"/>
      <point x="422" y="1667" type="line"/>
      <point x="411" y="1598"/>
      <point x="298" y="1504"/>
    </contour>
    <contour>
      <point x="100" y="1400" type="line"/>
      <point x="350" y="1400" type="line"/>
      <point x="350" y="0" type="line"/>
      <point x="100" y="0" type="line"/>
    </contour>
  </outline>
</glyph>
<glyph name="ibreve" format="1">
  <advance width="592"/>
  <unicode hex="012D"/>
  <outline>
    <contour>
      <point x="170" y="1400" type="curve"/>
      <point x="170" y="1400"/>
      <point x="420" y="1400"/>
      <point x="420" y="1400" type="curve"/>
      <point x="420" y="1400"/>
      <point x="420" y="0"/>
      <point x="420" y="0" type="curve"/>
      <point x="420" y="0"/>
      <point x="170" y="0"/>
      <point x="170" y="0" type="curve"/>
      <point x="170" y="0"/>
      <point x="170" y="1400"/>
    </contour>
    <contour>
      <point x="296" y="1504" type="curve" smooth="yes"/>
      <point x="200" y="1504"/>
      <point x="115" y="1575"/>
      <point x="100" y="1667" type="curve"/>
      <point x="100" y="1667"/>
      <point x="211" y="1700"/>
      <point x="211" y="1700" type="curve"/>
      <point x="211" y="1656"/>
      <point x="252" y="1619"/>
      <point x="296" y="1619" type="curve" smooth="yes"/>
      <point x="340" y="1619"/>
      <point x="381" y="1656"/>
      <point x="381" y="1700" type="curve"/>
      <point x="381" y="1700"/>
      <point x="492" y="1667"/>
      <point x="492" y="1667" type="curve"/>
      <point x="477" y="1575"/>
      <point x="392" y="1504"/>
    </contour>
  </outline>
</glyph>
<glyph name="iogonek" format="1">
  <advance width="720"/>
  <unicode hex="012F"/>
  <outline>
    <contour>
      <point x="100" y="-20" type="line"/>
      <point x="100" y="1400" type="line"/>
      <point x="350" y="1400" type="line"/>
      <point x="350" y="0" type="line"/>
      <point x="200" y="-153" type="line"/>
      <point x="200" y="-167" type="line" smooth="yes"/>
      <point x="200" y="-193"/>
      <point x="236" y="-230"/>
      <point x="262" y="-230" type="qcurve" smooth="yes"/>
      <point x="397" y="-230" type="line" smooth="yes"/>
      <point x="423" y="-230"/>
      <point x="460" y="-193"/>
      <point x="460" y="-167" type="qcurve" smooth="yes"/>
      <point x="460" y="-155" type="line"/>
      <point x="620" y="-155" type="line"/>
      <point x="620" y="-230" type="line" smooth="yes"/>
      <point x="620" y="-296"/>
      <point x="526" y="-390"/>
      <point x="460" y="-390" type="qcurve" smooth="yes"/>
      <point x="200" y="-390" type="line" smooth="yes"/>
      <point x="134" y="-390"/>
      <point x="40" y="-296"/>
      <point x="40" y="-230" type="qcurve" smooth="yes"/>
      <point x="40" y="-80" type="line"/>
    </contour>
  </outline>
</glyph>
<glyph name="Idotaccent" format="1">
  <advance width="450"/>
  <unicode hex="0130"/>
  <outline>
    <contour>
      <point x="150" y="1700" type="line"/>
      <point x="300" y="1700" type="line"/>
      <point x="300" y="1550" type="line"/>
      <point x="150" y="1550" type="line"/>
    </contour>
    <contour>
      <point x="100" y="1400" type="line"/>
      <point x="350" y="1400" type="line"/>
      <point x="350" y="0" type="line"/>
      <point x="100" y="0" type="line"/>
    </contour>
  </outline>
</glyph>
<glyph name="ij" format="1">
  <advance width="910"/>
  <unicode hex="0133"/>
  <outline>
    <contour>
      <point x="100" y="1400" type="line"/>
      <point x="350" y="1400" type="line"/>
      <point x="350" y="0" type="line"/>
      <point x="100" y="0" type="line"/>
    </contour>
    <contour>
      <point x="100" y="-255" type="qcurve" smooth="yes"/>
      <point x="100" y="-80" type="line"/>
      <point x="350" y="-80" type="line"/>
      <point x="350" y="-140" type="line"/>
      <point x="560" y="-140" type="line"/>
      <point x="560" y="1400" type="line"/>
      <point x="810" y="1400" type="line"/>
      <point x="810" y="-255" type="line" smooth="yes"/>
      <point x="810" y="-315"/>
      <point x="725" y="-400"/>
      <point x="665" y="-400" type="qcurve" smooth="yes"/>
      <point x="245" y="-400" type="line" smooth="yes"/>
      <point x="185" y="-400"/>
      <point x="100" y="-315"/>
    </contour>
  </outline>
</glyph>
<glyph name="Jcircumflex" format="1">
  <advance width="941"/>
  <unicode hex="0134"/>
  <outline>
    <contour>
      <point x="584" y="1800" type="line"/>
      <point x="757" y="1800" type="line"/>
      <point x="941" y="1500" type="line"/>
      <point x="786" y="1500" type="line"/>
      <point x="671" y="1682" type="line"/>
      <point x="555" y="1500" type="line"/>
      <point x="400" y="1500" type="line"/>
    </contour>
    <contour>
      <point x="100" y="145" type="qcurve" smooth="yes"/>
      <point x="100" y="430" type="line"/>
      <point x="350" y="430" type="line"/>
      <point x="350" y="260" type="line"/>
      <point x="560" y="260" type="line"/>
      <point x="560" y="1400" type="line"/>
      <point x="810" y="1400" type="line"/>
      <point x="810" y="145" type="line" smooth="yes"/>
      <point x="810" y="85"/>
      <point x="725" y="0"/>
      <point x="665" y="0" type="qcurve" smooth="yes"/>
      <point x="245" y="0" type="line" smooth="yes"/>
      <point x="185" y="0"/>
      <point x="100" y="85"/>
    </contour>
  </outline>
</glyph>
